<svg width="191" height="76" viewBox="0 0 191 76" fill="none" xmlns="http://www.w3.org/2000/svg">
<path d="M8.596 61.06C8.764 61.06 8.89467 61.116 8.988 61.228C9.08133 61.3307 9.128 61.4707 9.128 61.648V70.482C9.128 70.6593 9.07667 70.804 8.974 70.916C8.88067 71.0187 8.74533 71.07 8.568 71.07C8.39067 71.07 8.23667 70.9907 8.106 70.832L2.296 63.062V70.482C2.296 70.6593 2.24467 70.804 2.142 70.916C2.04867 71.0187 1.918 71.07 1.75 71.07C1.582 71.07 1.45133 71.0187 1.358 70.916C1.26467 70.804 1.218 70.6593 1.218 70.482V61.648C1.218 61.4707 1.26467 61.3307 1.358 61.228C1.46067 61.116 1.60067 61.06 1.778 61.06C1.96467 61.06 2.12333 61.1393 2.254 61.298L8.05 69.068V61.648C8.05 61.4707 8.09667 61.3307 8.19 61.228C8.29267 61.116 8.428 61.06 8.596 61.06ZM15.8416 71.07C15.6643 71.07 15.5243 71.0187 15.4216 70.916C15.3189 70.804 15.2676 70.6593 15.2676 70.482V61.648C15.2676 61.4707 15.3189 61.3307 15.4216 61.228C15.5243 61.116 15.6643 61.06 15.8416 61.06C16.0189 61.06 16.1589 61.116 16.2616 61.228C16.3643 61.3307 16.4156 61.4707 16.4156 61.648V70.482C16.4156 70.6593 16.3643 70.804 16.2616 70.916C16.1589 71.0187 16.0189 71.07 15.8416 71.07ZM29.7876 61.354C29.8343 61.2513 29.8996 61.172 29.9836 61.116C30.077 61.06 30.175 61.032 30.2776 61.032C30.427 61.032 30.5576 61.0833 30.6696 61.186C30.791 61.2793 30.8516 61.396 30.8516 61.536C30.8516 61.6107 30.833 61.6853 30.7956 61.76L26.7776 70.692C26.7216 70.8133 26.6376 70.9067 26.5256 70.972C26.4136 71.0373 26.2923 71.07 26.1616 71.07C26.031 71.07 25.9096 71.0373 25.7976 70.972C25.6856 70.9067 25.6016 70.8133 25.5456 70.692L21.5416 61.76C21.5136 61.6853 21.4996 61.6153 21.4996 61.55C21.4996 61.4007 21.5603 61.2793 21.6816 61.186C21.803 61.0833 21.9383 61.032 22.0876 61.032C22.3116 61.032 22.475 61.1393 22.5776 61.354L26.1896 69.516L29.7876 61.354ZM36.5173 71C36.34 71 36.1953 70.9487 36.0833 70.846C35.9807 70.7433 35.9293 70.608 35.9293 70.44V61.69C35.9293 61.522 35.9807 61.3867 36.0833 61.284C36.1953 61.1813 36.34 61.13 36.5173 61.13H41.7533C41.9213 61.13 42.052 61.172 42.1453 61.256C42.2387 61.34 42.2853 61.4567 42.2853 61.606C42.2853 61.7553 42.2387 61.872 42.1453 61.956C42.052 62.04 41.9213 62.082 41.7533 62.082H37.0633V65.512H41.4733C41.6413 65.512 41.772 65.554 41.8653 65.638C41.9587 65.722 42.0053 65.8387 42.0053 65.988C42.0053 66.1373 41.9587 66.254 41.8653 66.338C41.772 66.422 41.6413 66.464 41.4733 66.464H37.0633V70.048H41.7533C41.9213 70.048 42.052 70.09 42.1453 70.174C42.2387 70.2487 42.2853 70.3653 42.2853 70.524C42.2853 70.6733 42.2387 70.79 42.1453 70.874C42.052 70.958 41.9213 71 41.7533 71H36.5173ZM48.3378 71C48.1791 71 48.0438 70.9533 47.9318 70.86C47.8291 70.7573 47.7778 70.6267 47.7778 70.468V61.648C47.7778 61.4707 47.8291 61.3307 47.9318 61.228C48.0344 61.116 48.1744 61.06 48.3518 61.06C48.5291 61.06 48.6691 61.116 48.7718 61.228C48.8744 61.3307 48.9258 61.4707 48.9258 61.648V70.02H53.4478C53.6158 70.02 53.7464 70.062 53.8398 70.146C53.9331 70.23 53.9798 70.3513 53.9798 70.51C53.9798 70.6687 53.9331 70.79 53.8398 70.874C53.7464 70.958 53.6158 71 53.4478 71H48.3378ZM66.9357 71C66.7584 71 66.6137 70.9487 66.5017 70.846C66.399 70.7433 66.3477 70.608 66.3477 70.44V61.69C66.3477 61.522 66.399 61.3867 66.5017 61.284C66.6137 61.1813 66.7584 61.13 66.9357 61.13H69.6657C71.243 61.13 72.461 61.5593 73.3197 62.418C74.1877 63.2673 74.6217 64.4807 74.6217 66.058C74.6217 67.6353 74.1877 68.8533 73.3197 69.712C72.4517 70.5707 71.2337 71 69.6657 71H66.9357ZM69.5957 70.02C72.153 70.02 73.4317 68.6993 73.4317 66.058C73.4317 63.426 72.153 62.11 69.5957 62.11H67.4957V70.02H69.5957ZM80.9853 71C80.808 71 80.6633 70.9487 80.5513 70.846C80.4486 70.7433 80.3973 70.608 80.3973 70.44V61.69C80.3973 61.522 80.4486 61.3867 80.5513 61.284C80.6633 61.1813 80.808 61.13 80.9853 61.13H86.2213C86.3893 61.13 86.52 61.172 86.6133 61.256C86.7066 61.34 86.7533 61.4567 86.7533 61.606C86.7533 61.7553 86.7066 61.872 86.6133 61.956C86.52 62.04 86.3893 62.082 86.2213 62.082H81.5313V65.512H85.9413C86.1093 65.512 86.24 65.554 86.3333 65.638C86.4266 65.722 86.4733 65.8387 86.4733 65.988C86.4733 66.1373 86.4266 66.254 86.3333 66.338C86.24 66.422 86.1093 66.464 85.9413 66.464H81.5313V70.048H86.2213C86.3893 70.048 86.52 70.09 86.6133 70.174C86.7066 70.2487 86.7533 70.3653 86.7533 70.524C86.7533 70.6733 86.7066 70.79 86.6133 70.874C86.52 70.958 86.3893 71 86.2213 71H80.9853ZM103.741 71.112C102.808 71.112 102 70.9113 101.319 70.51C100.638 70.0993 100.11 69.516 99.7371 68.76C99.3731 67.9947 99.1911 67.094 99.1911 66.058C99.1911 65.0313 99.3731 64.14 99.7371 63.384C100.11 62.6187 100.638 62.0353 101.319 61.634C102 61.2233 102.808 61.018 103.741 61.018C104.366 61.018 104.954 61.1207 105.505 61.326C106.065 61.522 106.55 61.8067 106.961 62.18C107.11 62.32 107.185 62.4833 107.185 62.67C107.185 62.8007 107.148 62.9173 107.073 63.02C106.998 63.1133 106.91 63.16 106.807 63.16C106.695 63.16 106.56 63.1087 106.401 63.006C105.925 62.6327 105.491 62.3713 105.099 62.222C104.716 62.0727 104.273 61.998 103.769 61.998C102.686 61.998 101.851 62.3527 101.263 63.062C100.684 63.762 100.395 64.7607 100.395 66.058C100.395 67.3647 100.684 68.3727 101.263 69.082C101.851 69.782 102.686 70.132 103.769 70.132C104.264 70.132 104.707 70.0573 105.099 69.908C105.491 69.7587 105.925 69.4973 106.401 69.124C106.56 69.0213 106.695 68.97 106.807 68.97C106.91 68.97 106.998 69.0167 107.073 69.11C107.148 69.2033 107.185 69.32 107.185 69.46C107.185 69.6467 107.11 69.81 106.961 69.95C106.55 70.3233 106.065 70.6127 105.505 70.818C104.954 71.014 104.366 71.112 103.741 71.112ZM116.709 71.112C115.795 71.112 114.997 70.9067 114.315 70.496C113.643 70.0853 113.125 69.502 112.761 68.746C112.397 67.99 112.215 67.0987 112.215 66.072C112.215 65.036 112.393 64.14 112.747 63.384C113.111 62.6187 113.629 62.0353 114.301 61.634C114.983 61.2233 115.785 61.018 116.709 61.018C117.633 61.018 118.431 61.2233 119.103 61.634C119.785 62.0353 120.303 62.6187 120.657 63.384C121.021 64.14 121.203 65.0313 121.203 66.058C121.203 67.0847 121.021 67.9807 120.657 68.746C120.293 69.502 119.771 70.0853 119.089 70.496C118.417 70.9067 117.624 71.112 116.709 71.112ZM116.709 70.132C117.755 70.132 118.567 69.782 119.145 69.082C119.733 68.3727 120.027 67.3647 120.027 66.058C120.027 64.7513 119.738 63.748 119.159 63.048C118.581 62.348 117.764 61.998 116.709 61.998C115.664 61.998 114.847 62.3527 114.259 63.062C113.681 63.762 113.391 64.7607 113.391 66.058C113.391 67.3553 113.681 68.3587 114.259 69.068C114.847 69.7773 115.664 70.132 116.709 70.132ZM134.349 61.06C134.517 61.06 134.647 61.116 134.741 61.228C134.834 61.3307 134.881 61.4707 134.881 61.648V70.482C134.881 70.6593 134.829 70.804 134.727 70.916C134.633 71.0187 134.498 71.07 134.321 71.07C134.143 71.07 133.989 70.9907 133.859 70.832L128.049 63.062V70.482C128.049 70.6593 127.997 70.804 127.895 70.916C127.801 71.0187 127.671 71.07 127.503 71.07C127.335 71.07 127.204 71.0187 127.111 70.916C127.017 70.804 126.971 70.6593 126.971 70.482V61.648C126.971 61.4707 127.017 61.3307 127.111 61.228C127.213 61.116 127.353 61.06 127.531 61.06C127.717 61.06 127.876 61.1393 128.007 61.298L133.803 69.068V61.648C133.803 61.4707 133.849 61.3307 133.943 61.228C134.045 61.116 134.181 61.06 134.349 61.06ZM141.594 71.07C141.417 71.07 141.277 71.0187 141.174 70.916C141.072 70.804 141.02 70.6593 141.02 70.482V61.69C141.02 61.522 141.072 61.3867 141.174 61.284C141.286 61.1813 141.431 61.13 141.608 61.13H146.704C146.872 61.13 147.003 61.172 147.096 61.256C147.19 61.34 147.236 61.4613 147.236 61.62C147.236 61.7693 147.19 61.886 147.096 61.97C147.003 62.054 146.872 62.096 146.704 62.096H142.154V65.498H146.424C146.592 65.498 146.723 65.54 146.816 65.624C146.91 65.708 146.956 65.8293 146.956 65.988C146.956 66.1373 146.91 66.254 146.816 66.338C146.723 66.422 146.592 66.464 146.424 66.464H142.154V70.482C142.154 70.6593 142.103 70.804 142 70.916C141.907 71.0187 141.772 71.07 141.594 71.07ZM156.425 71.112C155.51 71.112 154.712 70.9067 154.031 70.496C153.359 70.0853 152.841 69.502 152.477 68.746C152.113 67.99 151.931 67.0987 151.931 66.072C151.931 65.036 152.108 64.14 152.463 63.384C152.827 62.6187 153.345 62.0353 154.017 61.634C154.698 61.2233 155.501 61.018 156.425 61.018C157.349 61.018 158.147 61.2233 158.819 61.634C159.5 62.0353 160.018 62.6187 160.373 63.384C160.737 64.14 160.919 65.0313 160.919 66.058C160.919 67.0847 160.737 67.9807 160.373 68.746C160.009 69.502 159.486 70.0853 158.805 70.496C158.133 70.9067 157.339 71.112 156.425 71.112ZM156.425 70.132C157.47 70.132 158.282 69.782 158.861 69.082C159.449 68.3727 159.743 67.3647 159.743 66.058C159.743 64.7513 159.453 63.748 158.875 63.048C158.296 62.348 157.479 61.998 156.425 61.998C155.379 61.998 154.563 62.3527 153.975 63.062C153.396 63.762 153.107 64.7607 153.107 66.058C153.107 67.3553 153.396 68.3587 153.975 69.068C154.563 69.7773 155.379 70.132 156.425 70.132ZM174.218 70.286C174.283 70.3887 174.316 70.496 174.316 70.608C174.316 70.748 174.26 70.8647 174.148 70.958C174.045 71.042 173.924 71.084 173.784 71.084C173.569 71.084 173.401 70.9907 173.28 70.804L171.404 67.836C171.161 67.4533 170.909 67.192 170.648 67.052C170.387 66.9027 170.032 66.828 169.584 66.828H167.82V70.482C167.82 70.6593 167.769 70.804 167.666 70.916C167.563 71.0187 167.428 71.07 167.26 71.07C167.083 71.07 166.943 71.0187 166.84 70.916C166.737 70.804 166.686 70.6593 166.686 70.482V61.69C166.686 61.522 166.737 61.3867 166.84 61.284C166.952 61.1813 167.097 61.13 167.274 61.13H170.746C171.819 61.13 172.636 61.368 173.196 61.844C173.765 62.32 174.05 63.02 174.05 63.944C174.05 64.728 173.821 65.358 173.364 65.834C172.916 66.31 172.272 66.5993 171.432 66.702C171.665 66.7767 171.875 66.898 172.062 67.066C172.249 67.234 172.435 67.4673 172.622 67.766L174.218 70.286ZM170.648 65.876C171.413 65.876 171.983 65.7173 172.356 65.4C172.739 65.0827 172.93 64.602 172.93 63.958C172.93 63.3233 172.743 62.852 172.37 62.544C171.997 62.236 171.423 62.082 170.648 62.082H167.82V65.876H170.648ZM182.678 71.07C182.501 71.07 182.356 71.0187 182.244 70.916C182.142 70.804 182.09 70.6593 182.09 70.482V62.11H179.08C178.912 62.11 178.782 62.068 178.688 61.984C178.595 61.9 178.548 61.7787 178.548 61.62C178.548 61.4613 178.595 61.34 178.688 61.256C178.782 61.172 178.912 61.13 179.08 61.13H186.262C186.43 61.13 186.561 61.172 186.654 61.256C186.748 61.34 186.794 61.4613 186.794 61.62C186.794 61.7787 186.748 61.9 186.654 61.984C186.561 62.068 186.43 62.11 186.262 62.11H183.252V70.482C183.252 70.6593 183.201 70.804 183.098 70.916C182.996 71.0187 182.856 71.07 182.678 71.07Z" fill="#373737"/>
<rect x="1" y="45" width="44" height="5" fill="#126ABF"/>
<rect x="49" y="45" width="44" height="5" fill="#126ABF"/>
<rect x="97" y="45" width="44" height="5" fill="#126ABF"/>
<rect x="145" y="45" width="44" height="5" fill="#D8D8D8"/>
<path d="M86.596 32.402C86.6867 32.5833 86.732 32.776 86.732 32.98C86.732 33.32 86.596 33.6033 86.324 33.83C86.0747 34.0567 85.7687 34.17 85.406 34.17C84.8393 34.17 84.4427 33.898 84.216 33.354L81.802 27.846H68.984L66.536 33.354C66.3093 33.898 65.9127 34.17 65.346 34.17C64.9833 34.17 64.666 34.0567 64.394 33.83C64.122 33.5807 63.986 33.286 63.986 32.946C63.986 32.7647 64.0313 32.5833 64.122 32.402L73.846 10.778C73.982 10.4607 74.186 10.2227 74.458 10.064C74.73 9.90533 75.0247 9.826 75.342 9.826C75.682 9.826 75.988 9.91667 76.26 10.098C76.532 10.2567 76.736 10.4833 76.872 10.778L86.596 32.402ZM80.782 25.534L75.376 13.328L70.004 25.534H80.782ZM91.6471 34.17C91.2391 34.17 90.8991 34.0567 90.6271 33.83C90.3778 33.5807 90.2531 33.2407 90.2531 32.81V11.22C90.2531 10.7893 90.3778 10.4607 90.6271 10.234C90.8991 9.98467 91.2391 9.86 91.6471 9.86C92.0325 9.86 92.3498 9.98467 92.5991 10.234C92.8711 10.4607 93.0071 10.7893 93.0071 11.22V32.81C93.0071 33.2407 92.8711 33.5807 92.5991 33.83C92.3498 34.0567 92.0325 34.17 91.6471 34.17ZM105.805 31.994C106.599 32.062 106.995 32.4247 106.995 33.082C106.995 33.4673 106.848 33.762 106.553 33.966C106.281 34.1473 105.862 34.2153 105.295 34.17L104.377 34.102C102.564 33.966 101.227 33.422 100.365 32.47C99.5041 31.518 99.0735 30.0787 99.0735 28.152V19.618H96.7955C96.4101 19.618 96.1041 19.5273 95.8775 19.346C95.6735 19.142 95.5715 18.8813 95.5715 18.564C95.5715 18.224 95.6735 17.952 95.8775 17.748C96.1041 17.544 96.4101 17.442 96.7955 17.442H99.0735V13.6C99.0735 13.1693 99.1981 12.8407 99.4475 12.614C99.6968 12.3647 100.037 12.24 100.467 12.24C100.875 12.24 101.204 12.3647 101.453 12.614C101.703 12.8407 101.827 13.1693 101.827 13.6V17.442H105.601C105.964 17.442 106.247 17.544 106.451 17.748C106.678 17.952 106.791 18.224 106.791 18.564C106.791 18.8813 106.678 19.142 106.451 19.346C106.247 19.5273 105.964 19.618 105.601 19.618H101.827V28.288C101.827 29.5347 102.077 30.4413 102.575 31.008C103.097 31.552 103.867 31.858 104.887 31.926L105.805 31.994ZM116.578 34.238C115.014 34.238 113.631 33.8867 112.43 33.184C111.251 32.4813 110.333 31.484 109.676 30.192C109.041 28.8773 108.724 27.3587 108.724 25.636C108.724 23.9133 109.041 22.406 109.676 21.114C110.333 19.7993 111.251 18.7907 112.43 18.088C113.631 17.3853 115.014 17.034 116.578 17.034C118.142 17.034 119.525 17.3853 120.726 18.088C121.927 18.7907 122.845 19.7993 123.48 21.114C124.137 22.406 124.466 23.9133 124.466 25.636C124.466 27.3587 124.137 28.8773 123.48 30.192C122.845 31.484 121.927 32.4813 120.726 33.184C119.525 33.8867 118.142 34.238 116.578 34.238ZM116.578 31.96C118.21 31.96 119.457 31.4273 120.318 30.362C121.202 29.274 121.644 27.6987 121.644 25.636C121.644 23.6187 121.202 22.066 120.318 20.978C119.434 19.8673 118.187 19.312 116.578 19.312C114.969 19.312 113.722 19.8673 112.838 20.978C111.954 22.066 111.512 23.6187 111.512 25.636C111.512 27.676 111.943 29.24 112.804 30.328C113.688 31.416 114.946 31.96 116.578 31.96Z" fill="#373737"/>
</svg>
