<svg width="184" height="65" viewBox="0 0 184 65" fill="none" xmlns="http://www.w3.org/2000/svg">
<path d="M8.596 50.06C8.764 50.06 8.89467 50.116 8.988 50.228C9.08133 50.3307 9.128 50.4707 9.128 50.648V59.482C9.128 59.6593 9.07667 59.804 8.974 59.916C8.88067 60.0187 8.74533 60.07 8.568 60.07C8.39067 60.07 8.23667 59.9907 8.106 59.832L2.296 52.062V59.482C2.296 59.6593 2.24467 59.804 2.142 59.916C2.04867 60.0187 1.918 60.07 1.75 60.07C1.582 60.07 1.45133 60.0187 1.358 59.916C1.26467 59.804 1.218 59.6593 1.218 59.482V50.648C1.218 50.4707 1.26467 50.3307 1.358 50.228C1.46067 50.116 1.60067 50.06 1.778 50.06C1.96467 50.06 2.12333 50.1393 2.254 50.298L8.05 58.068V50.648C8.05 50.4707 8.09667 50.3307 8.19 50.228C8.29267 50.116 8.428 50.06 8.596 50.06ZM15.8416 60.07C15.6643 60.07 15.5243 60.0187 15.4216 59.916C15.3189 59.804 15.2676 59.6593 15.2676 59.482V50.648C15.2676 50.4707 15.3189 50.3307 15.4216 50.228C15.5243 50.116 15.6643 50.06 15.8416 50.06C16.0189 50.06 16.1589 50.116 16.2616 50.228C16.3643 50.3307 16.4156 50.4707 16.4156 50.648V59.482C16.4156 59.6593 16.3643 59.804 16.2616 59.916C16.1589 60.0187 16.0189 60.07 15.8416 60.07ZM29.7876 50.354C29.8343 50.2513 29.8996 50.172 29.9836 50.116C30.077 50.06 30.175 50.032 30.2776 50.032C30.427 50.032 30.5576 50.0833 30.6696 50.186C30.791 50.2793 30.8516 50.396 30.8516 50.536C30.8516 50.6107 30.833 50.6853 30.7956 50.76L26.7776 59.692C26.7216 59.8133 26.6376 59.9067 26.5256 59.972C26.4136 60.0373 26.2923 60.07 26.1616 60.07C26.031 60.07 25.9096 60.0373 25.7976 59.972C25.6856 59.9067 25.6016 59.8133 25.5456 59.692L21.5416 50.76C21.5136 50.6853 21.4996 50.6153 21.4996 50.55C21.4996 50.4007 21.5603 50.2793 21.6816 50.186C21.803 50.0833 21.9383 50.032 22.0876 50.032C22.3116 50.032 22.475 50.1393 22.5776 50.354L26.1896 58.516L29.7876 50.354ZM36.5173 60C36.34 60 36.1953 59.9487 36.0833 59.846C35.9807 59.7433 35.9293 59.608 35.9293 59.44V50.69C35.9293 50.522 35.9807 50.3867 36.0833 50.284C36.1953 50.1813 36.34 50.13 36.5173 50.13H41.7533C41.9213 50.13 42.052 50.172 42.1453 50.256C42.2387 50.34 42.2853 50.4567 42.2853 50.606C42.2853 50.7553 42.2387 50.872 42.1453 50.956C42.052 51.04 41.9213 51.082 41.7533 51.082H37.0633V54.512H41.4733C41.6413 54.512 41.772 54.554 41.8653 54.638C41.9587 54.722 42.0053 54.8387 42.0053 54.988C42.0053 55.1373 41.9587 55.254 41.8653 55.338C41.772 55.422 41.6413 55.464 41.4733 55.464H37.0633V59.048H41.7533C41.9213 59.048 42.052 59.09 42.1453 59.174C42.2387 59.2487 42.2853 59.3653 42.2853 59.524C42.2853 59.6733 42.2387 59.79 42.1453 59.874C42.052 59.958 41.9213 60 41.7533 60H36.5173ZM48.3378 60C48.1791 60 48.0438 59.9533 47.9318 59.86C47.8291 59.7573 47.7778 59.6267 47.7778 59.468V50.648C47.7778 50.4707 47.8291 50.3307 47.9318 50.228C48.0344 50.116 48.1744 50.06 48.3518 50.06C48.5291 50.06 48.6691 50.116 48.7718 50.228C48.8744 50.3307 48.9258 50.4707 48.9258 50.648V59.02H53.4478C53.6158 59.02 53.7464 59.062 53.8398 59.146C53.9331 59.23 53.9798 59.3513 53.9798 59.51C53.9798 59.6687 53.9331 59.79 53.8398 59.874C53.7464 59.958 53.6158 60 53.4478 60H48.3378ZM66.9357 60C66.7584 60 66.6137 59.9487 66.5017 59.846C66.399 59.7433 66.3477 59.608 66.3477 59.44V50.69C66.3477 50.522 66.399 50.3867 66.5017 50.284C66.6137 50.1813 66.7584 50.13 66.9357 50.13H69.6657C71.243 50.13 72.461 50.5593 73.3197 51.418C74.1877 52.2673 74.6217 53.4807 74.6217 55.058C74.6217 56.6353 74.1877 57.8533 73.3197 58.712C72.4517 59.5707 71.2337 60 69.6657 60H66.9357ZM69.5957 59.02C72.153 59.02 73.4317 57.6993 73.4317 55.058C73.4317 52.426 72.153 51.11 69.5957 51.11H67.4957V59.02H69.5957ZM80.9853 60C80.808 60 80.6633 59.9487 80.5513 59.846C80.4486 59.7433 80.3973 59.608 80.3973 59.44V50.69C80.3973 50.522 80.4486 50.3867 80.5513 50.284C80.6633 50.1813 80.808 50.13 80.9853 50.13H86.2213C86.3893 50.13 86.52 50.172 86.6133 50.256C86.7066 50.34 86.7533 50.4567 86.7533 50.606C86.7533 50.7553 86.7066 50.872 86.6133 50.956C86.52 51.04 86.3893 51.082 86.2213 51.082H81.5313V54.512H85.9413C86.1093 54.512 86.24 54.554 86.3333 54.638C86.4266 54.722 86.4733 54.8387 86.4733 54.988C86.4733 55.1373 86.4266 55.254 86.3333 55.338C86.24 55.422 86.1093 55.464 85.9413 55.464H81.5313V59.048H86.2213C86.3893 59.048 86.52 59.09 86.6133 59.174C86.7066 59.2487 86.7533 59.3653 86.7533 59.524C86.7533 59.6733 86.7066 59.79 86.6133 59.874C86.52 59.958 86.3893 60 86.2213 60H80.9853ZM100.129 60.07C99.9518 60.07 99.8118 60.0187 99.7091 59.916C99.6064 59.804 99.5551 59.6593 99.5551 59.482V50.69C99.5551 50.522 99.6064 50.3867 99.7091 50.284C99.8211 50.1813 99.9658 50.13 100.143 50.13H105.239C105.407 50.13 105.538 50.172 105.631 50.256C105.724 50.34 105.771 50.4613 105.771 50.62C105.771 50.7693 105.724 50.886 105.631 50.97C105.538 51.054 105.407 51.096 105.239 51.096H100.689V54.498H104.959C105.127 54.498 105.258 54.54 105.351 54.624C105.444 54.708 105.491 54.8293 105.491 54.988C105.491 55.1373 105.444 55.254 105.351 55.338C105.258 55.422 105.127 55.464 104.959 55.464H100.689V59.482C100.689 59.6593 100.638 59.804 100.535 59.916C100.442 60.0187 100.306 60.07 100.129 60.07ZM111.622 60.07C111.445 60.07 111.305 60.0187 111.202 59.916C111.099 59.804 111.048 59.6593 111.048 59.482V50.648C111.048 50.4707 111.099 50.3307 111.202 50.228C111.305 50.116 111.445 50.06 111.622 50.06C111.799 50.06 111.939 50.116 112.042 50.228C112.145 50.3307 112.196 50.4707 112.196 50.648V59.482C112.196 59.6593 112.145 59.804 112.042 59.916C111.939 60.0187 111.799 60.07 111.622 60.07ZM125.862 59.286C125.927 59.3887 125.96 59.496 125.96 59.608C125.96 59.748 125.904 59.8647 125.792 59.958C125.689 60.042 125.568 60.084 125.428 60.084C125.213 60.084 125.045 59.9907 124.924 59.804L123.048 56.836C122.805 56.4533 122.553 56.192 122.292 56.052C122.031 55.9027 121.676 55.828 121.228 55.828H119.464V59.482C119.464 59.6593 119.413 59.804 119.31 59.916C119.207 60.0187 119.072 60.07 118.904 60.07C118.727 60.07 118.587 60.0187 118.484 59.916C118.381 59.804 118.33 59.6593 118.33 59.482V50.69C118.33 50.522 118.381 50.3867 118.484 50.284C118.596 50.1813 118.741 50.13 118.918 50.13H122.39C123.463 50.13 124.28 50.368 124.84 50.844C125.409 51.32 125.694 52.02 125.694 52.944C125.694 53.728 125.465 54.358 125.008 54.834C124.56 55.31 123.916 55.5993 123.076 55.702C123.309 55.7767 123.519 55.898 123.706 56.066C123.893 56.234 124.079 56.4673 124.266 56.766L125.862 59.286ZM122.292 54.876C123.057 54.876 123.627 54.7173 124 54.4C124.383 54.0827 124.574 53.602 124.574 52.958C124.574 52.3233 124.387 51.852 124.014 51.544C123.641 51.236 123.067 51.082 122.292 51.082H119.464V54.876H122.292ZM140.392 50.06C140.569 50.06 140.704 50.116 140.798 50.228C140.9 50.3307 140.952 50.4707 140.952 50.648V59.51C140.952 59.678 140.905 59.8133 140.812 59.916C140.718 60.0187 140.588 60.07 140.42 60.07C140.252 60.07 140.126 60.0187 140.042 59.916C139.958 59.8133 139.916 59.678 139.916 59.51V52.356L136.878 58.18C136.747 58.4507 136.556 58.586 136.304 58.586C136.061 58.586 135.87 58.4507 135.73 58.18L132.678 52.426V59.51C132.678 59.678 132.631 59.8133 132.538 59.916C132.454 60.0187 132.328 60.07 132.16 60.07C131.992 60.07 131.861 60.0187 131.768 59.916C131.674 59.8133 131.628 59.678 131.628 59.51V50.648C131.628 50.4707 131.679 50.3307 131.782 50.228C131.884 50.116 132.024 50.06 132.202 50.06C132.435 50.06 132.622 50.1953 132.762 50.466L136.318 57.284L139.832 50.466C139.906 50.3167 139.986 50.214 140.07 50.158C140.163 50.0927 140.27 50.06 140.392 50.06ZM147.687 60C147.51 60 147.365 59.9487 147.253 59.846C147.151 59.7433 147.099 59.608 147.099 59.44V50.69C147.099 50.522 147.151 50.3867 147.253 50.284C147.365 50.1813 147.51 50.13 147.687 50.13H152.923C153.091 50.13 153.222 50.172 153.315 50.256C153.409 50.34 153.455 50.4567 153.455 50.606C153.455 50.7553 153.409 50.872 153.315 50.956C153.222 51.04 153.091 51.082 152.923 51.082H148.233V54.512H152.643C152.811 54.512 152.942 54.554 153.035 54.638C153.129 54.722 153.175 54.8387 153.175 54.988C153.175 55.1373 153.129 55.254 153.035 55.338C152.942 55.422 152.811 55.464 152.643 55.464H148.233V59.048H152.923C153.091 59.048 153.222 59.09 153.315 59.174C153.409 59.2487 153.455 59.3653 153.455 59.524C153.455 59.6733 153.409 59.79 153.315 59.874C153.222 59.958 153.091 60 152.923 60H147.687ZM165.052 59.034C165.22 59.034 165.35 59.076 165.444 59.16C165.537 59.244 165.584 59.3607 165.584 59.51C165.584 59.6687 165.537 59.79 165.444 59.874C165.35 59.958 165.22 60 165.052 60H158.794C158.626 60 158.49 59.9533 158.388 59.86C158.294 59.7667 158.248 59.65 158.248 59.51C158.248 59.37 158.299 59.2253 158.402 59.076L164.002 51.096H158.794C158.626 51.096 158.495 51.054 158.402 50.97C158.308 50.886 158.262 50.7693 158.262 50.62C158.262 50.4613 158.308 50.34 158.402 50.256C158.495 50.172 158.626 50.13 158.794 50.13H164.898C165.066 50.13 165.196 50.1767 165.29 50.27C165.392 50.3633 165.444 50.48 165.444 50.62C165.444 50.7507 165.392 50.8907 165.29 51.04L159.676 59.034H165.052ZM179.267 59.342C179.304 59.4167 179.323 59.496 179.323 59.58C179.323 59.72 179.267 59.8367 179.155 59.93C179.052 60.0233 178.926 60.07 178.777 60.07C178.543 60.07 178.38 59.958 178.287 59.734L177.293 57.466H172.015L171.007 59.734C170.913 59.958 170.75 60.07 170.517 60.07C170.367 60.07 170.237 60.0233 170.125 59.93C170.013 59.8273 169.957 59.706 169.957 59.566C169.957 59.4913 169.975 59.4167 170.013 59.342L174.017 50.438C174.073 50.3073 174.157 50.2093 174.269 50.144C174.381 50.0787 174.502 50.046 174.633 50.046C174.773 50.046 174.899 50.0833 175.011 50.158C175.123 50.2233 175.207 50.3167 175.263 50.438L179.267 59.342ZM176.873 56.514L174.647 51.488L172.435 56.514H176.873Z" fill="#373737"/>
<g clip-path="url(#clip0)">
<path d="M47.596 32.402C47.6867 32.5833 47.732 32.776 47.732 32.98C47.732 33.32 47.596 33.6033 47.324 33.83C47.0747 34.0567 46.7687 34.17 46.406 34.17C45.8393 34.17 45.4427 33.898 45.216 33.354L42.802 27.846H29.984L27.536 33.354C27.3093 33.898 26.9127 34.17 26.346 34.17C25.9833 34.17 25.666 34.0567 25.394 33.83C25.122 33.5807 24.986 33.286 24.986 32.946C24.986 32.7647 25.0313 32.5833 25.122 32.402L34.846 10.778C34.982 10.4607 35.186 10.2227 35.458 10.064C35.73 9.90533 36.0247 9.826 36.342 9.826C36.682 9.826 36.988 9.91667 37.26 10.098C37.532 10.2567 37.736 10.4833 37.872 10.778L47.596 32.402ZM41.782 25.534L36.376 13.328L31.004 25.534H41.782ZM52.6471 34.17C52.2391 34.17 51.8991 34.0567 51.6271 33.83C51.3778 33.5807 51.2531 33.2407 51.2531 32.81V11.22C51.2531 10.7893 51.3778 10.4607 51.6271 10.234C51.8991 9.98467 52.2391 9.86 52.6471 9.86C53.0325 9.86 53.3498 9.98467 53.5991 10.234C53.8711 10.4607 54.0071 10.7893 54.0071 11.22V32.81C54.0071 33.2407 53.8711 33.5807 53.5991 33.83C53.3498 34.0567 53.0325 34.17 52.6471 34.17ZM66.8055 31.994C67.5988 32.062 67.9955 32.4247 67.9955 33.082C67.9955 33.4673 67.8481 33.762 67.5535 33.966C67.2815 34.1473 66.8621 34.2153 66.2955 34.17L65.3775 34.102C63.5641 33.966 62.2268 33.422 61.3655 32.47C60.5041 31.518 60.0735 30.0787 60.0735 28.152V19.618H57.7955C57.4101 19.618 57.1041 19.5273 56.8775 19.346C56.6735 19.142 56.5715 18.8813 56.5715 18.564C56.5715 18.224 56.6735 17.952 56.8775 17.748C57.1041 17.544 57.4101 17.442 57.7955 17.442H60.0735V13.6C60.0735 13.1693 60.1981 12.8407 60.4475 12.614C60.6968 12.3647 61.0368 12.24 61.4675 12.24C61.8755 12.24 62.2041 12.3647 62.4535 12.614C62.7028 12.8407 62.8275 13.1693 62.8275 13.6V17.442H66.6015C66.9641 17.442 67.2475 17.544 67.4515 17.748C67.6781 17.952 67.7915 18.224 67.7915 18.564C67.7915 18.8813 67.6781 19.142 67.4515 19.346C67.2475 19.5273 66.9641 19.618 66.6015 19.618H62.8275V28.288C62.8275 29.5347 63.0768 30.4413 63.5755 31.008C64.0968 31.552 64.8675 31.858 65.8875 31.926L66.8055 31.994ZM77.4762 17.034C81.6242 17.034 83.6982 19.21 83.6982 23.562V32.81C83.6982 33.218 83.5735 33.5467 83.3242 33.796C83.0975 34.0453 82.7802 34.17 82.3722 34.17C81.9642 34.17 81.6355 34.0453 81.3862 33.796C81.1368 33.5467 81.0122 33.218 81.0122 32.81V31.178C80.5815 32.1527 79.9242 32.912 79.0402 33.456C78.1562 33.9773 77.1362 34.238 75.9802 34.238C74.9148 34.238 73.9288 34.0227 73.0222 33.592C72.1382 33.1613 71.4355 32.5607 70.9142 31.79C70.3928 31.0193 70.1322 30.1693 70.1322 29.24C70.1322 27.9933 70.4495 27.03 71.0842 26.35C71.7188 25.6473 72.7615 25.1487 74.2122 24.854C75.6628 24.5367 77.6802 24.378 80.2642 24.378H81.0122V23.256C81.0122 21.896 80.7288 20.8987 80.1622 20.264C79.6182 19.6293 78.7228 19.312 77.4762 19.312C75.9348 19.312 74.3708 19.7313 72.7842 20.57C72.1722 20.9553 71.7415 21.148 71.4922 21.148C71.2202 21.148 70.9935 21.046 70.8122 20.842C70.6308 20.638 70.5402 20.3773 70.5402 20.06C70.5402 19.7427 70.6308 19.4707 70.8122 19.244C71.0162 18.9947 71.3335 18.7453 71.7642 18.496C72.5575 18.0427 73.4528 17.6913 74.4502 17.442C75.4702 17.17 76.4788 17.034 77.4762 17.034ZM76.3542 32.062C77.7142 32.062 78.8248 31.6087 79.6862 30.702C80.5702 29.7727 81.0122 28.5827 81.0122 27.132V26.146H80.4002C78.4055 26.146 76.8868 26.2367 75.8442 26.418C74.8015 26.5767 74.0535 26.86 73.6002 27.268C73.1695 27.6533 72.9542 28.2313 72.9542 29.002C72.9542 29.886 73.2715 30.6227 73.9062 31.212C74.5635 31.7787 75.3795 32.062 76.3542 32.062Z" fill="#373737"/>
<path d="M107.34 34H159.731" stroke="#126ABF" stroke-width="2" stroke-linecap="square"/>
<path d="M112.338 29H155.662" stroke="#126ABF" stroke-width="2" stroke-linecap="square"/>
<path d="M116.337 24H150.67" stroke="#126ABF" stroke-width="2" stroke-linecap="square"/>
<path d="M119.337 19H147.663" stroke="#126ABF" stroke-width="2" stroke-linecap="square"/>
<path d="M123.339 14H143.763" stroke="#126ABF" stroke-width="2" stroke-linecap="square"/>
</g>
<defs>
<clipPath id="clip0">
<rect width="136" height="46" fill="white" transform="translate(24)"/>
</clipPath>
</defs>
</svg>
