<svg width="264" height="54" viewBox="0 0 264 54" fill="none" xmlns="http://www.w3.org/2000/svg">
<path fill-rule="evenodd" clip-rule="evenodd" d="M14.377 16.0277C14.377 14.2567 13.026 13.4167 10.505 13.4167H4.832V18.6087H10.505C13.026 18.6087 14.377 17.8287 14.377 16.0277V16.0277ZM4.832 4.92374V9.87574H9.664C12.035 9.87574 13.326 9.03474 13.326 7.38374C13.326 5.73274 12.035 4.92374 9.664 4.92374H4.832ZM19.269 16.5387C19.269 20.1707 16.388 22.2707 10.865 22.2707H0V1.26074H10.265C15.518 1.26074 18.219 3.45274 18.219 6.72374C18.219 8.82474 17.138 10.4457 15.427 11.3457C17.769 12.0957 19.269 13.8967 19.269 16.5387V16.5387Z" fill="black"/>
<path fill-rule="evenodd" clip-rule="evenodd" d="M22.6331 22.2717H27.3151V0.000732422H22.6331V22.2717Z" fill="black"/>
<path fill-rule="evenodd" clip-rule="evenodd" d="M47.9356 6.12354V22.2705H43.4936V20.3505C42.2626 21.7615 40.4616 22.5115 38.4816 22.5115C34.4286 22.5115 31.5786 20.2295 31.5786 15.2475V6.12354H36.2596V14.5575C36.2596 17.2585 37.4606 18.4595 39.5316 18.4595C41.6926 18.4595 43.2526 17.0785 43.2526 14.1065V6.12354H47.9356Z" fill="black"/>
<path fill-rule="evenodd" clip-rule="evenodd" d="M55.7411 12.7865H63.6951C63.3651 10.7455 61.8341 9.42554 59.7331 9.42554C57.6021 9.42554 56.0711 10.7155 55.7411 12.7865M68.0171 15.5175H55.8021C56.2521 17.5285 57.9631 18.7595 60.4241 18.7595C62.1351 18.7595 63.3651 18.2495 64.4751 17.1985L66.9671 19.8995C65.4661 21.6105 63.2151 22.5115 60.3031 22.5115C54.7201 22.5115 51.0901 18.9995 51.0901 14.1965C51.0901 9.36454 54.7811 5.88354 59.7031 5.88354C64.4451 5.88354 68.1071 9.06454 68.1071 14.2575C68.1071 14.6175 68.0471 15.1275 68.0171 15.5175" fill="black"/>
<path fill-rule="evenodd" clip-rule="evenodd" d="M70.2402 11.7661C70.2402 5.43312 75.1022 0.901123 81.6452 0.901123C85.2772 0.901123 88.3082 2.22112 90.2892 4.62212L87.1682 7.50412C85.7572 5.88312 83.9862 5.04212 81.8862 5.04212C77.9532 5.04212 75.1622 7.80412 75.1622 11.7661C75.1622 15.7281 77.9532 18.4891 81.8862 18.4891C83.9862 18.4891 85.7572 17.6491 87.1682 15.9981L90.2892 18.8791C88.3082 21.3111 85.2772 22.6311 81.6152 22.6311C75.1022 22.6311 70.2402 18.0991 70.2402 11.7661" fill="black"/>
<path fill-rule="evenodd" clip-rule="evenodd" d="M102.687 17.1683V15.5183H99.4755C97.2855 15.5183 96.5945 16.3283 96.5945 17.4083C96.5945 18.5793 97.5845 19.3593 99.2355 19.3593C100.796 19.3593 102.147 18.6393 102.687 17.1683M107.369 13.0573V22.2713H102.987V20.2603C102.117 21.7303 100.436 22.5113 98.0655 22.5113C94.2835 22.5113 92.0325 20.4093 92.0325 17.6183C92.0325 14.7673 94.0425 12.7863 98.9655 12.7863H102.687C102.687 10.7753 101.486 9.6053 98.9655 9.6053C97.2545 9.6053 95.4845 10.1753 94.3135 11.1063L92.6325 7.8343C94.4035 6.5733 97.0145 5.8833 99.5955 5.8833C104.518 5.8833 107.369 8.1643 107.369 13.0573" fill="black"/>
<path fill-rule="evenodd" clip-rule="evenodd" d="M121.628 5.8833V10.2053C121.238 10.1753 120.938 10.1453 120.577 10.1453C117.996 10.1453 116.285 11.5563 116.285 14.6473V22.2713H111.604V6.1233H116.075V8.2543C117.216 6.6943 119.137 5.8833 121.628 5.8833" fill="black"/>
<path fill-rule="evenodd" clip-rule="evenodd" d="M127.992 12.7865H135.946C135.616 10.7455 134.085 9.42554 131.984 9.42554C129.853 9.42554 128.322 10.7155 127.992 12.7865M140.268 15.5175H128.053C128.503 17.5285 130.214 18.7595 132.675 18.7595C134.386 18.7595 135.616 18.2495 136.726 17.1985L139.218 19.8995C137.717 21.6105 135.466 22.5115 132.554 22.5115C126.971 22.5115 123.34 18.9995 123.34 14.1965C123.34 9.36454 127.032 5.88354 131.954 5.88354C136.696 5.88354 140.358 9.06454 140.358 14.2575C140.358 14.6175 140.298 15.1275 140.268 15.5175" fill="black"/>
<path fill-rule="evenodd" clip-rule="evenodd" d="M168.194 8.88423C168.194 6.57323 166.694 5.22323 163.722 5.22323H159.76V12.5162H163.722C166.694 12.5162 168.194 11.1652 168.194 8.88423M173.117 8.88423C173.117 13.5672 169.605 16.4782 163.992 16.4782H159.76V22.2712H154.898V1.26123H163.992C169.605 1.26123 173.117 4.17223 173.117 8.88423" fill="black"/>
<path fill-rule="evenodd" clip-rule="evenodd" d="M188.336 14.1968C188.336 11.4058 186.565 9.72479 184.225 9.72479C181.884 9.72479 180.083 11.4058 180.083 14.1968C180.083 16.9888 181.884 18.6698 184.225 18.6698C186.565 18.6698 188.336 16.9888 188.336 14.1968M175.341 14.1968C175.341 9.33479 179.092 5.88379 184.225 5.88379C189.357 5.88379 193.079 9.33479 193.079 14.1968C193.079 19.0588 189.357 22.5108 184.225 22.5108C179.092 22.5108 175.341 19.0588 175.341 14.1968" fill="black"/>
<path fill-rule="evenodd" clip-rule="evenodd" d="M195.001 14.1968C195.001 9.33479 198.753 5.88379 204.006 5.88379C207.397 5.88379 210.068 7.35379 211.239 9.99579L207.607 11.9458C206.737 10.4158 205.446 9.72479 203.976 9.72479C201.605 9.72479 199.744 11.3758 199.744 14.1968C199.744 17.0178 201.605 18.6698 203.976 18.6698C205.446 18.6698 206.737 18.0098 207.607 16.4488L211.239 18.4288C210.068 21.0098 207.397 22.5108 204.006 22.5108C198.753 22.5108 195.001 19.0588 195.001 14.1968" fill="black"/>
<path fill-rule="evenodd" clip-rule="evenodd" d="M220.876 15.938L218.624 18.159V22.271H213.942V0H218.624V12.607L225.468 6.124H231.05L224.327 12.966L231.65 22.271H225.978L220.876 15.938Z" fill="black"/>
<path fill-rule="evenodd" clip-rule="evenodd" d="M237.204 12.7865H245.158C244.828 10.7455 243.297 9.42554 241.196 9.42554C239.065 9.42554 237.534 10.7155 237.204 12.7865M249.48 15.5175H237.265C237.715 17.5285 239.426 18.7595 241.887 18.7595C243.598 18.7595 244.828 18.2495 245.938 17.1985L248.43 19.8995C246.929 21.6105 244.678 22.5115 241.766 22.5115C236.183 22.5115 232.552 18.9995 232.552 14.1965C232.552 9.36454 236.244 5.88354 241.166 5.88354C245.908 5.88354 249.57 9.06454 249.57 14.2575C249.57 14.6175 249.51 15.1275 249.48 15.5175" fill="black"/>
<path fill-rule="evenodd" clip-rule="evenodd" d="M263.109 21.4907C262.148 22.1807 260.738 22.5117 259.296 22.5117C255.485 22.5117 253.264 20.5597 253.264 16.7187V10.0857H250.773V6.48373H253.264V2.55273H257.946V6.48373H261.968V10.0857H257.946V16.6587C257.946 18.0387 258.697 18.7897 259.958 18.7897C260.647 18.7897 261.338 18.5797 261.848 18.1887L263.109 21.4907Z" fill="black"/>
<path fill-rule="evenodd" clip-rule="evenodd" d="M23.979 45.4279C23.906 46.2619 23.586 46.9739 23.169 47.3659C22.556 47.7589 21.256 48.1999 19.612 48.1999C14.018 48.1999 11 45.0109 11 40.3239C11 35.2449 14.852 32.1289 19.71 32.1289C22.042 32.1289 23.833 32.9139 24.225 33.3559C24.274 34.1909 23.709 35.0249 22.924 34.9019C22.188 34.5829 21.035 34.2399 19.686 34.2399C16.716 34.2399 14.288 36.1779 14.288 40.1039C14.288 43.4409 16.422 45.9919 20.324 45.9919C21.967 45.9919 23.268 45.5749 23.906 45.3779L23.979 45.4279Z" fill="black"/>
<path fill-rule="evenodd" clip-rule="evenodd" d="M30.6771 38.5577C29.1811 38.5577 28.3711 40.1037 28.3711 42.2127C28.3711 45.0107 29.5491 46.3107 30.9481 46.3107C32.4681 46.3107 33.2291 44.8147 33.2291 42.5567C33.2291 40.4717 32.4921 38.5577 30.7011 38.5577H30.6771ZM30.9481 36.7417C34.4811 36.7417 36.3451 39.2447 36.3451 42.2867C36.3451 45.7217 34.1131 48.1257 30.6771 48.1257C27.5121 48.1257 25.2551 46.0167 25.2551 42.5327C25.2551 39.1957 27.6351 36.7417 30.9221 36.7417H30.9481Z" fill="black"/>
<path fill-rule="evenodd" clip-rule="evenodd" d="M41.7192 47.17C41.7192 47.611 41.6452 47.759 41.1552 47.857C40.3212 47.955 39.5602 47.98 38.6762 47.98C38.7252 46.679 38.7502 45.183 38.7502 43.514V39.392C38.7502 38.73 38.6522 38.361 38.2832 38.141V37.969C38.5532 37.356 39.3882 36.741 40.0992 36.741C41.1302 36.741 41.4002 37.625 41.5722 38.386C42.5532 37.552 43.8542 36.741 45.1292 36.741C46.7242 36.741 47.5822 37.502 48.0982 38.533C49.0552 37.649 50.5022 36.741 51.8522 36.741C54.6242 36.741 55.3612 39.122 55.3612 40.986V44.323C55.3612 45.6 55.3852 46.948 55.4342 47.783C54.8702 47.832 53.8892 47.98 52.8582 47.98C52.5392 47.98 52.3922 47.832 52.3922 47.513V41.207C52.3922 39.833 51.7542 38.975 50.5522 38.975C49.6932 38.975 49.0552 39.441 48.5392 39.907V47.219C48.5392 47.66 48.4902 47.783 47.9752 47.857C47.1162 47.98 46.3802 47.98 45.4972 47.98C45.5462 46.679 45.5712 45.183 45.5712 43.514V41.207C45.5712 39.809 44.9332 38.975 43.7802 38.975C42.9702 38.975 42.2582 39.392 41.7192 39.907V47.17Z" fill="black"/>
<path fill-rule="evenodd" clip-rule="evenodd" d="M63.0404 38.5577C61.5444 38.5577 60.7344 40.1037 60.7344 42.2127C60.7344 45.0107 61.9124 46.3107 63.3114 46.3107C64.8314 46.3107 65.5924 44.8147 65.5924 42.5567C65.5924 40.4717 64.8554 38.5577 63.0644 38.5577H63.0404ZM63.3114 36.7417C66.8444 36.7417 68.7084 39.2447 68.7084 42.2867C68.7084 45.7217 66.4764 48.1257 63.0404 48.1257C59.8754 48.1257 57.6184 46.0167 57.6184 42.5327C57.6184 39.1957 59.9984 36.7417 63.2854 36.7417H63.3114Z" fill="black"/>
<path fill-rule="evenodd" clip-rule="evenodd" d="M78.1303 38.8273C77.8853 38.7043 77.3693 38.5573 76.7563 38.5573C75.2833 38.5573 73.5913 39.6373 73.5913 42.3603C73.5913 44.6673 74.9653 45.8933 76.5843 45.8933C77.0743 45.8933 77.7133 45.7223 78.1303 45.4523V38.8273ZM78.1303 34.1903C78.1303 32.7663 78.0803 32.1533 78.0073 31.6383C78.5233 31.4423 80.1423 31.1963 80.6333 31.1963C81.0003 31.1963 81.0993 31.3193 81.0993 32.8153V45.0843C81.0993 46.0413 81.4183 46.2863 82.1053 46.4333V46.5073C81.9823 47.2193 81.2953 48.1263 80.6083 48.1263C79.2583 48.1263 78.7193 47.5133 78.4733 46.8023C77.5663 47.5133 76.2403 48.1263 75.3083 48.1263C72.4383 48.1263 70.4753 46.0163 70.4753 42.7773C70.4753 39.1713 73.1743 36.7413 76.6573 36.7413C77.3203 36.7413 77.9093 36.8643 78.1303 36.9873V34.1903Z" fill="black"/>
<path fill-rule="evenodd" clip-rule="evenodd" d="M87.2572 47.2431C87.2572 47.6841 87.0852 47.8071 86.5452 47.8811C86.0552 47.9551 85.1712 47.9791 84.2152 47.9791C84.2392 46.9731 84.2882 45.5501 84.2882 44.1271V39.9311C84.2882 38.4341 84.2392 37.6741 84.1902 37.1831C84.7542 37.0121 86.3002 36.8891 86.8162 36.8891C87.1582 36.8891 87.2572 37.0121 87.2572 38.4341V47.2431ZM85.8342 31.5891C86.7662 31.5891 87.3302 32.2761 87.3302 33.1831C87.3302 34.1161 86.6682 34.8521 85.7362 34.8521C84.9752 34.8521 84.1902 34.3861 84.1902 33.2581C84.1902 32.0551 85.1952 31.5891 85.8102 31.5891H85.8342Z" fill="black"/>
<path fill-rule="evenodd" clip-rule="evenodd" d="M97.2192 38.8273C96.9732 38.7043 96.4582 38.5573 95.8452 38.5573C94.3722 38.5573 92.6802 39.6373 92.6802 42.3603C92.6802 44.6673 94.0542 45.8933 95.6732 45.8933C96.1632 45.8933 96.8022 45.7223 97.2192 45.4523V38.8273ZM97.2192 34.1903C97.2192 32.7663 97.1702 32.1533 97.0962 31.6383C97.6122 31.4423 99.2312 31.1963 99.7212 31.1963C100.089 31.1963 100.188 31.3193 100.188 32.8153V45.0843C100.188 46.0413 100.506 46.2863 101.194 46.4333V46.5073C101.071 47.2193 100.384 48.1263 99.6972 48.1263C98.3482 48.1263 97.8082 47.5133 97.5632 46.8023C96.6552 47.5133 95.3292 48.1263 94.3972 48.1263C91.5272 48.1263 89.5642 46.0163 89.5642 42.7773C89.5642 39.1713 92.2622 36.7413 95.7462 36.7413C96.4092 36.7413 96.9982 36.8643 97.2192 36.9873V34.1903Z" fill="black"/>
<path fill-rule="evenodd" clip-rule="evenodd" d="M105.414 44.667C105.414 45.525 106.076 46.017 106.861 46.017C107.549 46.017 107.941 45.746 108.284 45.378C108.407 45.231 108.48 44.985 108.48 44.544V42.802C106.347 43.048 105.414 43.833 105.414 44.643V44.667ZM112.578 46.065C112.602 47.366 111.916 48.126 110.518 48.126C109.512 48.126 108.849 47.611 108.53 46.753C107.892 47.439 106.812 48.126 105.635 48.126C104.016 48.126 102.567 46.899 102.567 45.084C102.567 42.557 105.512 41.87 107.254 41.478C107.695 41.379 108.235 41.306 108.53 41.231V40.814C108.53 39.784 107.818 38.95 106.592 38.95C105.708 38.95 104.85 39.343 104.31 39.661C103.279 39.956 102.935 39.072 102.935 38.337C103.991 37.576 105.732 36.741 107.377 36.741C109.585 36.741 111.376 38.214 111.376 40.889C111.376 41.895 111.278 43.759 111.278 45.354C111.278 45.673 111.572 46.017 112.161 46.017C112.284 46.017 112.456 45.992 112.578 45.968V46.065Z" fill="black"/>
<path fill-rule="evenodd" clip-rule="evenodd" d="M121.509 38.8273C121.264 38.7043 120.748 38.5573 120.135 38.5573C118.662 38.5573 116.97 39.6373 116.97 42.3603C116.97 44.6673 118.344 45.8933 119.963 45.8933C120.453 45.8933 121.092 45.7223 121.509 45.4523V38.8273ZM121.509 34.1903C121.509 32.7663 121.459 32.1533 121.386 31.6383C121.902 31.4423 123.521 31.1963 124.012 31.1963C124.379 31.1963 124.478 31.3193 124.478 32.8153V45.0843C124.478 46.0413 124.797 46.2863 125.484 46.4333V46.5073C125.361 47.2193 124.674 48.1263 123.987 48.1263C122.637 48.1263 122.098 47.5133 121.852 46.8023C120.945 47.5133 119.619 48.1263 118.687 48.1263C115.817 48.1263 113.854 46.0163 113.854 42.7773C113.854 39.1713 116.553 36.7413 120.036 36.7413C120.699 36.7413 121.288 36.8643 121.509 36.9873V34.1903Z" fill="black"/>
<path fill-rule="evenodd" clip-rule="evenodd" d="M132.526 51.8312C133.261 51.0212 134.734 48.9852 135.641 47.2682C135.519 47.0962 135.249 46.5812 135.102 46.1882C134.635 45.0112 132.501 39.3672 131.569 37.4042C132.255 37.0602 133.458 36.7412 134.071 36.7412C134.513 36.7412 134.635 37.0362 134.807 37.4292C135.421 39.0232 136.598 42.4592 137.187 44.2992C138.071 42.0662 139.126 38.4832 139.445 36.7412C139.935 36.7672 140.524 36.8402 141.137 37.0122C141.726 37.1592 141.8 37.4772 141.653 38.0662C141.015 40.6182 140.009 43.7342 138.586 46.7032C137.015 49.9672 135.077 52.8372 134.513 52.8372C133.654 52.8372 132.796 52.2982 132.526 51.9302V51.8312Z" fill="black"/>
<path fill-rule="evenodd" clip-rule="evenodd" d="M151.762 45.9425C152.105 46.0895 152.694 46.2135 153.16 46.2135C154.706 46.2135 156.301 45.0595 156.301 42.3365C156.301 40.4465 155.295 39.0475 153.774 39.0475C152.964 39.0475 152.179 39.4405 151.762 39.7355V45.9425ZM151.762 52.2495C151.762 52.6665 151.712 52.8125 151.198 52.9115C150.364 53.0085 149.627 53.0345 148.719 53.0345C148.768 52.0775 148.793 50.7035 148.793 49.0345V39.3915C148.793 38.7545 148.67 38.2875 148.326 38.1655V37.9935C148.621 37.3555 149.357 36.7415 150.192 36.7415C151.05 36.7415 151.418 37.5025 151.566 38.1895C152.914 37.2565 153.946 36.7415 155.025 36.7415C157.576 36.7415 159.417 38.8275 159.417 41.9195C159.417 45.6975 156.669 48.1265 153.504 48.1265C152.817 48.1265 152.179 47.9555 151.762 47.7095V52.2495Z" fill="black"/>
<path fill-rule="evenodd" clip-rule="evenodd" d="M161.332 38.0177C161.528 37.4537 162.46 36.7417 163.123 36.7417C164.202 36.7417 164.644 37.7727 164.669 39.2937C165.38 37.6247 166.411 36.7417 167.711 36.7417C168.177 36.7417 168.644 36.9627 168.864 37.1597C168.987 37.4287 168.962 38.1407 168.717 38.6067C168.619 39.1217 168.128 39.7107 167.76 39.7597C167.269 39.5637 166.999 39.5147 166.582 39.5147C166.189 39.5147 165.478 39.8087 165.086 40.8387C164.938 41.2317 164.865 41.5017 164.865 42.0417V47.1697C164.865 47.5627 164.815 47.7587 164.325 47.8567C163.466 47.9557 162.706 47.9797 161.822 47.9797C161.871 46.6787 161.895 45.1827 161.895 43.5137V39.3677C161.895 38.8027 161.749 38.3617 161.332 38.1167V38.0177Z" fill="black"/>
<path fill-rule="evenodd" clip-rule="evenodd" d="M174.948 38.5577C173.452 38.5577 172.641 40.1037 172.641 42.2127C172.641 45.0107 173.819 46.3107 175.219 46.3107C176.739 46.3107 177.5 44.8147 177.5 42.5567C177.5 40.4717 176.764 38.5577 174.972 38.5577H174.948ZM175.219 36.7417C178.752 36.7417 180.616 39.2447 180.616 42.2867C180.616 45.7217 178.384 48.1257 174.948 48.1257C171.783 48.1257 169.526 46.0167 169.526 42.5327C169.526 39.1957 171.906 36.7417 175.194 36.7417H175.219Z" fill="black"/>
<path fill-rule="evenodd" clip-rule="evenodd" d="M189.595 45.624C189.718 46.213 189.619 46.974 189.178 47.341C188.589 47.856 187.559 48.126 186.479 48.126C183.977 48.126 183.166 46.531 183.166 44.839V38.975C182.259 38.975 181.793 38.533 181.793 38.287C182.136 37.576 184.123 35.81 184.541 35.466C184.958 35.122 185.424 34.828 186.381 34.729C186.282 35.466 186.234 36.349 186.234 37.036H189.866C189.571 38.729 189.031 38.803 188.54 38.852C187.976 38.901 187.191 38.95 186.16 38.95C186.062 40.962 186.086 43.342 186.185 44.372C186.307 45.575 186.97 46.017 187.804 46.017C188.54 46.017 189.227 45.77 189.522 45.575L189.595 45.624Z" fill="black"/>
<path fill-rule="evenodd" clip-rule="evenodd" d="M195.632 38.459C194.724 38.459 193.742 39.318 193.645 41.158C194.651 41.231 196.54 41.207 197.129 41.158C197.301 41.158 197.447 40.913 197.447 40.643C197.472 39.44 196.908 38.459 195.656 38.459H195.632ZM199.754 45.403C199.754 46.482 198.896 47.488 198.479 47.685C198.111 47.856 197.055 48.126 196.196 48.126C192.614 48.126 190.652 46.163 190.652 42.557C190.652 39.588 192.59 36.741 195.902 36.741C199.018 36.741 200.22 38.999 200.244 40.962C200.244 41.306 200.22 41.575 200.171 41.772C200.098 42.14 199.116 42.483 198.111 42.729C197.496 42.876 194.945 42.9 193.596 42.852C193.718 45.011 195.288 45.918 196.957 45.918C198.135 45.918 199.288 45.55 199.705 45.354L199.754 45.403Z" fill="black"/>
<path fill-rule="evenodd" clip-rule="evenodd" d="M211.016 45.5255C210.992 46.2375 210.648 47.0955 210.206 47.4885C209.495 47.9305 208.464 48.1265 207.434 48.1265C204.244 48.1265 201.766 46.2865 201.766 42.6795C201.766 39.1465 204.415 36.7415 207.827 36.7415C209.495 36.7415 210.672 37.2565 211.114 37.6735C211.114 38.3115 210.795 39.2195 209.936 39.1955C209.371 38.9745 208.612 38.8025 207.949 38.8025C206.182 38.8025 204.808 40.0295 204.808 42.2625C204.808 44.9365 206.623 45.9185 208.317 45.9185C209.371 45.9185 210.304 45.7215 210.967 45.4525L211.016 45.5255Z" fill="black"/>
<path fill-rule="evenodd" clip-rule="evenodd" d="M221.468 45.5255C221.444 46.2375 221.1 47.0955 220.658 47.4885C219.947 47.9305 218.916 48.1265 217.886 48.1265C214.696 48.1265 212.218 46.2865 212.218 42.6795C212.218 39.1465 214.867 36.7415 218.279 36.7415C219.947 36.7415 221.124 37.2565 221.566 37.6735C221.566 38.3115 221.247 39.2195 220.388 39.1955C219.824 38.9745 219.064 38.8025 218.401 38.8025C216.634 38.8025 215.26 40.0295 215.26 42.2625C215.26 44.9365 217.076 45.9185 218.769 45.9185C219.824 45.9185 220.756 45.7215 221.419 45.4525L221.468 45.5255Z" fill="black"/>
<path fill-rule="evenodd" clip-rule="evenodd" d="M226.424 47.2431C226.424 47.6841 226.252 47.8071 225.712 47.8811C225.222 47.9551 224.338 47.9791 223.381 47.9791C223.406 46.9731 223.455 45.5501 223.455 44.1271V39.9311C223.455 38.4341 223.406 37.6741 223.357 37.1831C223.921 37.0121 225.467 36.8891 225.983 36.8891C226.326 36.8891 226.424 37.0121 226.424 38.4341V47.2431ZM225.001 31.5891C225.934 31.5891 226.497 32.2761 226.497 33.1831C226.497 34.1161 225.835 34.8521 224.903 34.8521C224.142 34.8521 223.357 34.3861 223.357 33.2581C223.357 32.0551 224.363 31.5891 224.977 31.5891H225.001Z" fill="black"/>
<path fill-rule="evenodd" clip-rule="evenodd" d="M234.938 31C235.625 31 236.288 31.368 236.656 31.712C236.828 31.835 236.852 31.933 236.607 32.202C235.551 33.355 234.472 34.804 233.81 35.613C233.417 35.539 233.171 35.368 232.951 35.221C232.803 35.122 232.73 34.95 232.902 34.533C233.246 33.576 234.276 31 234.914 31H234.938ZM234.128 38.558C232.632 38.558 231.823 40.104 231.823 42.213C231.823 45.011 233.001 46.311 234.399 46.311C235.919 46.311 236.68 44.814 236.68 42.557C236.68 40.472 235.944 38.558 234.153 38.558H234.128ZM234.399 36.741C237.932 36.741 239.796 39.244 239.796 42.287C239.796 45.722 237.564 48.126 234.128 48.126C230.963 48.126 228.707 46.017 228.707 42.532C228.707 39.195 231.086 36.741 234.374 36.741H234.399Z" fill="black"/>
<path fill-rule="evenodd" clip-rule="evenodd" d="M249.12 41.2072C249.12 39.7842 248.359 38.9752 247.279 38.9752C246.323 38.9752 245.709 39.4162 245.17 39.8822V47.2192C245.17 47.6602 245.096 47.7832 244.605 47.8322C243.77 47.9552 243.011 47.9792 242.127 47.9792C242.176 46.6792 242.2 45.1832 242.2 43.5142V39.4892C242.2 38.7542 242.102 38.3862 241.734 38.1652V37.9932C241.979 37.3802 242.814 36.7412 243.575 36.7412C244.507 36.7412 244.875 37.6252 245.022 38.3862C246.028 37.5022 247.206 36.7412 248.433 36.7412C251.549 36.7412 252.089 39.3182 252.089 41.2312V44.3232C252.089 45.6002 252.113 46.9482 252.186 47.7832C251.622 47.8322 250.641 47.9792 249.61 47.9792C249.242 47.9792 249.12 47.8322 249.12 47.5132V41.2072Z" fill="black"/>
</svg>
