<svg width="293" height="53" viewBox="0 0 293 53" fill="none" xmlns="http://www.w3.org/2000/svg">
<path fill-rule="evenodd" clip-rule="evenodd" d="M25.377 16.37C25.377 14.599 24.026 13.759 21.505 13.759H15.832V18.951H21.505C24.026 18.951 25.377 18.171 25.377 16.37V16.37ZM15.832 5.26603V10.218H20.664C23.035 10.218 24.326 9.37703 24.326 7.72603C24.326 6.07503 23.035 5.26603 20.664 5.26603H15.832ZM30.269 16.881C30.269 20.513 27.388 22.613 21.865 22.613H11V1.60303H21.265C26.518 1.60303 29.219 3.79503 29.219 7.06603C29.219 9.16703 28.138 10.788 26.427 11.688C28.769 12.438 30.269 14.239 30.269 16.881V16.881Z" fill="black"/>
<path fill-rule="evenodd" clip-rule="evenodd" d="M45.4276 14.5391C45.4276 11.7481 43.6566 10.0671 41.3166 10.0671C38.9756 10.0671 37.1746 11.7481 37.1746 14.5391C37.1746 17.3311 38.9756 19.0121 41.3166 19.0121C43.6566 19.0121 45.4276 17.3311 45.4276 14.5391M32.4316 14.5391C32.4316 9.67707 36.1836 6.22607 41.3166 6.22607C46.4486 6.22607 50.1706 9.67707 50.1706 14.5391C50.1706 19.4011 46.4486 22.8531 41.3166 22.8531C36.1836 22.8531 32.4316 19.4011 32.4316 14.5391" fill="black"/>
<path fill-rule="evenodd" clip-rule="evenodd" d="M65.1504 14.539C65.1504 11.748 63.3494 10.067 61.0384 10.067C58.6974 10.067 56.8964 11.748 56.8964 14.539C56.8964 17.331 58.6974 19.012 61.0384 19.012C63.3494 19.012 65.1504 17.331 65.1504 14.539V14.539ZM69.7424 0.343018V22.613H65.2704V20.752C64.0994 22.163 62.3884 22.853 60.2284 22.853C55.6664 22.853 52.1544 19.612 52.1544 14.539C52.1544 9.46702 55.6664 6.22602 60.2284 6.22602C62.2094 6.22602 63.8894 6.85502 65.0604 8.17702V0.343018H69.7424Z" fill="black"/>
<path fill-rule="evenodd" clip-rule="evenodd" d="M90.0938 6.46582L82.8008 23.6038C81.2398 27.5058 79.0188 28.6758 76.1078 28.6758C74.4558 28.6758 72.6558 28.1358 71.6058 27.2048L73.3168 23.8738C74.0358 24.5038 75.0268 24.8948 75.9568 24.8948C77.2478 24.8948 77.9678 24.3238 78.5988 22.8838L78.6578 22.7338L71.6648 6.46582H76.4968L81.0298 17.4208L85.5918 6.46582H90.0938Z" fill="black"/>
<path fill-rule="evenodd" clip-rule="evenodd" d="M90.9658 12.1084C90.9658 5.77541 95.8278 1.24341 102.371 1.24341C106.003 1.24341 109.034 2.56341 111.015 4.96441L107.894 7.84641C106.483 6.22541 104.712 5.38441 102.612 5.38441C98.6788 5.38441 95.8878 8.14641 95.8878 12.1084C95.8878 16.0704 98.6788 18.8314 102.612 18.8314C104.712 18.8314 106.483 17.9914 107.894 16.3404L111.015 19.2214C109.034 21.6534 106.003 22.9734 102.341 22.9734C95.8278 22.9734 90.9658 18.4414 90.9658 12.1084" fill="black"/>
<path fill-rule="evenodd" clip-rule="evenodd" d="M123.413 17.5106V15.8606H120.201C118.011 15.8606 117.32 16.6706 117.32 17.7506C117.32 18.9216 118.31 19.7016 119.961 19.7016C121.522 19.7016 122.873 18.9816 123.413 17.5106M128.095 13.3996V22.6136H123.713V20.6026C122.843 22.0726 121.162 22.8536 118.791 22.8536C115.009 22.8536 112.758 20.7516 112.758 17.9606C112.758 15.1096 114.768 13.1286 119.691 13.1286H123.413C123.413 11.1176 122.213 9.94759 119.691 9.94759C117.98 9.94759 116.21 10.5176 115.039 11.4486L113.358 8.17659C115.129 6.91559 117.74 6.22559 120.321 6.22559C125.244 6.22559 128.095 8.50659 128.095 13.3996" fill="black"/>
<path fill-rule="evenodd" clip-rule="evenodd" d="M142.353 6.22559V10.5476C141.963 10.5176 141.663 10.4876 141.302 10.4876C138.721 10.4876 137.01 11.8986 137.01 14.9896V22.6136H132.329V6.46559H136.8V8.59659C137.941 7.03659 139.862 6.22559 142.353 6.22559" fill="black"/>
<path fill-rule="evenodd" clip-rule="evenodd" d="M148.718 13.1288H156.672C156.342 11.0878 154.811 9.76783 152.71 9.76783C150.579 9.76783 149.048 11.0578 148.718 13.1288M160.994 15.8598H148.779C149.229 17.8708 150.94 19.1018 153.401 19.1018C155.112 19.1018 156.342 18.5918 157.452 17.5408L159.944 20.2418C158.443 21.9528 156.192 22.8538 153.28 22.8538C147.697 22.8538 144.067 19.3418 144.067 14.5388C144.067 9.70683 147.758 6.22583 152.68 6.22583C157.422 6.22583 161.084 9.40683 161.084 14.5998C161.084 14.9598 161.024 15.4698 160.994 15.8598" fill="black"/>
<path fill-rule="evenodd" clip-rule="evenodd" d="M186.527 9.22652C186.527 6.91552 185.027 5.56552 182.055 5.56552H178.093V12.8585H182.055C185.027 12.8585 186.527 11.5075 186.527 9.22652M191.45 9.22652C191.45 13.9095 187.938 16.8205 182.325 16.8205H178.093V22.6135H173.231V1.60352H182.325C187.938 1.60352 191.45 4.51452 191.45 9.22652" fill="black"/>
<path fill-rule="evenodd" clip-rule="evenodd" d="M206.669 14.5391C206.669 11.7481 204.898 10.0671 202.558 10.0671C200.217 10.0671 198.416 11.7481 198.416 14.5391C198.416 17.3311 200.217 19.0121 202.558 19.0121C204.898 19.0121 206.669 17.3311 206.669 14.5391M193.674 14.5391C193.674 9.67707 197.425 6.22607 202.558 6.22607C207.69 6.22607 211.412 9.67707 211.412 14.5391C211.412 19.4011 207.69 22.8531 202.558 22.8531C197.425 22.8531 193.674 19.4011 193.674 14.5391" fill="black"/>
<path fill-rule="evenodd" clip-rule="evenodd" d="M213.334 14.5391C213.334 9.67707 217.086 6.22607 222.339 6.22607C225.73 6.22607 228.401 7.69607 229.572 10.3381L225.94 12.2881C225.07 10.7581 223.779 10.0671 222.309 10.0671C219.938 10.0671 218.077 11.7181 218.077 14.5391C218.077 17.3601 219.938 19.0121 222.309 19.0121C223.779 19.0121 225.07 18.3521 225.94 16.7911L229.572 18.7711C228.401 21.3521 225.73 22.8531 222.339 22.8531C217.086 22.8531 213.334 19.4011 213.334 14.5391" fill="black"/>
<mask id="mask0" mask-type="alpha" maskUnits="userSpaceOnUse" x="232" y="0" width="18" height="23">
<path fill-rule="evenodd" clip-rule="evenodd" d="M232.275 0.343018H249.983V22.6133H232.275V0.343018Z" fill="white"/>
</mask>
<g mask="url(#mask0)">
<path fill-rule="evenodd" clip-rule="evenodd" d="M239.209 16.2803L236.957 18.5013V22.6133H232.275V0.342285H236.957V12.9493L243.801 6.46629H249.383L242.66 13.3083L249.983 22.6133H244.311L239.209 16.2803Z" fill="black"/>
</g>
<path fill-rule="evenodd" clip-rule="evenodd" d="M255.537 13.1288H263.491C263.161 11.0878 261.63 9.76783 259.529 9.76783C257.398 9.76783 255.867 11.0578 255.537 13.1288M267.813 15.8598H255.598C256.048 17.8708 257.759 19.1018 260.22 19.1018C261.931 19.1018 263.161 18.5918 264.271 17.5408L266.763 20.2418C265.262 21.9528 263.011 22.8538 260.099 22.8538C254.516 22.8538 250.885 19.3418 250.885 14.5388C250.885 9.70683 254.577 6.22583 259.499 6.22583C264.241 6.22583 267.903 9.40683 267.903 14.5998C267.903 14.9598 267.843 15.4698 267.813 15.8598" fill="black"/>
<path fill-rule="evenodd" clip-rule="evenodd" d="M281.442 21.833C280.481 22.523 279.071 22.854 277.629 22.854C273.818 22.854 271.597 20.902 271.597 17.061V10.428H269.106V6.82602H271.597V2.89502H276.279V6.82602H280.301V10.428H276.279V17.001C276.279 18.381 277.03 19.132 278.291 19.132C278.98 19.132 279.671 18.922 280.181 18.531L281.442 21.833Z" fill="black"/>
<mask id="mask1" mask-type="alpha" maskUnits="userSpaceOnUse" x="0" y="31" width="14" height="17">
<path fill-rule="evenodd" clip-rule="evenodd" d="M0 31.3984H13.1516V47.2004H0V31.3984Z" fill="white"/>
</mask>
<g mask="url(#mask1)">
<path fill-rule="evenodd" clip-rule="evenodd" d="M3.14063 39.6924C3.14063 44.2554 5.10363 44.9924 6.79663 44.9924C8.78463 44.9924 10.4526 44.1574 10.4526 39.4714V32.1104C10.4526 31.6444 10.6486 31.5464 10.9926 31.4974C11.7036 31.4224 12.6616 31.3984 13.1516 31.3984C13.1026 32.3804 13.0786 33.8284 13.0786 35.8644V39.3484C13.0786 46.2184 9.44663 47.2004 6.45363 47.2004C2.30663 47.2004 0.0736338 45.0654 0.0736338 39.7904V34.7604C0.0736338 33.1164 0.0486338 32.1104 -0.000366211 31.5944C0.441634 31.5214 2.13463 31.3984 2.62463 31.3984C3.06763 31.3984 3.14063 31.6204 3.14063 32.8224V39.6924Z" fill="black"/>
</g>
<path fill-rule="evenodd" clip-rule="evenodd" d="M16.2676 33.2393C16.2676 31.7913 16.2186 31.1293 16.1686 30.6373C16.6606 30.4173 18.2546 30.1963 18.7706 30.1963C19.1376 30.1963 19.2366 30.3193 19.2366 31.7913V43.5933C19.2366 44.7963 19.2856 46.1203 19.3346 46.8323C18.8196 46.9553 16.9546 47.0283 16.6116 47.0283C16.3656 47.0283 16.2676 46.9553 16.2676 46.7093V33.2393Z" fill="#192A38"/>
<path fill-rule="evenodd" clip-rule="evenodd" d="M28.9268 44.624C29.0498 45.213 28.9508 45.974 28.5098 46.341C27.9208 46.856 26.8908 47.126 25.8108 47.126C23.3088 47.126 22.4988 45.531 22.4988 43.839V37.975C21.5908 37.975 21.1238 37.533 21.1238 37.287C21.4678 36.576 23.4548 34.81 23.8718 34.466C24.2898 34.122 24.7558 33.828 25.7128 33.729C25.6138 34.466 25.5658 35.349 25.5658 36.036H29.1978C28.9028 37.729 28.3628 37.803 27.8718 37.852C27.3078 37.901 26.5228 37.95 25.4918 37.95C25.3938 39.962 25.4178 42.342 25.5168 43.372C25.6398 44.575 26.3018 45.017 27.1358 45.017C27.8718 45.017 28.5588 44.77 28.8538 44.575L28.9268 44.624Z" fill="#192A38"/>
<path fill-rule="evenodd" clip-rule="evenodd" d="M30.376 37.0177C30.572 36.4537 31.504 35.7417 32.167 35.7417C33.246 35.7417 33.689 36.7727 33.713 38.2937C34.424 36.6247 35.454 35.7417 36.755 35.7417C37.222 35.7417 37.688 35.9627 37.908 36.1597C38.031 36.4287 38.007 37.1407 37.761 37.6067C37.663 38.1217 37.172 38.7107 36.804 38.7597C36.313 38.5637 36.044 38.5147 35.626 38.5147C35.233 38.5147 34.522 38.8087 34.13 39.8387C33.982 40.2317 33.909 40.5017 33.909 41.0417V46.1697C33.909 46.5627 33.859 46.7587 33.369 46.8567C32.511 46.9557 31.75 46.9797 30.866 46.9797C30.915 45.6787 30.94 44.1827 30.94 42.5137V38.3677C30.94 37.8027 30.793 37.3617 30.376 37.1167V37.0177Z" fill="#192A38"/>
<path fill-rule="evenodd" clip-rule="evenodd" d="M41.6367 43.667C41.6367 44.525 42.2987 45.017 43.0837 45.017C43.7717 45.017 44.1637 44.746 44.5067 44.378C44.6297 44.231 44.7027 43.985 44.7027 43.544V41.802C42.5697 42.048 41.6367 42.833 41.6367 43.643V43.667ZM48.8007 45.065C48.8247 46.366 48.1387 47.126 46.7407 47.126C45.7347 47.126 45.0717 46.611 44.7527 45.753C44.1147 46.439 43.0347 47.126 41.8577 47.126C40.2387 47.126 38.7897 45.899 38.7897 44.084C38.7897 41.557 41.7347 40.87 43.4767 40.478C43.9177 40.379 44.4577 40.306 44.7527 40.231V39.814C44.7527 38.784 44.0407 37.95 42.8147 37.95C41.9307 37.95 41.0727 38.343 40.5327 38.661C39.5017 38.956 39.1577 38.072 39.1577 37.337C40.2137 36.576 41.9547 35.741 43.5997 35.741C45.8077 35.741 47.5987 37.214 47.5987 39.889C47.5987 40.895 47.5007 42.759 47.5007 44.354C47.5007 44.673 47.7947 45.017 48.3837 45.017C48.5067 45.017 48.6787 44.992 48.8007 44.968V45.065Z" fill="#192A38"/>
<path fill-rule="evenodd" clip-rule="evenodd" d="M64.3818 44.5255C64.3578 45.2375 64.0138 46.0955 63.5718 46.4885C62.8608 46.9305 61.8298 47.1265 60.7998 47.1265C57.6098 47.1265 55.1318 45.2865 55.1318 41.6795C55.1318 38.1465 57.7808 35.7415 61.1928 35.7415C62.8608 35.7415 64.0378 36.2565 64.4798 36.6735C64.4798 37.3115 64.1608 38.2195 63.3018 38.1955C62.7368 37.9745 61.9778 37.8025 61.3148 37.8025C59.5478 37.8025 58.1738 39.0295 58.1738 41.2625C58.1738 43.9365 59.9888 44.9185 61.6828 44.9185C62.7368 44.9185 63.6698 44.7215 64.3328 44.4525L64.3818 44.5255Z" fill="#192A38"/>
<path fill-rule="evenodd" clip-rule="evenodd" d="M70.9814 37.5577C69.4854 37.5577 68.6744 39.1037 68.6744 41.2127C68.6744 44.0107 69.8524 45.3107 71.2524 45.3107C72.7724 45.3107 73.5334 43.8147 73.5334 41.5567C73.5334 39.4717 72.7974 37.5577 71.0054 37.5577H70.9814ZM71.2524 35.7417C74.7854 35.7417 76.6494 38.2447 76.6494 41.2867C76.6494 44.7217 74.4174 47.1257 70.9814 47.1257C67.8164 47.1257 65.5594 45.0167 65.5594 41.5327C65.5594 38.1957 67.9394 35.7417 71.2274 35.7417H71.2524Z" fill="#192A38"/>
<path fill-rule="evenodd" clip-rule="evenodd" d="M82.0234 46.17C82.0234 46.611 81.9494 46.759 81.4594 46.857C80.6244 46.955 79.8644 46.98 78.9804 46.98C79.0294 45.679 79.0534 44.183 79.0534 42.514V38.392C79.0534 37.73 78.9564 37.361 78.5874 37.141V36.969C78.8584 36.356 79.6924 35.741 80.4034 35.741C81.4344 35.741 81.7044 36.625 81.8764 37.386C82.8574 36.552 84.1574 35.741 85.4334 35.741C87.0284 35.741 87.8874 36.502 88.4024 37.533C89.3594 36.649 90.8064 35.741 92.1564 35.741C94.9284 35.741 95.6654 38.122 95.6654 39.986V43.323C95.6654 44.6 95.6894 45.948 95.7394 46.783C95.1744 46.832 94.1934 46.98 93.1624 46.98C92.8434 46.98 92.6964 46.832 92.6964 46.513V40.207C92.6964 38.833 92.0584 37.975 90.8564 37.975C89.9974 37.975 89.3594 38.441 88.8434 38.907V46.219C88.8434 46.66 88.7944 46.783 88.2804 46.857C87.4204 46.98 86.6844 46.98 85.8014 46.98C85.8504 45.679 85.8754 44.183 85.8754 42.514V40.207C85.8754 38.809 85.2374 37.975 84.0844 37.975C83.2744 37.975 82.5624 38.392 82.0234 38.907V46.17Z" fill="#192A38"/>
<path fill-rule="evenodd" clip-rule="evenodd" d="M103.345 37.5577C101.849 37.5577 101.038 39.1037 101.038 41.2127C101.038 44.0107 102.216 45.3107 103.616 45.3107C105.136 45.3107 105.897 43.8147 105.897 41.5567C105.897 39.4717 105.161 37.5577 103.369 37.5577H103.345ZM103.616 35.7417C107.149 35.7417 109.013 38.2447 109.013 41.2867C109.013 44.7217 106.781 47.1257 103.345 47.1257C100.18 47.1257 97.9227 45.0167 97.9227 41.5327C97.9227 38.1957 100.303 35.7417 103.591 35.7417H103.616Z" fill="#192A38"/>
<path fill-rule="evenodd" clip-rule="evenodd" d="M118.435 37.8273C118.189 37.7043 117.674 37.5573 117.061 37.5573C115.588 37.5573 113.896 38.6373 113.896 41.3603C113.896 43.6673 115.27 44.8933 116.889 44.8933C117.379 44.8933 118.018 44.7223 118.435 44.4523V37.8273ZM118.435 33.1903C118.435 31.7663 118.386 31.1533 118.312 30.6383C118.828 30.4423 120.447 30.1963 120.937 30.1963C121.305 30.1963 121.404 30.3193 121.404 31.8153V44.0843C121.404 45.0413 121.722 45.2863 122.41 45.4333V45.5073C122.287 46.2193 121.6 47.1263 120.913 47.1263C119.564 47.1263 119.024 46.5133 118.779 45.8023C117.871 46.5133 116.545 47.1263 115.613 47.1263C112.743 47.1263 110.78 45.0163 110.78 41.7773C110.78 38.1713 113.478 35.7413 116.962 35.7413C117.625 35.7413 118.214 35.8643 118.435 35.9873V33.1903Z" fill="#192A38"/>
<path fill-rule="evenodd" clip-rule="evenodd" d="M127.562 46.2431C127.562 46.6841 127.39 46.8071 126.85 46.8811C126.36 46.9551 125.476 46.9791 124.519 46.9791C124.544 45.9731 124.593 44.5501 124.593 43.1271V38.9311C124.593 37.4341 124.544 36.6741 124.495 36.1831C125.059 36.0121 126.605 35.8891 127.121 35.8891C127.464 35.8891 127.562 36.0121 127.562 37.4341V46.2431ZM126.139 30.5891C127.072 30.5891 127.635 31.2761 127.635 32.1831C127.635 33.1161 126.973 33.8521 126.041 33.8521C125.28 33.8521 124.495 33.3861 124.495 32.2581C124.495 31.0551 125.501 30.5891 126.115 30.5891H126.139Z" fill="#192A38"/>
<path fill-rule="evenodd" clip-rule="evenodd" d="M137.522 37.8273C137.276 37.7043 136.761 37.5573 136.148 37.5573C134.675 37.5573 132.983 38.6373 132.983 41.3603C132.983 43.6673 134.357 44.8933 135.976 44.8933C136.466 44.8933 137.105 44.7223 137.522 44.4523V37.8273ZM137.522 33.1903C137.522 31.7663 137.473 31.1533 137.399 30.6383C137.915 30.4423 139.534 30.1963 140.024 30.1963C140.392 30.1963 140.491 30.3193 140.491 31.8153V44.0843C140.491 45.0413 140.809 45.2863 141.497 45.4333V45.5073C141.374 46.2193 140.687 47.1263 140 47.1263C138.651 47.1263 138.111 46.5133 137.866 45.8023C136.958 46.5133 135.632 47.1263 134.7 47.1263C131.83 47.1263 129.867 45.0163 129.867 41.7773C129.867 38.1713 132.565 35.7413 136.049 35.7413C136.712 35.7413 137.301 35.8643 137.522 35.9873V33.1903Z" fill="#192A38"/>
<path fill-rule="evenodd" clip-rule="evenodd" d="M145.718 43.667C145.718 44.525 146.38 45.017 147.165 45.017C147.853 45.017 148.245 44.746 148.588 44.378C148.711 44.231 148.784 43.985 148.784 43.544V41.802C146.65 42.048 145.718 42.833 145.718 43.643V43.667ZM152.882 45.065C152.906 46.366 152.22 47.126 150.822 47.126C149.816 47.126 149.153 46.611 148.834 45.753C148.196 46.439 147.116 47.126 145.939 47.126C144.32 47.126 142.871 45.899 142.871 44.084C142.871 41.557 145.816 40.87 147.558 40.478C147.999 40.379 148.539 40.306 148.834 40.231V39.814C148.834 38.784 148.122 37.95 146.896 37.95C146.012 37.95 145.154 38.343 144.614 38.661C143.583 38.956 143.239 38.072 143.239 37.337C144.294 36.576 146.036 35.741 147.681 35.741C149.889 35.741 151.68 37.214 151.68 39.889C151.68 40.895 151.582 42.759 151.582 44.354C151.582 44.673 151.876 45.017 152.465 45.017C152.588 45.017 152.76 44.992 152.882 44.968V45.065Z" fill="#192A38"/>
<path fill-rule="evenodd" clip-rule="evenodd" d="M161.813 37.8273C161.567 37.7043 161.052 37.5573 160.439 37.5573C158.966 37.5573 157.274 38.6373 157.274 41.3603C157.274 43.6673 158.648 44.8933 160.267 44.8933C160.757 44.8933 161.396 44.7223 161.813 44.4523V37.8273ZM161.813 33.1903C161.813 31.7663 161.764 31.1533 161.69 30.6383C162.206 30.4423 163.825 30.1963 164.315 30.1963C164.683 30.1963 164.782 30.3193 164.782 31.8153V44.0843C164.782 45.0413 165.1 45.2863 165.788 45.4333V45.5073C165.665 46.2193 164.978 47.1263 164.291 47.1263C162.942 47.1263 162.402 46.5133 162.157 45.8023C161.249 46.5133 159.923 47.1263 158.991 47.1263C156.121 47.1263 154.158 45.0163 154.158 41.7773C154.158 38.1713 156.856 35.7413 160.34 35.7413C161.003 35.7413 161.592 35.8643 161.813 35.9873V33.1903Z" fill="#192A38"/>
<path fill-rule="evenodd" clip-rule="evenodd" d="M172.829 50.8312C173.565 50.0212 175.038 47.9852 175.945 46.2682C175.823 46.0962 175.553 45.5812 175.406 45.1882C174.939 44.0112 172.805 38.3672 171.873 36.4042C172.559 36.0602 173.762 35.7412 174.375 35.7412C174.817 35.7412 174.939 36.0362 175.111 36.4292C175.725 38.0232 176.902 41.4592 177.491 43.2992C178.375 41.0662 179.43 37.4832 179.749 35.7412C180.239 35.7672 180.828 35.8402 181.441 36.0122C182.03 36.1592 182.104 36.4772 181.957 37.0662C181.319 39.6182 180.313 42.7342 178.89 45.7032C177.319 48.9672 175.382 51.8372 174.817 51.8372C173.958 51.8372 173.1 51.2982 172.829 50.9302V50.8312Z" fill="#192A38"/>
<mask id="mask2" mask-type="alpha" maskUnits="userSpaceOnUse" x="188" y="35" width="12" height="18">
<path fill-rule="evenodd" clip-rule="evenodd" d="M188.63 35.7415H199.721V52.0343H188.63V35.7415Z" fill="white"/>
</mask>
<g mask="url(#mask2)">
<path fill-rule="evenodd" clip-rule="evenodd" d="M192.066 44.9425C192.409 45.0895 192.998 45.2135 193.464 45.2135C195.01 45.2135 196.605 44.0595 196.605 41.3365C196.605 39.4465 195.599 38.0475 194.078 38.0475C193.268 38.0475 192.483 38.4405 192.066 38.7355V44.9425ZM192.066 51.2495C192.066 51.6665 192.016 51.8125 191.502 51.9115C190.667 52.0085 189.931 52.0345 189.023 52.0345C189.072 51.0775 189.096 49.7035 189.096 48.0345V38.3915C189.096 37.7545 188.974 37.2875 188.63 37.1655V36.9935C188.925 36.3555 189.661 35.7415 190.496 35.7415C191.354 35.7415 191.722 36.5025 191.87 37.1895C193.219 36.2565 194.25 35.7415 195.329 35.7415C197.88 35.7415 199.721 37.8275 199.721 40.9195C199.721 44.6975 196.973 47.1265 193.807 47.1265C193.121 47.1265 192.483 46.9555 192.066 46.7095V51.2495Z" fill="black"/>
</g>
<path fill-rule="evenodd" clip-rule="evenodd" d="M201.635 37.0177C201.831 36.4537 202.763 35.7417 203.426 35.7417C204.505 35.7417 204.947 36.7727 204.972 38.2937C205.683 36.6247 206.714 35.7417 208.014 35.7417C208.48 35.7417 208.947 35.9627 209.167 36.1597C209.29 36.4287 209.265 37.1407 209.02 37.6067C208.922 38.1217 208.431 38.7107 208.063 38.7597C207.572 38.5637 207.302 38.5147 206.885 38.5147C206.492 38.5147 205.781 38.8087 205.389 39.8387C205.241 40.2317 205.168 40.5017 205.168 41.0417V46.1697C205.168 46.5627 205.118 46.7587 204.628 46.8567C203.769 46.9557 203.009 46.9797 202.125 46.9797C202.174 45.6787 202.198 44.1827 202.198 42.5137V38.3677C202.198 37.8027 202.052 37.3617 201.635 37.1167V37.0177Z" fill="#192A38"/>
<path fill-rule="evenodd" clip-rule="evenodd" d="M215.252 37.5577C213.756 37.5577 212.946 39.1037 212.946 41.2127C212.946 44.0107 214.124 45.3107 215.523 45.3107C217.043 45.3107 217.804 43.8147 217.804 41.5567C217.804 39.4717 217.067 37.5577 215.276 37.5577H215.252ZM215.523 35.7417C219.056 35.7417 220.92 38.2447 220.92 41.2867C220.92 44.7217 218.688 47.1257 215.252 47.1257C212.087 47.1257 209.83 45.0167 209.83 41.5327C209.83 38.1957 212.21 35.7417 215.497 35.7417H215.523Z" fill="#192A38"/>
<path fill-rule="evenodd" clip-rule="evenodd" d="M229.899 44.624C230.022 45.213 229.923 45.974 229.482 46.341C228.893 46.856 227.863 47.126 226.783 47.126C224.281 47.126 223.471 45.531 223.471 43.839V37.975C222.563 37.975 222.096 37.533 222.096 37.287C222.44 36.576 224.427 34.81 224.844 34.466C225.262 34.122 225.728 33.828 226.685 33.729C226.586 34.466 226.538 35.349 226.538 36.036H230.17C229.875 37.729 229.335 37.803 228.844 37.852C228.28 37.901 227.495 37.95 226.464 37.95C226.366 39.962 226.39 42.342 226.489 43.372C226.612 44.575 227.274 45.017 228.108 45.017C228.844 45.017 229.531 44.77 229.826 44.575L229.899 44.624Z" fill="#192A38"/>
<path fill-rule="evenodd" clip-rule="evenodd" d="M235.936 37.459C235.028 37.459 234.046 38.318 233.949 40.158C234.955 40.231 236.844 40.207 237.433 40.158C237.605 40.158 237.751 39.913 237.751 39.643C237.776 38.44 237.212 37.459 235.96 37.459H235.936ZM240.058 44.403C240.058 45.482 239.2 46.488 238.783 46.685C238.415 46.856 237.359 47.126 236.5 47.126C232.918 47.126 230.956 45.163 230.956 41.557C230.956 38.588 232.894 35.741 236.206 35.741C239.322 35.741 240.524 37.999 240.548 39.962C240.548 40.306 240.524 40.575 240.475 40.772C240.402 41.14 239.42 41.483 238.415 41.729C237.8 41.876 235.249 41.9 233.9 41.852C234.022 44.011 235.592 44.918 237.261 44.918C238.439 44.918 239.592 44.55 240.009 44.354L240.058 44.403Z" fill="#192A38"/>
<path fill-rule="evenodd" clip-rule="evenodd" d="M251.319 44.5255C251.295 45.2375 250.951 46.0955 250.509 46.4885C249.798 46.9305 248.767 47.1265 247.737 47.1265C244.547 47.1265 242.069 45.2865 242.069 41.6795C242.069 38.1465 244.718 35.7415 248.13 35.7415C249.798 35.7415 250.975 36.2565 251.417 36.6735C251.417 37.3115 251.098 38.2195 250.239 38.1955C249.674 37.9745 248.915 37.8025 248.252 37.8025C246.485 37.8025 245.111 39.0295 245.111 41.2625C245.111 43.9365 246.926 44.9185 248.62 44.9185C249.674 44.9185 250.607 44.7215 251.27 44.4525L251.319 44.5255Z" fill="#192A38"/>
<path fill-rule="evenodd" clip-rule="evenodd" d="M261.772 44.5255C261.748 45.2375 261.404 46.0955 260.962 46.4885C260.251 46.9305 259.22 47.1265 258.19 47.1265C255 47.1265 252.522 45.2865 252.522 41.6795C252.522 38.1465 255.171 35.7415 258.583 35.7415C260.251 35.7415 261.428 36.2565 261.87 36.6735C261.87 37.3115 261.551 38.2195 260.692 38.1955C260.127 37.9745 259.368 37.8025 258.705 37.8025C256.938 37.8025 255.564 39.0295 255.564 41.2625C255.564 43.9365 257.379 44.9185 259.073 44.9185C260.127 44.9185 261.06 44.7215 261.723 44.4525L261.772 44.5255Z" fill="#192A38"/>
<path fill-rule="evenodd" clip-rule="evenodd" d="M266.729 46.2431C266.729 46.6841 266.557 46.8071 266.017 46.8811C265.527 46.9551 264.643 46.9791 263.687 46.9791C263.711 45.9731 263.76 44.5501 263.76 43.1271V38.9311C263.76 37.4341 263.711 36.6741 263.662 36.1831C264.226 36.0121 265.772 35.8891 266.288 35.8891C266.63 35.8891 266.729 36.0121 266.729 37.4341V46.2431ZM265.306 30.5891C266.238 30.5891 266.802 31.2761 266.802 32.1831C266.802 33.1161 266.14 33.8521 265.208 33.8521C264.447 33.8521 263.662 33.3861 263.662 32.2581C263.662 31.0551 264.667 30.5891 265.282 30.5891H265.306Z" fill="#192A38"/>
<path fill-rule="evenodd" clip-rule="evenodd" d="M275.241 30C275.928 30 276.591 30.368 276.959 30.712C277.131 30.835 277.155 30.933 276.91 31.202C275.854 32.355 274.775 33.804 274.113 34.613C273.72 34.539 273.474 34.368 273.254 34.221C273.106 34.122 273.033 33.95 273.205 33.533C273.549 32.576 274.579 30 275.217 30H275.241ZM274.431 37.558C272.935 37.558 272.126 39.104 272.126 41.213C272.126 44.011 273.304 45.311 274.702 45.311C276.222 45.311 276.983 43.814 276.983 41.557C276.983 39.472 276.247 37.558 274.456 37.558H274.431ZM274.702 35.741C278.235 35.741 280.099 38.244 280.099 41.287C280.099 44.722 277.867 47.126 274.431 47.126C271.266 47.126 269.01 45.017 269.01 41.532C269.01 38.195 271.389 35.741 274.677 35.741H274.702Z" fill="#192A38"/>
<path fill-rule="evenodd" clip-rule="evenodd" d="M289.424 40.2072C289.424 38.7842 288.663 37.9752 287.583 37.9752C286.626 37.9752 286.013 38.4162 285.474 38.8822V46.2192C285.474 46.6602 285.4 46.7832 284.909 46.8322C284.075 46.9552 283.315 46.9792 282.431 46.9792C282.48 45.6792 282.505 44.1832 282.505 42.5142V38.4892C282.505 37.7542 282.406 37.3862 282.038 37.1652V36.9932C282.283 36.3802 283.118 35.7412 283.878 35.7412C284.811 35.7412 285.179 36.6252 285.326 37.3862C286.332 36.5022 287.51 35.7412 288.737 35.7412C291.853 35.7412 292.393 38.3182 292.393 40.2312V43.3232C292.393 44.6002 292.417 45.9482 292.49 46.7832C291.927 46.8322 290.945 46.9792 289.914 46.9792C289.546 46.9792 289.424 46.8322 289.424 46.5132V40.2072Z" fill="#192A38"/>
</svg>
