<svg width="620" height="143" viewBox="0 0 620 143" fill="none" xmlns="http://www.w3.org/2000/svg">
<mask id="mask0" mask-type="alpha" maskUnits="userSpaceOnUse" x="2" y="0" width="351" height="28">
<path fill-rule="evenodd" clip-rule="evenodd" d="M2.51477 0.127563H352.256V27.2167H2.51477V0.127563Z" fill="white"/>
</mask>
<g mask="url(#mask0)">
<path fill-rule="evenodd" clip-rule="evenodd" d="M2.51477 21.876H17.9909V17.8544H7.54577V14.2227L16.7277 14.1957V10.2021H7.54577V6.59733H17.7165V2.5757H2.51477V21.876ZM39.4298 1.44741V8.93689C38.8976 8.25555 38.2536 7.73392 37.4926 7.36889C36.7326 6.9997 35.8763 6.81822 34.9227 6.81822C33.5664 6.81822 32.3767 7.12726 31.3496 7.75259C30.3225 8.37689 29.5273 9.2563 28.9578 10.395C28.3904 11.5347 28.1077 12.8548 28.1077 14.3616C28.1077 15.884 28.3946 17.228 28.9744 18.3947C29.5501 19.5603 30.3608 20.4636 31.4045 21.1055C32.4502 21.7464 33.6575 22.0689 35.0325 22.0689C35.9675 22.0689 36.8051 21.8905 37.5464 21.5317C38.2909 21.1739 38.9173 20.645 39.4298 19.9492V21.876H44.3231V1.44741H39.4298ZM36.2418 18.2132C35.2872 18.2132 34.5127 17.8689 33.9184 17.1824C33.323 16.4948 33.0269 15.5988 33.0269 14.4975C33.0269 13.3951 33.323 12.5001 33.9184 11.8116C34.5127 11.1261 35.2872 10.7797 36.2418 10.7797C37.1965 10.7797 37.9647 11.1199 38.5518 11.8001C39.1358 12.4784 39.4298 13.3796 39.4298 14.4975C39.4298 15.5988 39.1358 16.4948 38.5518 17.1824C37.9647 17.8689 37.1965 18.2132 36.2418 18.2132ZM56.4445 21.876H61.3078V6.98104H56.4445V21.876ZM58.8373 0.127258C58.0846 0.127258 57.4665 0.369925 56.9809 0.854221C56.4963 1.34267 56.2509 1.97007 56.2509 2.74059C56.2509 3.49452 56.4963 4.11674 56.9809 4.61452C57.4665 5.11022 58.0846 5.35704 58.8373 5.35704C59.589 5.35704 60.2051 5.11022 60.6917 4.61452C61.1773 4.11674 61.4196 3.49452 61.4196 2.74059C61.4196 1.97007 61.1773 1.34267 60.6917 0.854221C60.2051 0.369925 59.589 0.127258 58.8373 0.127258ZM82.8865 12.4047L86.4328 10.34C85.7919 9.22207 84.8942 8.35407 83.7397 7.73807C82.5842 7.12415 81.2661 6.81822 79.7814 6.81822C78.2604 6.81822 76.9164 7.13141 75.7547 7.76711C74.5888 8.3997 73.687 9.29881 73.0471 10.4624C72.4042 11.6301 72.0853 12.9751 72.0853 14.4975C72.0853 16.0022 72.401 17.3234 73.0337 18.4621C73.6642 19.5997 74.5567 20.4822 75.7122 21.1055C76.8688 21.7287 78.2045 22.0399 79.7244 22.0399C81.3013 22.0399 82.6753 21.7287 83.8484 21.1055C85.0215 20.4822 85.9006 19.5997 86.4876 18.4621L82.8865 16.3973C82.3005 17.5153 81.3282 18.0763 79.974 18.0763C79.0949 18.0763 78.3784 17.7476 77.8276 17.0849C77.2778 16.4264 77.0055 15.5532 77.0055 14.4695C77.0055 13.4065 77.2778 12.5396 77.8276 11.8696C78.3784 11.1997 79.0949 10.8637 79.974 10.8637C81.2195 10.8637 82.1887 11.3791 82.8865 12.4047ZM96.9876 21.876H101.852V6.98104H96.9876V21.876ZM99.3794 0.127258C98.6277 0.127258 98.0085 0.369925 97.5219 0.854221C97.0383 1.34267 96.794 1.97007 96.794 2.74059C96.794 3.49452 97.0383 4.11674 97.5219 4.61452C98.0085 5.11022 98.6277 5.35704 99.3794 5.35704C100.131 5.35704 100.748 5.11022 101.235 4.61452C101.718 4.11674 101.963 3.49452 101.963 2.74059C101.963 1.97007 101.718 1.34267 101.235 0.854221C100.748 0.369925 100.131 0.127258 99.3794 0.127258ZM120.738 6.81822C119.124 6.81822 117.702 7.13141 116.474 7.76711C115.247 8.3997 114.299 9.28948 113.632 10.4354C112.962 11.5824 112.626 12.9098 112.626 14.4145C112.626 15.9369 112.962 17.2736 113.632 18.4206C114.299 19.5665 115.247 20.4594 116.474 21.0899C117.702 21.7246 119.124 22.0399 120.738 22.0399C122.347 22.0399 123.768 21.7246 124.997 21.0899C126.224 20.4594 127.177 19.5665 127.855 18.4206C128.531 17.2736 128.873 15.9369 128.873 14.4145C128.873 12.9098 128.531 11.5824 127.855 10.4354C127.177 9.28948 126.224 8.3997 124.997 7.76711C123.768 7.13141 122.347 6.81822 120.738 6.81822ZM120.738 10.7797C121.69 10.7797 122.464 11.1199 123.057 11.8001C123.653 12.4784 123.951 13.3692 123.951 14.4695C123.951 15.5895 123.657 16.4886 123.073 17.1668C122.487 17.8471 121.709 18.1862 120.738 18.1862C119.783 18.1862 119.013 17.8471 118.428 17.1668C117.842 16.4886 117.55 15.5895 117.55 14.4695C117.55 13.3692 117.842 12.4784 118.428 11.8001C119.013 11.1199 119.783 10.7797 120.738 10.7797ZM118.261 5.11022L121.615 5.38607L125.602 2.21689L121.562 0.677925L118.261 5.11022ZM149.432 6.78918C148.35 6.78918 147.393 7.01007 146.558 7.44978C145.724 7.89052 145.043 8.54178 144.513 9.40355V6.98104H139.62V21.876H144.513V14.0039C144.602 13.1587 144.909 12.4784 145.433 11.965C145.955 11.4507 146.618 11.1831 147.424 11.1665C148.193 11.1665 148.808 11.4092 149.266 11.8945C149.724 12.383 149.954 13.0487 149.954 13.8929V21.876H154.819V12.4867C154.819 10.7444 154.329 9.35793 153.346 8.33022C152.367 7.30252 151.063 6.78918 149.432 6.78918ZM180.74 21.876H196.215V17.8544H185.768V14.2227L194.949 14.1957V10.2021H185.768V6.59733H195.939V2.5757H180.74V21.876ZM217.462 11.6902L219.108 8.49511C218.176 7.92681 217.182 7.49644 216.13 7.20193C215.077 6.90844 214.008 6.76222 212.926 6.76222C211.131 6.76222 209.664 7.18844 208.528 8.04089C207.389 8.89437 206.824 10.0756 206.824 11.5793C206.824 12.551 207.076 13.3422 207.581 13.9468C208.083 14.5524 208.675 15.0077 209.353 15.3105C210.03 15.6144 210.892 15.9203 211.938 16.2324C212.816 16.471 213.462 16.6898 213.876 16.893C214.286 17.0953 214.492 17.3784 214.492 17.7476C214.492 18.04 214.35 18.265 214.066 18.4206C213.784 18.5751 213.403 18.657 212.926 18.657C212.101 18.657 211.225 18.4921 210.301 18.1738C209.375 17.8513 208.492 17.3981 207.649 16.8101L206.108 19.9772C207.007 20.6741 208.034 21.1999 209.188 21.5576C210.342 21.9175 211.551 22.0959 212.816 22.0959C214.685 22.0959 216.201 21.6696 217.365 20.8161C218.53 19.9627 219.108 18.7846 219.108 17.2788C219.108 16.2853 218.855 15.4847 218.34 14.8698C217.827 14.2548 217.217 13.7944 216.513 13.4926C215.808 13.1908 214.923 12.8828 213.861 12.5696C212.981 12.3321 212.341 12.1123 211.938 11.9111C211.535 11.7068 211.333 11.4413 211.333 11.1116C211.333 10.7994 211.461 10.5661 211.717 10.4105C211.974 10.2539 212.311 10.1741 212.735 10.1741C213.961 10.1741 215.538 10.6801 217.462 11.6902ZM239.396 6.81822C237.564 6.81822 236.105 7.51407 235.024 8.90785V6.98104H230.136V27.2167H235.024V19.9492C235.556 20.6274 236.203 21.148 236.964 21.5037C237.724 21.8604 238.572 22.0399 239.507 22.0399C240.861 22.0399 242.056 21.7287 243.094 21.1055C244.128 20.4822 244.927 19.5997 245.483 18.4621C246.044 17.3234 246.323 16.0022 246.323 14.4975C246.323 12.9751 246.033 11.6301 245.459 10.4624C244.881 9.29881 244.07 8.3997 243.024 7.76711C241.981 7.13141 240.77 6.81822 239.396 6.81822ZM238.186 18.0763C237.251 18.0763 236.492 17.7372 235.904 17.0569C235.317 16.3807 235.024 15.4879 235.024 14.3865C235.024 13.2862 235.317 12.3902 235.904 11.7027C236.492 11.013 237.251 10.6719 238.186 10.6719C239.14 10.6719 239.913 11.013 240.508 11.7027C241.107 12.3902 241.402 13.2862 241.402 14.3865C241.402 15.4879 241.107 16.3807 240.508 17.0569C239.913 17.7372 239.14 18.0763 238.186 18.0763ZM263.638 6.81822C262.102 6.81822 260.743 7.13141 259.573 7.76711C258.4 8.3997 257.492 9.29881 256.851 10.4624C256.21 11.6301 255.888 12.9751 255.888 14.4975C255.888 16.0022 256.204 17.3234 256.835 18.4621C257.468 19.5997 258.379 20.4822 259.573 21.1055C260.761 21.7287 262.157 22.0399 263.749 22.0399C265.124 22.0399 266.355 21.8159 267.446 21.3668C268.537 20.9167 269.465 20.2613 270.236 19.3975L267.682 16.837C267.185 17.3338 266.64 17.7092 266.043 17.9653C265.448 18.2236 264.83 18.3542 264.189 18.3542C263.345 18.3542 262.633 18.1271 262.046 17.677C261.458 17.228 261.045 16.5819 260.81 15.7357H271.145C271.161 15.5324 271.171 15.24 271.171 14.8542C271.171 12.3591 270.52 10.395 269.221 8.96385C267.919 7.5317 266.057 6.81822 263.638 6.81822ZM260.699 13.1213C260.863 12.2388 261.207 11.543 261.73 11.0286C262.251 10.5153 262.897 10.257 263.667 10.257C264.491 10.257 265.155 10.5184 265.66 11.0421C266.164 11.5658 266.415 12.2585 266.415 13.1213H260.699ZM291.509 12.4047L295.057 10.34C294.415 9.22207 293.519 8.35407 292.363 7.73807C291.207 7.12415 289.889 6.81822 288.405 6.81822C286.885 6.81822 285.543 7.13141 284.378 7.76711C283.215 8.3997 282.309 9.29881 281.67 10.4624C281.03 11.6301 280.709 12.9751 280.709 14.4975C280.709 16.0022 281.026 17.3234 281.656 18.4621C282.288 19.5997 283.182 20.4822 284.337 21.1055C285.492 21.7287 286.828 22.0399 288.349 22.0399C289.927 22.0399 291.301 21.7287 292.473 21.1055C293.646 20.4822 294.525 19.5997 295.111 18.4621L291.509 16.3973C290.925 17.5153 289.952 18.0763 288.596 18.0763C287.719 18.0763 287.004 17.7476 286.453 17.0849C285.905 16.4264 285.629 15.5532 285.629 14.4695C285.629 13.4065 285.905 12.5396 286.453 11.8696C287.004 11.1997 287.719 10.8637 288.596 10.8637C289.843 10.8637 290.814 11.3791 291.509 12.4047ZM305.611 21.876H310.476V6.98104H305.611V21.876ZM308.003 0.127258C307.25 0.127258 306.634 0.369925 306.147 0.854221C305.663 1.34267 305.419 1.97007 305.419 2.74059C305.419 3.49452 305.663 4.11674 306.147 4.61452C306.634 5.11022 307.25 5.35704 308.003 5.35704C308.755 5.35704 309.372 5.11022 309.857 4.61452C310.345 4.11674 310.587 3.49452 310.587 2.74059C310.587 1.97007 310.345 1.34267 309.857 0.854221C309.372 0.369925 308.755 0.127258 308.003 0.127258ZM329.167 6.78918C327.976 6.78918 326.826 6.92192 325.716 7.18844C324.61 7.45392 323.451 7.86252 322.241 8.41318L323.588 11.7172C324.372 11.3304 325.159 11.0369 325.936 10.8357C326.718 10.6335 327.419 10.5339 328.041 10.5339C328.957 10.5339 329.658 10.7258 330.144 11.1116C330.628 11.4963 330.873 12.0459 330.873 12.7646V12.9295H326.996C325.162 12.9471 323.757 13.3495 322.776 14.1407C321.796 14.931 321.308 16.0313 321.308 17.4427C321.308 18.8375 321.76 19.9627 322.669 20.8161C323.573 21.6696 324.815 22.0958 326.393 22.0958C328.388 22.0958 329.883 21.4633 330.873 20.195V21.876H335.682V12.1839C335.665 10.4779 335.086 9.15155 333.95 8.20474C332.815 7.26207 331.221 6.78918 329.167 6.78918ZM327.905 18.7639C327.279 18.7639 326.789 18.6135 326.433 18.3107C326.075 18.0089 325.898 17.5993 325.898 17.0849C325.898 16.0561 326.584 15.5439 327.958 15.5439H330.873V16.837C330.724 17.4053 330.378 17.8689 329.828 18.2277C329.278 18.5855 328.636 18.7639 327.905 18.7639ZM347.363 21.876H352.256V1.44741H347.363V21.876Z" fill="#126ABF"/>
</g>
<path fill-rule="evenodd" clip-rule="evenodd" d="M136 114.119C136 114.372 136.04 114.596 136.121 114.788C136.199 114.982 136.314 115.19 136.476 115.411C139.348 119.88 142.737 123.094 146.641 125.056C150.544 127.017 154.882 128 159.654 128C162.813 128 165.791 127.569 168.587 126.708C171.387 125.845 173.817 124.564 175.888 122.854C177.958 121.147 179.592 119.04 180.795 116.535C181.995 114.032 182.593 111.137 182.593 107.849C182.593 105.329 182.183 103.112 181.362 101.194C180.539 99.2797 179.378 97.5735 177.878 96.0744C176.377 94.5773 174.562 93.2248 172.428 92.0294C170.294 90.833 167.932 89.6928 165.341 88.6066C162.403 87.3957 159.691 86.2762 157.212 85.2556C154.732 84.235 152.59 83.1343 150.79 81.9546C148.988 80.7748 147.591 79.4182 146.595 77.8857C145.599 76.3532 145.101 74.4733 145.101 72.2376C145.101 70.3576 145.442 68.6327 146.119 67.0701C146.799 65.5043 147.764 64.1581 149.012 63.0252C150.26 61.8901 151.753 61.0068 153.492 60.3681C155.228 59.7293 157.159 59.4088 159.275 59.4088C162.529 59.4088 165.325 60.032 167.662 61.2773C170.002 62.5206 172.136 64.2143 174.063 66.3522C174.284 66.5749 174.536 66.7257 174.822 66.8038C175.107 66.8849 175.422 66.7985 175.771 66.5426C175.958 66.3824 176.202 66.1837 176.504 65.9444C176.803 65.7041 177.08 65.4638 177.333 65.2255C177.586 64.9852 177.809 64.7698 177.999 64.5795C178.186 64.387 178.28 64.2455 178.28 64.1498C178.28 63.8949 178.249 63.6951 178.186 63.5505C178.124 63.407 178.012 63.2239 177.856 63.0012C176.748 61.5634 175.508 60.288 174.133 59.1716C172.76 58.0543 171.274 57.1138 169.677 56.3491C168.083 55.5814 166.408 54.9987 164.655 54.5982C162.9 54.2008 161.107 54 159.275 54C156.526 54 153.965 54.4161 151.596 55.2474C149.226 56.0776 147.178 57.273 145.457 58.8346C143.734 60.3982 142.384 62.3146 141.404 64.5795C140.423 66.8454 139.936 69.3984 139.936 72.2376C139.936 75.3337 140.509 77.9336 141.664 80.0403C142.819 82.147 144.405 83.9718 146.429 85.5209C148.451 87.0679 150.83 88.4319 153.562 89.6106C156.296 90.7945 159.244 92.0242 162.403 93.2976C164.424 94.1289 166.346 94.9757 168.161 95.8351C169.977 96.6944 171.566 97.6963 172.926 98.8251C174.284 99.9601 175.358 101.251 176.148 102.705C176.939 104.157 177.333 105.87 177.333 107.849C177.333 110.402 176.859 112.611 175.911 114.48C174.964 116.346 173.683 117.875 172.073 119.073C170.46 120.268 168.58 121.155 166.43 121.729C164.281 122.304 161.993 122.591 159.557 122.591C157.315 122.591 155.299 122.369 153.515 121.92C151.732 121.475 150.086 120.819 148.587 119.959C147.086 119.096 145.702 118.028 144.438 116.753C143.175 115.477 141.956 114.023 140.787 112.397C140.599 112.143 140.289 111.934 139.862 111.773C139.438 111.614 139.144 111.534 138.987 111.534C138.514 111.534 138.071 111.718 137.658 112.086C137.251 112.452 136.917 112.797 136.666 113.113C136.22 113.371 136 113.703 136 114.119ZM236.25 81.6674C236.25 81.0286 236.069 80.5438 235.703 80.2068C235.343 79.8718 234.875 79.7053 234.308 79.7053H232.932C232.301 79.7053 231.841 79.8718 231.556 80.2068C231.274 80.5438 231.115 81.0286 231.084 81.6674L230.893 89.853C230.42 88.2248 229.646 86.734 228.573 85.3763C227.498 84.0197 226.203 82.8472 224.683 81.8588C223.168 80.8705 221.468 80.1048 219.59 79.5617C217.71 79.0187 215.726 78.7471 213.641 78.7471C210.386 78.7471 207.368 79.3869 204.587 80.6614C201.805 81.9369 199.397 83.693 197.36 85.9277C195.323 88.1614 193.725 90.7716 192.572 93.7533C191.418 96.7371 190.84 99.9206 190.84 103.303C190.84 106.684 191.424 109.859 192.594 112.827C193.762 115.793 195.368 118.379 197.408 120.581C199.443 122.782 201.854 124.524 204.635 125.799C207.414 127.074 210.417 127.713 213.641 127.713C215.694 127.713 217.637 127.455 219.47 126.948C221.303 126.437 222.969 125.703 224.47 124.746C225.972 123.788 227.275 122.617 228.384 121.227C229.486 119.838 230.324 118.252 230.893 116.463V124.794C230.893 126.069 231.524 126.708 232.789 126.708H234.308C234.905 126.708 235.38 126.555 235.729 126.251C236.076 125.949 236.25 125.527 236.25 124.983V81.6674ZM229.566 110.792C228.712 113.105 227.528 115.117 226.013 116.824C224.494 118.53 222.679 119.88 220.56 120.866C218.444 121.857 216.134 122.351 213.641 122.351C211.111 122.351 208.782 121.849 206.649 120.843C204.516 119.838 202.675 118.475 201.125 116.753C199.579 115.029 198.369 113.011 197.501 110.696C196.632 108.383 196.198 105.918 196.198 103.303C196.198 100.685 196.632 98.2123 197.501 95.8819C198.369 93.5536 199.57 91.5186 201.104 89.7791C202.636 88.0417 204.47 86.6601 206.603 85.6395C208.736 84.62 211.081 84.1071 213.641 84.1071C216.168 84.1071 218.492 84.62 220.608 85.6395C222.725 86.6601 224.542 88.05 226.058 89.8031C227.578 91.5592 228.752 93.6004 229.592 95.9318C230.426 98.2623 230.847 100.732 230.847 103.351C230.847 105.998 230.42 108.479 229.566 110.792ZM250.659 124.889C250.659 126.037 251.276 126.612 252.507 126.612H254.168C255.336 126.612 255.919 126.037 255.919 124.889V62.6641C255.919 61.7081 255.897 60.7665 255.849 59.8396C255.803 58.9157 255.748 58.0543 255.682 57.2563C255.618 56.7164 255.455 56.2919 255.185 55.9871C254.916 55.6854 254.498 55.5335 253.929 55.5335H252.46C251.923 55.5335 251.487 55.6854 251.156 55.9871C250.823 56.2919 250.659 56.7164 250.659 57.2563V124.889ZM308.344 81.475C308.344 80.2941 307.728 79.7053 306.495 79.7053H304.836C303.666 79.7053 303.083 80.2941 303.083 81.475V108.232C303.083 110.243 302.703 112.108 301.945 113.831C301.187 115.554 300.151 117.061 298.84 118.356C297.53 119.647 295.998 120.661 294.243 121.395C292.49 122.128 290.634 122.494 288.673 122.494C286.586 122.494 284.669 122.128 282.914 121.395C281.16 120.661 279.652 119.647 278.387 118.356C277.123 117.061 276.135 115.548 275.424 113.806C274.714 112.068 274.341 110.196 274.311 108.185V81.5707C274.311 80.9652 274.185 80.5022 273.933 80.1839C273.68 79.8655 273.22 79.7053 272.559 79.7053H270.898C270.363 79.7053 269.918 79.8718 269.57 80.2068C269.225 80.5438 269.051 81.0151 269.051 81.6206V107.994C269.051 110.738 269.53 113.313 270.495 115.723C271.461 118.133 272.78 120.222 274.452 121.992C276.128 123.764 278.119 125.161 280.426 126.179C282.733 127.201 285.242 127.713 287.963 127.713C289.574 127.713 291.12 127.504 292.608 127.09C294.093 126.676 295.492 126.093 296.801 125.343C298.114 124.591 299.298 123.709 300.358 122.686C301.416 121.665 302.326 120.532 303.083 119.287C303.115 120.213 303.146 121.139 303.179 122.066C303.21 122.989 303.257 123.916 303.32 124.841C303.351 125.382 303.509 125.816 303.793 126.134C304.079 126.452 304.505 126.612 305.073 126.612H306.544C307.082 126.612 307.515 126.452 307.848 126.134C308.18 125.816 308.344 125.382 308.344 124.841V81.475ZM345.743 89.2777L346.025 89.6605C346.278 90.0132 346.484 90.2837 346.641 90.4751C346.8 90.6666 347.054 90.7612 347.401 90.7612C347.716 90.7612 348.096 90.6166 348.54 90.3316L350.198 89.3266C350.448 89.1664 350.639 88.9656 350.767 88.7273C350.892 88.4891 350.956 88.256 350.956 88.0344C350.956 87.7785 350.876 87.4581 350.719 87.0773C349.077 84.1737 346.983 82.0326 344.438 80.6614C341.894 79.2902 339.042 78.6025 335.884 78.6025C333.702 78.6025 331.72 78.9157 329.933 79.5388C328.148 80.1589 326.631 81.0453 325.385 82.1938C324.134 83.3445 323.162 84.7157 322.467 86.3095C321.773 87.9065 321.427 89.6772 321.427 91.6216C321.427 93.2841 321.821 94.8135 322.612 96.219C323.399 97.6235 324.435 98.8761 325.715 99.9757C326.997 101.076 328.449 102.026 330.076 102.823C331.703 103.621 333.339 104.258 334.982 104.739C336.31 105.057 337.667 105.471 339.059 105.983C340.447 106.494 341.713 107.123 342.85 107.872C343.988 108.623 344.919 109.517 345.645 110.552C346.374 111.59 346.737 112.797 346.737 114.167C346.737 115.635 346.374 116.896 345.645 117.949C344.919 119.001 344.003 119.872 342.898 120.556C341.791 121.243 340.592 121.753 339.296 122.089C337.999 122.422 336.782 122.591 335.647 122.591C334.791 122.591 333.852 122.454 332.828 122.184C331.797 121.914 330.786 121.507 329.794 120.965C328.798 120.422 327.88 119.751 327.044 118.955C326.204 118.155 325.532 117.247 325.03 116.225L324.791 115.747C324.634 115.457 324.442 115.219 324.222 115.029C324 114.836 323.731 114.743 323.416 114.743C323.227 114.743 322.991 114.788 322.706 114.884L320.906 115.7C320.557 115.859 320.28 116.091 320.074 116.392C319.869 116.697 319.767 116.973 319.767 117.231C319.767 117.422 319.813 117.63 319.909 117.852C320.414 119.448 321.18 120.859 322.208 122.089C323.234 123.318 324.45 124.338 325.857 125.151C327.265 125.966 328.798 126.579 330.456 126.994C332.115 127.408 333.845 127.617 335.647 127.617C337.827 127.617 339.903 127.32 341.881 126.731C343.853 126.139 345.591 125.271 347.092 124.123C348.592 122.974 349.786 121.554 350.67 119.863C351.556 118.174 352 116.242 352 114.073C352 112.381 351.65 110.802 350.956 109.333C350.262 107.865 349.266 106.534 347.971 105.339C346.674 104.139 345.102 103.08 343.252 102.153C341.404 101.226 339.327 100.446 337.021 99.8093L335.597 99.4254C334.651 99.1695 333.648 98.8355 332.59 98.4204C331.53 98.0042 330.559 97.4861 329.673 96.864C328.789 96.2408 328.052 95.4939 327.468 94.6147C326.884 93.7356 326.594 92.7254 326.594 91.5748C326.594 90.395 326.821 89.3172 327.279 88.3445C327.737 87.3707 328.378 86.5342 329.198 85.832C330.02 85.1297 331 84.5856 332.137 84.2038C333.275 83.8199 334.521 83.6285 335.884 83.6285C338.063 83.6285 340.007 84.156 341.713 85.2088C343.418 86.2627 344.779 87.6183 345.79 89.2777H345.743Z" fill="#126ABF"/>
<mask id="mask1" mask-type="alpha" maskUnits="userSpaceOnUse" x="0" y="37" width="114" height="106">
<path fill-rule="evenodd" clip-rule="evenodd" d="M0 37.3365H113.882V142.862H0V37.3365Z" fill="white"/>
</mask>
<g mask="url(#mask1)">
<path fill-rule="evenodd" clip-rule="evenodd" d="M82.4852 93.9768C82.4852 94.7563 81.8607 95.3904 81.0894 95.3904L66.3927 95.3863C65.6214 95.3863 64.9959 96.0173 64.9959 96.7998V97.9892V99.0094V101.516L64.999 111.448C64.999 112.226 64.3715 112.857 63.6022 112.857H50.2807C49.5114 112.857 48.8839 112.226 48.8839 111.448V99.0094V97.9892V96.7998C48.8839 96.0173 48.2585 95.3863 47.4882 95.3863L32.7935 95.3904C32.0222 95.3904 31.3947 94.7563 31.3947 93.9768V80.4826C31.3947 79.7021 32.0222 79.0721 32.7935 79.0721H47.4882C48.2585 79.0721 48.8839 78.439 48.8839 77.6596V76.8065V75.7863V63.0185C48.8839 62.2412 49.5114 61.6091 50.2807 61.6091H63.6022C64.3715 61.6091 64.9959 62.2412 64.9959 63.0185V69.5456L64.999 75.7863L64.9959 76.8065V77.6596C64.9959 78.439 65.6214 79.0721 66.3927 79.0721H81.0894C81.8607 79.0721 82.4852 79.7021 82.4852 80.4826V93.9768ZM83.6457 37.3367C63.3866 37.3917 56.9399 49.2482 56.9399 49.2482C56.9399 49.2482 50.4974 37.3917 30.2382 37.3367C3.90013 37.2661 -7.64981 66.1145 5.37597 91.8669C17.8985 116.622 56.9399 142.862 56.9399 142.862C56.9399 142.862 95.9854 116.622 108.506 91.8669C121.532 66.1145 109.98 37.2661 83.6457 37.3367Z" fill="#126ABF"/>
</g>
<path fill-rule="evenodd" clip-rule="evenodd" d="M518.596 85C517.767 85 516.514 84.9406 515.279 84.6342C513.54 84.2068 512.004 83.4903 511.171 82.7111C511.14 82.6809 511.119 82.6442 511.116 82.6107C511.073 82.3064 511.037 81.974 511.015 81.5607C510.991 81.0416 510.995 80.5722 511.034 80.1211C511.575 73.4918 516.051 70.8187 517.409 70.1583C517.614 70.0558 517.738 70.0105 517.741 70.0072C517.825 69.9813 517.916 70.0266 517.942 70.1194C517.971 70.2069 517.929 70.3007 517.847 70.3331C517.843 70.3331 517.734 70.3784 517.548 70.4702C514.026 72.2573 513.75 76.7833 513.75 78.1279C513.75 83.1913 520.77 84.4378 520.84 84.4572C520.968 84.4734 521.001 84.5813 521 84.6471C520.988 84.7885 520.956 84.8403 520.22 84.9201C519.945 84.9482 519.349 85 518.596 85Z" fill="#126ABF"/>
<path fill-rule="evenodd" clip-rule="evenodd" d="M522.405 92C517.995 92 514.009 89.5851 512.02 85.6986C511.983 85.6322 512.001 85.5618 512.049 85.5079C512.098 85.4612 512.173 85.4447 512.242 85.4716C512.279 85.4903 515.831 87.0553 519.816 87.0553C523.135 87.0553 525.789 85.995 527.685 83.9014C530.151 81.1964 530.675 78.083 529.253 74.6618C528.181 72.0894 526.352 70.3005 526.338 70.2788C526.279 70.228 526.272 70.143 526.309 70.0777C526.352 70.0103 526.434 69.9854 526.509 70.0083C526.58 70.03 528.276 70.5669 530.062 72.0427C531.706 73.4139 533.716 75.8733 533.976 79.8335C534.183 83.0692 533.051 86.1308 530.781 88.4637C528.592 90.7097 525.539 92 522.405 92Z" fill="#126ABF"/>
<path fill-rule="evenodd" clip-rule="evenodd" d="M510.935 109.224C509.925 109.762 508.556 110 507.514 110C506.151 110 504.502 109.703 502.85 108.893C500.558 107.745 497.628 104.599 495.619 104.656C493.942 104.795 491.94 104.858 489.601 104.858C483.552 104.858 479.85 104.406 478.507 103.492C477.166 102.58 476.716 100.222 477.173 96.4277L477.317 95.2628L477.556 93.7026C477.811 91.5125 478.94 90.0159 480.929 89.2108C482.911 88.4046 486.477 88 491.638 88C497.595 88 501.267 88.461 502.65 89.3714C504.039 90.2829 504.508 92.5637 504.063 96.2045C503.606 100.013 502.64 102.411 501.184 103.393C501.176 103.393 501.133 103.42 501.076 103.457C501.076 103.448 501.069 103.443 501.064 103.443C500.24 102.709 499.362 102.242 498.454 102.016C498.479 101.991 498.498 101.965 498.517 101.935C498.627 101.762 498.697 101.646 498.697 101.646C499.271 100.662 499.707 98.9265 500 96.4277L500.145 95.3472L500.309 93.7902C500.527 91.9672 500.078 90.8127 498.967 90.3142C497.863 89.8261 495.777 89.5737 491.426 89.5737C486.437 89.5737 484.123 89.8699 483.206 90.4456C482.287 91.0296 481.622 93.0216 481.206 96.4277C480.794 99.838 480.972 101.833 481.758 102.412C482.529 102.998 484.775 103.287 489.765 103.287C494.648 103.287 497.022 103.056 497.955 102.459C498.803 102.67 499.72 103.116 500.599 103.896C500.689 103.984 500.782 104.069 500.88 104.152C502.104 105.443 504.553 107.895 506.673 108.62C507.729 108.982 508.704 109.045 509.385 109.045C509.681 109.045 510.407 108.954 510.837 108.775C511.023 108.805 511.041 109.075 510.935 109.224Z" fill="#126ABF"/>
<path fill-rule="evenodd" clip-rule="evenodd" d="M474 90H471.944C470.095 90 469.746 91.3488 469.676 92.1305C469.602 92.892 468 106 468 106H472.071L474 90Z" fill="#126ABF"/>
<path fill-rule="evenodd" clip-rule="evenodd" d="M455.595 103.391C459.487 103.391 461.75 103.216 463 102.858C463 102.858 462.956 103.372 462.9 103.672C462.847 103.962 462.802 104.666 461.477 104.787C459.804 104.931 457.786 105 455.434 105C449.399 105 445.699 104.534 444.364 103.601C443.654 103.113 442.974 102.127 443.001 100.817C443.025 99.5069 443.83 97.262 446.37 96.2279C448.349 95.4196 451.916 95 457.061 95C458.255 95 459.342 95.0213 460.353 95.0575C460.353 95.0575 460.32 95.6518 460.258 95.8829C460.205 96.1214 460.018 96.4292 459.512 96.4941C459.003 96.5772 457.877 96.5527 456.822 96.5527C451.843 96.5527 449.565 96.9116 448.635 97.4952C447.759 98.0426 447.065 99.2247 446.951 100.449C446.809 101.914 447.321 102.288 447.598 102.497C448.38 103.097 450.622 103.391 455.595 103.391Z" fill="#126ABF"/>
<path fill-rule="evenodd" clip-rule="evenodd" d="M465.999 89.3257C465.999 89.3257 466.012 89.5312 465.918 89.8738C465.813 90.2064 465.787 90.6483 464.02 90.546C462.598 90.5083 461.932 90.4269 458.847 90.4428C453.848 90.4745 451.458 90.7804 450.525 91.3285C449.685 91.817 449.02 93.3492 448.514 95.9209C448.112 96.0272 447.742 96.1354 447.42 96.2615C445.588 96.9476 444.451 98.1998 444 100C444 99.1361 444.096 98.1461 444.276 97.0241L444.456 95.914L444.744 94.4295C445.091 92.3433 446.266 90.9184 448.279 90.1518C450.298 89.3863 453.893 89 459.061 89C462.075 89 464.156 89.1092 465.999 89.3257Z" fill="#126ABF"/>
<path fill-rule="evenodd" clip-rule="evenodd" d="M441 90H438.953C437.094 90 436.751 91.3488 436.675 92.1305C436.588 93.0439 436.594 92.9517 435 106H439.068L441 90Z" fill="#126ABF"/>
<path fill-rule="evenodd" clip-rule="evenodd" d="M435 96.0526C435 96.0526 434.975 96.5968 434.916 96.8071C434.86 97.0233 434.682 97.3095 434.187 97.3689C433.699 97.4419 432.163 97.4195 431.143 97.4195C426.303 97.4195 424.088 97.7496 423.187 98.2812C422.47 98.7095 421.751 99.6432 421.598 100.812L421.124 104.438L421.11 104.577L421.053 105H417C417 105 417.527 101.101 417.642 100.682C417.883 99.4904 418.918 97.9073 420.98 97.1235C422.908 96.3826 426.37 96 431.368 96C432.531 96 434.024 96.0195 435 96.0526Z" fill="#126ABF"/>
<path fill-rule="evenodd" clip-rule="evenodd" d="M418.168 91.1313C418.25 90.3499 418.633 89 420.706 89H423L422.09 95.7587C421.653 95.857 420.887 96.0556 420.541 96.1844C418.589 96.8847 417.407 98.1616 417 100L418.168 91.1313Z" fill="#126ABF"/>
<path fill-rule="evenodd" clip-rule="evenodd" d="M468.962 116.019C469.197 114.052 468.311 112.311 467.07 111.657C466.157 111.178 464.958 111 462.944 111H448.156L446 129H453.017L453.684 123.455H458.662C459.956 123.455 460.307 124.263 460.222 125.599C460.097 127.688 460.001 128.47 460.185 129H467.855C467.472 128.448 467.213 127.688 467.238 126.883L467.411 122.95C467.472 121.387 466.735 120.48 465.724 120.177L465.732 120.126C467.845 119.521 468.759 117.708 468.962 116.019ZM461.349 117.229C461.216 118.362 460.575 118.916 459.206 118.916H454.227L454.634 115.539H459.511C460.682 115.539 461.513 115.866 461.349 117.229Z" fill="#126ABF"/>
<path fill-rule="evenodd" clip-rule="evenodd" d="M484.224 110C479.706 110 471.3 110.298 470.115 119.502C468.927 128.703 477.256 129 481.777 129C486.291 129 494.697 128.703 495.886 119.502C497.07 110.298 488.742 110 484.224 110ZM487.964 119.502C487.498 123.107 485.386 124.529 482.35 124.529C479.312 124.529 477.566 123.107 478.03 119.502C478.501 115.895 480.608 114.479 483.647 114.479C486.682 114.479 488.427 115.895 487.964 119.502Z" fill="#126ABF"/>
<path fill-rule="evenodd" clip-rule="evenodd" d="M438.116 111H445L442.881 129H436L438.116 111Z" fill="#126ABF"/>
<path fill-rule="evenodd" clip-rule="evenodd" d="M435 111H427.698L424.175 119.394L423.478 111H416L418.056 129H427.013C427.013 129 433.918 113.382 435 111Z" fill="#126ABF"/>
<path fill-rule="evenodd" clip-rule="evenodd" d="M529.94 111H523.103L521 129H538.431L539 124.16H528.405L529.94 111Z" fill="#126ABF"/>
<path fill-rule="evenodd" clip-rule="evenodd" d="M555.224 110C550.707 110 542.298 110.298 541.114 119.502C539.928 128.703 548.259 129 552.773 129C557.289 129 565.697 128.703 566.886 119.502C568.07 110.298 559.741 110 555.224 110ZM558.962 119.502C558.498 123.107 556.385 124.529 553.349 124.529C550.311 124.529 548.568 123.107 549.031 119.502C549.501 115.895 551.609 114.479 554.647 114.479C557.683 114.479 559.426 115.895 558.962 119.502Z" fill="#126ABF"/>
<path fill-rule="evenodd" clip-rule="evenodd" d="M581.313 114.479C584.117 114.479 584.761 116.317 584.812 117.585H593C592.928 110.544 586.255 110 581.876 110C577.472 110 569.268 110.298 568.112 119.502C566.953 128.699 575.08 129 579.482 129C583.911 129 586.786 128.277 588.726 126.984C590.691 125.693 591.752 123.804 592.508 121.463H584.319C583.46 123.603 581.977 124.527 579.683 124.527C577.032 124.527 575.383 123.106 575.838 119.502C576.292 115.891 578.349 114.479 581.313 114.479Z" fill="#126ABF"/>
<mask id="mask2" mask-type="alpha" maskUnits="userSpaceOnUse" x="594" y="111" width="26" height="18">
<path fill-rule="evenodd" clip-rule="evenodd" d="M594.174 111.442H619.26V128.458H594.174V111.442Z" fill="white"/>
</mask>
<g mask="url(#mask2)">
<path fill-rule="evenodd" clip-rule="evenodd" d="M619.26 111.442H609.924L602.614 117.45L603.378 111.442H596.337L594.174 128.458H601.212L601.797 123.883L604.366 121.93L608.403 128.458H617.765L610.459 118.02L619.26 111.442Z" fill="#126ABF"/>
</g>
<path fill-rule="evenodd" clip-rule="evenodd" d="M516.396 119.042L516.406 118.993C517.815 118.466 518.759 117.077 518.949 115.488C519.298 112.617 517.865 111 514.217 111H511.302L511.275 111.052L511.139 111.249L510.932 111.354C509.689 112.018 508.093 112.258 507.021 112.258C505.815 112.258 503.941 112.043 501.885 111.033L501.824 111H498.167L496 129H511.273C516.5 129 518.523 126.68 518.949 123.156C519.112 121.815 518.624 119.651 516.396 119.042ZM511.447 123.203C511.35 124.01 510.851 124.615 509.448 124.615H503.428L503.768 121.79H509.789C511.192 121.79 511.541 122.419 511.447 123.203ZM511.475 116.524C511.394 117.227 511.008 117.707 509.584 117.707H504.258L504.537 115.385H509.863C511.288 115.385 511.555 115.867 511.475 116.524Z" fill="#126ABF"/>
</svg>
