<svg width="43" height="43" viewBox="0 0 43 43" fill="none" xmlns="http://www.w3.org/2000/svg">
<path fill-rule="evenodd" clip-rule="evenodd" d="M2.28316 21.4625C2.28316 22.2779 2.33487 23.1013 2.44094 23.9273C3.084 29.0175 5.68142 33.5561 9.736 36.6945C13.7946 39.8409 18.8383 41.2052 23.9244 40.5529C29.0158 39.9111 33.5437 37.3256 36.6861 33.263C39.8258 29.2018 41.2047 24.1594 40.5551 19.0692C39.904 13.9764 37.3172 9.45902 33.26 6.30734C29.2001 3.16494 24.1617 1.8019 19.0756 2.44099C13.9828 3.09201 9.44166 5.67753 6.30194 9.73879C3.68065 13.1397 2.28316 17.2341 2.28316 21.4625M43 21.5407C43 26.2808 41.4328 30.8552 38.4893 34.6592C34.9744 39.1978 29.9095 42.0976 24.2121 42.8255C18.5121 43.5481 12.8823 42.0114 8.33586 38.4977C3.80131 34.9827 0.902907 29.9085 0.181621 24.2177C-0.559553 18.5243 0.985112 12.8878 4.4974 8.34128C8.01234 3.81065 13.0879 0.904263 18.7826 0.172362C24.4813 -0.544955 30.111 0.991773 34.6562 4.50012C39.1934 8.01908 42.0971 13.0894 42.8184 18.7788C42.9324 19.7096 43 20.6271 43 21.5407" fill="black"/>
<path fill-rule="evenodd" clip-rule="evenodd" d="M16.6324 27C7.99487 27 1.62471 24.3715 1.22072 24.2149L2.18655 18L1 20.9613L2.18387 18C2.29089 18.0431 12.9818 22.0367 21.8709 20.1338C36.0252 17.1021 42.481 18.402 42.8047 18.4646L43 24.7369C42.9478 24.7291 35.9864 23.6198 23.2688 26.3435C21.0723 26.8121 18.8263 27 16.6324 27" fill="black"/>
</svg>
