<svg width="45" height="45" viewBox="0 0 45 45" fill="none" xmlns="http://www.w3.org/2000/svg">
<path fill-rule="evenodd" clip-rule="evenodd" d="M13.878 37C13.8053 37 13.7257 36.9781 13.6565 36.9343C11.7824 35.7067 10.187 34.0905 8.91681 32.1423C3.87774 24.4007 5.53378 13.6109 12.6027 8.0856C12.7792 7.9415 13.0474 7.98345 13.1824 8.18046C13.3191 8.37564 13.2793 8.64926 13.0941 8.79337C6.37997 14.0359 4.81392 24.2876 9.6038 31.6443C10.8065 33.494 12.3206 35.0263 14.0978 36.1883C14.2933 36.3178 14.3487 36.5877 14.231 36.7957C14.1497 36.927 14.013 37 13.878 37M32.1222 37C31.9837 37 31.8487 36.927 31.7674 36.7957C31.6497 36.5877 31.7086 36.3178 31.9007 36.1883C33.6796 35.0263 35.1937 33.494 36.3981 31.6443C41.1845 24.2912 39.615 14.0359 32.9043 8.79337C32.7209 8.64926 32.6794 8.37564 32.8178 8.18046C32.9528 7.98345 33.2158 7.9415 33.3992 8.0856C40.4681 13.6127 42.1207 24.4007 37.0834 32.1423C35.8132 34.0905 34.2195 35.7067 32.3419 36.9343C32.2762 36.9781 32.2 37 32.1222 37" fill="black"/>
<path fill-rule="evenodd" clip-rule="evenodd" d="M33.3399 22.87V22.87H11.6654C11.3005 22.87 11 22.704 11 22.499C11 22.296 11.3005 22.13 11.6654 22.13H33.3399C33.7013 22.13 34 22.296 34 22.5C34 22.705 33.7013 22.87 33.3399 22.87" fill="black"/>
<path fill-rule="evenodd" clip-rule="evenodd" d="M17.4975 29C17.2811 29 17.0647 28.9407 16.8678 28.8069L10.6047 24.6174C10.5106 24.5619 10.4273 24.4931 10.3528 24.4089C9.9661 23.9978 9.88096 23.3381 10.179 22.8219C10.2925 22.6211 10.4521 22.47 10.633 22.363L16.8678 18.1964C17.4319 17.8159 18.1627 18.0071 18.5121 18.6075C18.8615 19.2117 18.6859 20.0053 18.1272 20.3782L13.4622 23.5045L18.1272 26.6232C18.6859 26.998 18.858 27.7896 18.5103 28.3958C18.2833 28.7878 17.893 29 17.4975 29M29.5076 29C29.1085 29 28.7183 28.7878 28.493 28.3958C28.1454 27.7896 28.3174 26.998 28.8762 26.6232L33.5429 23.5007L28.8762 20.3782C28.3174 20.0053 28.1418 19.2117 28.4877 18.6075C28.8389 18.0071 29.5697 17.8159 30.132 18.1964L36.3845 22.3744C36.5601 22.4777 36.7056 22.6287 36.8209 22.8219C36.9468 23.0341 37 23.2674 37 23.5007C37 23.732 36.9468 23.9692 36.8209 24.1795C36.7056 24.3726 36.5601 24.5256 36.3845 24.6308L30.132 28.8069C29.9387 28.9407 29.7205 29 29.5076 29" fill="black"/>
<path fill-rule="evenodd" clip-rule="evenodd" d="M22.5361 2.3863C21.6813 2.3863 20.8212 2.44127 19.9593 2.55476C14.6266 3.23219 9.88096 5.94187 6.59481 10.1908C3.30688 14.4398 1.87041 19.7137 2.54786 25.0427C3.22353 30.3716 5.93864 35.1153 10.1895 38.4067C14.4351 41.6927 19.7128 43.1327 25.0384 42.4535C30.3693 41.7707 35.1132 39.0593 38.4029 34.8139C41.6944 30.5667 43.1256 25.2892 42.4499 19.9602C41.7724 14.6295 39.0555 9.88581 34.8082 6.59801C31.2489 3.84222 26.9661 2.3863 22.5361 2.3863M22.4528 45C17.496 45 12.7096 43.3721 8.73001 40.2917C3.97546 36.6138 0.942911 31.3044 0.183885 25.3459C-0.57514 19.3821 1.03158 13.4839 4.70789 8.73136C8.38597 3.97877 13.692 0.946332 19.6578 0.185563C25.6201 -0.578753 31.5167 1.035 36.2713 4.71294C41.0205 8.39265 44.0584 13.6985 44.8156 19.657C45.5764 25.6226 43.9662 31.5225 40.2916 36.2698C36.61 41.0241 31.2986 44.0583 25.3399 44.8173C24.3734 44.9415 23.4104 45 22.4528 45" fill="black"/>
</svg>
