<svg width="45" height="45" viewBox="0 0 45 45" fill="none" xmlns="http://www.w3.org/2000/svg">
<path fill-rule="evenodd" clip-rule="evenodd" d="M38.4025 34.8097C35.1107 39.0571 30.3638 41.7716 25.0447 42.448C24.1882 42.5593 23.3282 42.6105 22.4717 42.6105C12.3916 42.6105 3.82668 35.0587 2.55341 25.0396C1.86999 19.7113 3.30748 14.4396 6.59747 10.1939C9.88747 5.94643 14.6291 3.22665 19.9588 2.54847C20.81 2.44427 21.6735 2.39129 22.5265 2.39129C32.6119 2.39129 41.1698 9.94309 42.4466 19.9604C43.1264 25.2869 41.6925 30.5657 38.4025 34.8097M44.8165 19.6548C43.3913 8.45428 33.8075 0 22.5265 0C21.5729 0 20.6069 0.0618132 19.6585 0.18544C13.6967 0.941327 8.3864 3.9737 4.70789 8.73155C1.03645 13.477 -0.572343 19.3793 0.181724 25.3416C1.61039 36.5528 11.1907 45 22.4717 45C23.4271 45 24.3878 44.9347 25.3432 44.8181C31.3016 44.0551 36.6136 41.0245 40.2885 36.2702C43.9618 31.5159 45.5758 25.6189 44.8165 19.6548" fill="black"/>
<path fill-rule="evenodd" clip-rule="evenodd" d="M30.3957 8.27857C29.9171 8.6788 29.872 9.37093 30.3015 9.82256C33.73 13.4264 35.6306 18.0621 35.664 22.8887C35.6542 22.9254 35.6542 22.9603 35.6542 22.9988C35.6542 27.864 33.7497 32.5455 30.2996 36.1788C29.8641 36.6267 29.9112 37.3207 30.3898 37.7228C30.6154 37.9082 30.8939 38 31.1704 38C31.4921 38 31.8118 37.8733 32.0452 37.6347C35.8503 33.6324 37.9627 28.4808 37.9961 23.1182C38 23.0796 38 23.0411 38 23.0043C38 17.5958 35.8876 12.4002 32.0491 8.36669C31.6196 7.91506 30.8801 7.87467 30.3957 8.27857" fill="black"/>
<path fill-rule="evenodd" clip-rule="evenodd" d="M7.34879 22.9968C7.34879 22.9601 7.34487 22.9234 7.34291 22.8867C7.37232 18.0619 9.26822 13.4243 12.6953 9.82038C13.1267 9.36874 13.0835 8.6766 12.6012 8.27637C12.1189 7.87797 11.3798 7.91286 10.9504 8.36449C7.11352 12.3999 5 17.5955 5 23.0023C5 23.039 5.00392 23.0776 5.00784 23.1162C5.03725 28.4789 7.15077 33.6305 10.9563 37.6347C11.1857 37.8733 11.5053 38 11.8307 38C12.1072 38 12.3816 37.9064 12.6091 37.7228C13.0894 37.3207 13.1345 36.6267 12.7032 36.1788C9.24861 32.5436 7.34879 27.862 7.34879 22.9968" fill="black"/>
<path fill-rule="evenodd" clip-rule="evenodd" d="M31.1606 33.5128C31.1554 33.4777 31.1467 33.4537 31.1415 33.4186C31.1293 33.3687 31.1241 33.3206 31.1136 33.2745C31.1101 33.2597 31.1067 33.2504 31.0997 33.2394C30.997 32.8902 30.7933 32.6131 30.534 32.5207L21.6369 29.3837H32.0049C32.3948 29.4169 32.7604 29.0179 32.8439 28.4138C32.8979 28.0646 32.8439 27.7154 32.7238 27.442C32.7204 27.4272 32.7117 27.4161 32.7064 27.4032C32.6838 27.3552 32.6577 27.3127 32.6333 27.2665C32.6055 27.2295 32.5811 27.1944 32.555 27.1593C32.5411 27.1501 32.5306 27.1353 32.5202 27.1205C32.4122 27.0023 32.2834 26.9247 32.1442 26.8988L21.3671 23.7397H33.0006L33.0076 23.7415C33.4428 23.893 33.8797 23.4681 33.9807 22.7901C34.0103 22.6072 34.0033 22.4224 33.9772 22.245C33.9754 22.2247 33.9685 22.2063 33.9633 22.1804C33.9546 22.1342 33.9493 22.088 33.9424 22.0492C33.8188 21.5781 33.5228 21.2419 33.1712 21.2419H33.1503L22.4429 18.1159H31.4096C31.8273 18.2102 32.2277 17.8 32.3235 17.1608C32.3496 16.9798 32.3461 16.7932 32.3182 16.6195C32.3182 16.6158 32.3182 16.6103 32.3165 16.6047C32.3095 16.5382 32.2956 16.4717 32.2817 16.4126C32.2643 16.3498 32.2434 16.2962 32.2208 16.2389C32.219 16.2315 32.2155 16.2241 32.2138 16.2167C32.085 15.9064 31.8743 15.6902 31.6272 15.6385L22.697 12.4996H30.2224C30.675 12.4996 31.0423 11.938 31.0423 11.247C31.0423 10.5542 30.675 10 30.2224 10H15.6382C15.1821 10 14.8166 10.5542 14.8166 11.247C14.8166 11.332 14.82 11.4133 14.8322 11.4928C14.8827 11.986 15.1247 12.4073 15.4624 12.5236L24.2794 15.6219H13.9183C13.4622 15.6219 13.0984 16.1798 13.0984 16.8689C13.0984 16.9631 13.1054 17.0518 13.1193 17.1349C13.175 17.6116 13.4135 18.0106 13.739 18.1215L24.4326 21.2419H12.8199C12.369 21.2419 12 21.798 12 22.4926C12 22.8584 12.1079 23.1873 12.2716 23.4127C12.376 23.566 12.5066 23.6861 12.6563 23.7323L23.4072 26.8822H14.4771C14.021 26.8822 13.6572 27.4475 13.6572 28.1311C13.6572 28.181 13.6642 28.2327 13.6659 28.2807C13.6694 28.3121 13.6694 28.3436 13.6746 28.3768C13.6746 28.4027 13.6833 28.4248 13.6868 28.4544C13.699 28.508 13.706 28.5634 13.7199 28.6151C13.7251 28.6225 13.7268 28.6299 13.7286 28.641C13.8295 28.992 14.0332 29.2691 14.2978 29.3689L23.2036 32.5041H15.7722C15.3179 32.5041 14.9506 33.0638 14.9506 33.7567C14.9506 34.4421 15.3179 35 15.7722 35H30.3564C30.8073 35 31.1763 34.4421 31.1763 33.7567C31.1763 33.7049 31.1676 33.6587 31.1641 33.6144C31.1624 33.5774 31.1624 33.5479 31.1606 33.5128" fill="black"/>
</svg>
