<svg width="136" height="145" viewBox="0 0 136 145" fill="none" xmlns="http://www.w3.org/2000/svg">
<path fill-rule="evenodd" clip-rule="evenodd" d="M58.606 9.04863C58.8124 4.01591 62.9392 0 67.9995 0C73.052 0 77.1733 4.00199 77.393 9.02252C107.293 13.1884 131.845 37.2042 135.502 68.2372C135.729 70.1585 135.819 72.0955 135.897 73.7749L135.898 73.7773C135.931 74.4875 135.962 75.1517 136 75.7491C135.844 92.6057 130.843 106.995 120.754 119.546C119.522 121.077 118.871 122.316 119.508 124.507C120.738 128.744 117.504 133.555 113.036 133.294C107.894 132.996 103.781 134.993 99.5648 137.041C98.7339 137.444 97.8989 137.85 97.0512 138.24C75.8633 147.992 54.9186 147.173 34.5031 135.914C31.5872 134.305 28.8205 133.486 25.5276 133.538C18.3532 133.65 15.4189 130.118 16.84 123.184C17.1288 121.778 16.4698 121.047 15.8 120.304C15.6496 120.137 15.4986 119.97 15.3576 119.794C5.35421 107.333 0.140513 93.0973 0.00258414 77.1068C-0.294115 42.6039 24.9919 13.7599 58.606 9.04863ZM39.8262 133.569C47.3401 138.183 59.0011 140.443 69.9056 140.419C80.8103 140.396 90.9588 138.09 95.4482 133.569H39.8262ZM79.0315 129.232C75.2798 129.232 71.5282 129.232 67.7766 129.232C64.187 129.232 60.5972 129.232 57.0073 129.233H57.007H57.0068H56.9724C46.7281 129.234 36.4831 129.236 26.2387 129.224C25.9324 129.224 25.6187 129.237 25.3033 129.25C23.6365 129.319 21.9216 129.39 20.9963 127.463C20.0029 125.393 21.1873 123.933 22.3461 122.505C22.5126 122.3 22.6785 122.095 22.8374 121.89C25.3731 118.608 27.907 115.324 30.441 112.041C38.5366 101.551 46.6322 91.0609 54.7847 80.6143C57.904 76.6162 59.3967 72.2373 59.3262 67.1628C59.2739 63.3946 59.2855 59.6252 59.2971 55.8559V55.8553V55.8553V55.8552V55.8551V55.8551V55.855V55.855V55.8549V55.8549C59.3107 51.4563 59.3243 47.0578 59.2362 42.6618C59.1841 40.1024 60.0147 39.4436 62.4239 39.5616C66.2614 39.7484 70.1193 39.7401 73.9578 39.5637C76.2127 39.458 76.7378 40.3056 76.7133 42.4135C76.6656 46.4398 76.6742 50.467 76.6828 54.4943C76.692 58.7455 76.7011 62.9967 76.6439 67.2469C76.5765 72.3276 78.1202 76.686 81.2373 80.68C88.5438 90.0446 95.8018 99.4469 103.06 108.849C106.501 113.307 109.942 117.765 113.388 122.218C113.477 122.333 113.566 122.447 113.656 122.561L113.657 122.562C114.809 124.031 115.968 125.507 114.936 127.541C114.019 129.347 112.375 129.295 110.769 129.245H110.769H110.768C110.501 129.236 110.235 129.228 109.974 129.228C99.6595 129.234 89.3455 129.233 79.0315 129.232ZM67.9306 125.261C65.0821 125.26 62.2334 125.259 59.3848 125.258H59.3843H59.3838H59.3834H59.3829H59.3825H59.382H59.3816C50.2689 125.254 41.1558 125.251 32.0427 125.236C31.8196 125.235 31.5914 125.244 31.3621 125.253C30.0602 125.302 28.7202 125.352 28.0478 123.77C27.44 122.341 28.2513 121.334 29.0449 120.35C29.1516 120.217 29.2581 120.085 29.3608 119.952C31.256 117.5 33.1546 115.051 35.0532 112.602L35.0537 112.601C39.4189 106.97 43.7842 101.338 48.1087 95.6742C49.294 94.1216 50.6211 93.4802 52.5654 93.4945C62.8824 93.5684 73.1985 93.5643 83.5146 93.5161C85.3127 93.5089 86.6021 94.0406 87.7249 95.5131C92.4401 101.693 97.1975 107.84 101.955 113.988L101.958 113.992L101.962 113.996L101.965 114.001L101.968 114.005L101.972 114.009C103.534 116.028 105.096 118.046 106.657 120.066C106.739 120.172 106.822 120.278 106.906 120.383C107.716 121.406 108.538 122.444 107.875 123.898C107.212 125.35 105.94 125.316 104.697 125.284C104.513 125.279 104.329 125.274 104.148 125.274C93.6001 125.275 83.0525 125.269 72.5049 125.264L72.4683 125.264L67.9306 125.261ZM67.9995 18.8885C71.8518 18.8885 75.1628 16.5614 76.6156 13.2313C105.153 16.939 128.289 39.8314 131.374 70.8037C133.061 87.7506 128.185 103.045 117.705 116.505C116.439 118.13 115.764 118.316 114.39 116.52C106.873 106.681 99.2934 96.8892 91.7139 87.0974C89.1858 83.8314 86.6577 80.5654 84.1319 77.2976C81.972 74.5032 80.8777 71.3609 80.891 67.7969C80.8966 66.4356 80.9036 65.0742 80.9106 63.7128V63.7125V63.7121V63.7119V63.7114V63.7112V63.7105C80.9465 56.686 80.9825 49.6611 80.8379 42.6413C80.7848 40.0726 81.6011 39.2548 84.0011 39.5924C84.6214 39.6795 85.2576 39.6551 85.8926 39.6307C86.1403 39.6212 86.3877 39.6117 86.634 39.6089C88.2227 39.5904 90.023 39.5544 90.0147 37.4302C90.0076 35.3952 88.3667 35.191 86.6809 35.2053C82.7723 35.2374 78.8624 35.2321 74.9527 35.2268C73.4798 35.2248 72.0069 35.2228 70.5341 35.2228H67.8981C66.1558 35.2225 64.4135 35.2238 62.6712 35.2251H62.6691H62.669H62.6688H62.6687H62.6686H62.6684C58.2595 35.2283 53.8509 35.2315 49.4423 35.2095C47.823 35.2022 46.0625 35.2156 45.9614 37.2639C45.8517 39.5208 47.6243 39.565 49.2445 39.6054C49.3283 39.6075 49.4117 39.6096 49.4944 39.6119C55.0667 39.773 55.0667 39.7751 55.0667 45.4449V45.448C55.0667 47.5941 55.0613 49.7401 55.0559 51.8861V51.8863V51.8865V51.8867V51.8868V51.887V51.8872C55.043 57.0234 55.03 62.1592 55.0912 67.2951C55.1393 71.2266 53.9388 74.6294 51.5582 77.701C50.2116 79.4376 48.8647 81.174 47.5178 82.9104L47.5173 82.9111L47.5169 82.9117L47.5164 82.9123L47.5159 82.913L47.5154 82.9136L47.5149 82.9143C38.8772 94.0499 30.239 105.186 21.6849 116.387C20.23 118.293 19.5231 118.113 18.1672 116.38C-11.4281 78.527 8.80243 23.7046 55.0085 14.0981C56.4856 13.7911 57.9583 13.5359 59.4287 13.3312C60.9041 16.6082 64.1868 18.8885 67.9995 18.8885ZM120.261 88.9288C120.202 89.5486 115.967 93.4729 115.65 93.17C114.191 91.7796 112.791 90.3161 111.493 88.7728C111.215 88.4412 115.393 84.3333 115.937 84.361C116.536 84.3897 120.314 88.3787 120.261 88.9288ZM21.0925 87.1902C20.7912 87.5433 24.9607 91.5732 25.5553 91.5403C26.1755 91.5055 29.9895 87.5925 29.9435 87.0384C29.8893 86.3897 25.6626 82.5414 25.306 82.8678C23.8174 84.2183 22.3942 85.6591 21.0925 87.1902ZM95.2988 71.6473C94.6818 71.6751 90.5449 67.6893 90.8525 67.3178C92.1326 65.7764 93.5364 64.3263 95.0138 62.9738C95.3908 62.63 99.5359 66.4394 99.592 67.1321C99.639 67.7211 95.9344 71.6177 95.2988 71.6473ZM27.0854 48.4558C27.4062 48.1008 23.4513 43.9333 22.8065 43.9036C22.2732 43.8789 18.307 47.7396 18.2968 48.2947C18.2846 48.9249 22.3927 52.9568 22.7789 52.6325C24.3084 51.3487 25.745 49.9377 27.0854 48.4558ZM109.886 40.0231C109.833 40.7302 105.938 44.3877 105.32 44.3096C104.607 44.2193 100.911 40.0426 101.261 39.6619C102.616 38.1862 104.069 36.7885 105.6 35.4965C105.94 35.2091 109.929 39.4546 109.886 40.0231ZM48.5059 29.9358C49.1208 29.9604 53.0156 26.1716 53.0074 25.5558C52.9982 24.9299 48.8706 20.9584 48.4986 21.2765C46.9795 22.5767 45.5389 23.9847 44.1994 25.4696C43.8786 25.8247 47.8499 29.909 48.5059 29.9358Z" fill="white"/>
</svg>
