<svg width="46" height="45" viewBox="0 0 46 45" fill="none" xmlns="http://www.w3.org/2000/svg">
<path fill-rule="evenodd" clip-rule="evenodd" d="M23.5099 2.38381C22.6577 2.38381 21.7917 2.4387 20.945 2.54986C15.6094 3.22507 10.8667 5.94099 7.57997 10.1898C4.29051 14.4346 2.85506 19.7113 3.53436 25.0389C4.81062 35.0599 13.3767 42.6148 23.455 42.6148C24.3072 42.6148 25.1745 42.5572 26.0253 42.4501C31.3527 41.7708 36.0982 39.0563 39.3822 34.8088C42.6757 30.5613 44.1139 25.2845 43.4332 19.9584C42.1556 9.94007 33.5937 2.38381 23.5099 2.38381M23.455 45C12.1759 45 2.59432 36.5503 1.16573 25.3408C0.405468 19.3806 2.0152 13.4794 5.69577 8.7269C9.37359 3.97713 14.6804 0.940073 20.639 0.183898C21.5941 0.0617566 22.5561 0 23.5099 0C34.7931 0 44.3747 8.4538 45.7978 19.6565C46.5567 25.618 44.9497 31.5178 41.2732 36.269C37.5954 41.0229 32.2886 44.0586 26.3259 44.8175C25.3762 44.9382 24.4046 45 23.455 45" fill="black"/>
<path fill-rule="evenodd" clip-rule="evenodd" d="M36.9524 28H10.0093C9.44454 28 8.98157 27.5544 8.98157 26.9967C8.98157 26.4443 9.44454 26 10.0093 26H36.9524C37.5172 26 37.9816 26.4443 37.9816 26.9967C37.9816 27.5544 37.5172 28 36.9524 28" fill="black"/>
<path fill-rule="evenodd" clip-rule="evenodd" d="M36.9502 19H10.0075C9.44298 19 8.98157 18.5504 8.98157 17.9993C8.98157 17.4509 9.44298 17 10.0075 17H36.9502C37.5188 17 37.9816 17.4509 37.9816 17.9993C37.9816 18.5504 37.5188 19 36.9502 19" fill="black"/>
<path fill-rule="evenodd" clip-rule="evenodd" d="M10.9816 18.0419V26.9636C10.9816 27.5339 10.5283 28 9.97893 28C9.42426 28 8.98157 27.5339 8.98157 26.9636V18.0419C8.98157 17.4647 9.42426 17 9.97893 17C10.5283 17 10.9816 17.4647 10.9816 18.0419" fill="black"/>
<path fill-rule="evenodd" clip-rule="evenodd" d="M37.9816 18.0419V26.9636C37.9816 27.5339 37.5357 28 36.9789 28C36.4288 28 35.9816 27.5339 35.9816 26.9636V18.0419C35.9816 17.4647 36.4288 17 36.9789 17C37.5357 17 37.9816 17.4647 37.9816 18.0419" fill="black"/>
<path fill-rule="evenodd" clip-rule="evenodd" d="M13.424 11.0248C12.6236 11.0248 11.9738 11.6875 11.9738 12.4993C11.9738 13.318 12.6236 13.9779 13.424 13.9779H33.5445C34.3395 13.9779 34.992 13.318 34.992 12.4993C34.992 11.6875 34.3395 11.0248 33.5445 11.0248H13.424ZM33.5445 16H13.424C11.5259 16 9.98157 14.4338 9.98157 12.4993C9.98157 10.5703 11.5259 9 13.424 9H33.5445C35.4373 9 36.9816 10.5703 36.9816 12.4993C36.9816 14.4338 35.4373 16 33.5445 16V16Z" fill="black"/>
<path fill-rule="evenodd" clip-rule="evenodd" d="M13.424 31.024C12.6236 31.024 11.9738 31.6837 11.9738 32.4993C11.9738 33.3136 12.6236 33.976 13.424 33.976H33.5445C34.3395 33.976 34.992 33.3136 34.992 32.4993C34.992 31.6837 34.3395 31.024 33.5445 31.024H13.424ZM33.5445 36H13.424C11.5259 36 9.98157 34.4303 9.98157 32.4993C9.98157 30.5711 11.5259 29 13.424 29H33.5445C35.4373 29 36.9816 30.5711 36.9816 32.4993C36.9816 34.4303 35.4373 36 33.5445 36V36Z" fill="black"/>
</svg>
