<svg width="136" height="144" viewBox="0 0 136 144" fill="none" xmlns="http://www.w3.org/2000/svg">
<path fill-rule="evenodd" clip-rule="evenodd" d="M67.9994 0C63.8709 0 60.3832 2.78454 59.2622 6.60386C25.88 10.9644 0 39.9835 0 75.0194C0 113.056 30.5042 144 67.9994 144C105.496 144 136 113.056 136 75.0194C136 39.9874 110.125 10.9707 76.7378 6.60398C75.6168 2.78454 72.1291 0 67.9994 0ZM3.96207 75.0195C3.96207 42.2968 27.9342 15.1481 58.9959 10.6968C59.6806 15.1159 63.4513 18.4964 67.9994 18.4964C72.5487 18.4964 76.3194 15.1159 77.0053 10.6969C108.066 15.1481 132.038 42.2968 132.038 75.0195C132.038 110.839 103.311 139.981 67.9994 139.981C32.6891 139.981 3.96207 110.839 3.96207 75.0195ZM68.9991 122.697C59.746 122.697 50.355 122.686 40.8914 122.664C35.9772 122.653 32.9233 119.505 32.9209 114.443C32.9102 90.0365 32.9043 65.6302 32.9007 41.2247C32.8995 36.0797 35.9225 32.9775 40.9841 32.9272C41.3823 32.9227 41.7811 32.9232 42.2126 32.9238H42.2128H42.2129H42.2131H42.2133H42.2135H42.2136H42.2138H42.214H42.2142L42.5175 32.9241L42.6745 32.9242L43.1869 32.9251L43.1881 31.6721C43.1904 30.4059 43.1916 29.2271 43.1833 28.0473C43.1774 27.2233 43.3759 26.6234 43.7884 26.2103C44.2032 25.7973 44.8285 25.6074 45.6083 25.6264C47.5293 25.6747 49.5751 25.6828 52.2439 25.6536C52.9631 25.6396 53.555 25.8395 53.945 26.2305C54.3467 26.6354 54.5417 27.2173 54.5405 28.0111C54.5387 28.8878 54.5389 29.765 54.5392 30.68V30.6821V30.6842V30.6863V30.6885V30.6907V30.6929V30.6951V30.6974V30.6997L54.5393 31.654V32.9282H61.5184C61.5196 32.5443 61.522 32.1645 61.5243 31.7876C61.5327 30.5908 61.5398 29.429 61.5065 28.2674C61.4804 27.3398 61.6801 26.6736 62.1187 26.2284C62.5514 25.7903 63.1993 25.5893 64.0801 25.6174C66.0732 25.6827 68.1067 25.6632 70.0726 25.6444H70.0727L70.1653 25.6436L70.5397 25.6396C71.2946 25.6566 71.858 25.8224 72.2491 26.2203C72.6426 26.6243 72.8281 27.2052 72.8138 27.999C72.7923 29.1334 72.7967 30.2668 72.8012 31.4447V31.4453L72.8019 31.6178L72.8043 32.7795H79.8357C79.838 32.437 79.8416 32.0964 79.8451 31.7558L79.8452 31.7494L79.8461 31.6509C79.8565 30.5145 79.8664 29.4368 79.8178 28.3438C79.7762 27.3991 79.9712 26.7198 80.4146 26.2686C80.8627 25.8103 81.5534 25.6063 82.5163 25.6436C84.5407 25.724 86.5556 25.6807 88.6133 25.6285C89.4763 25.6074 90.1147 25.8033 90.5355 26.2354C90.9516 26.6625 91.1406 27.2876 91.112 28.1488C91.0732 29.3025 91.081 30.4592 91.0892 31.6824L91.0895 31.7173C91.093 32.1132 91.0954 32.5142 91.0978 32.9232H91.811C92.6634 32.9202 93.455 32.9191 94.2467 32.9261C99.1075 32.9643 102.242 36.1187 102.233 40.9635V40.967C102.23 42.6499 102.229 43.5414 103.877 44.1319C105.177 44.5982 106.333 46.3177 106.559 47.5687C106.803 48.9265 107.414 49.256 108.653 49.64C109.87 50.0188 110.547 50.3223 110.858 50.9322C111.195 51.5915 110.966 52.4275 110.632 53.4536C110.25 54.6259 109.867 55.7971 109.483 56.9685L109.481 56.9751L109.057 58.2682L108.914 58.7037C108.108 61.1622 107.302 63.6211 106.512 66.0843C106.284 66.7988 105.982 67.5887 105.293 67.9254C104.872 68.1324 104.374 68.1294 103.814 67.9173C102.164 67.2925 102.659 65.7818 102.955 64.8783L102.955 64.8775C103.705 62.5923 104.447 60.3033 105.194 57.9968L105.195 57.9943L105.196 57.9907L105.197 57.989L105.767 56.2312L106.778 53.1019L106.005 52.7703C105.846 53.2687 105.693 53.7631 105.542 54.2535L105.534 54.2798C105.079 55.7523 104.65 57.1438 104.109 58.5275C102.765 61.9592 102.159 65.7005 102.197 70.302C102.292 81.8053 102.272 93.5007 102.253 104.815V104.816V104.817V104.818V104.818V104.819V104.82V104.821V104.822V104.827L102.253 104.987L102.239 114.38C102.234 119.482 99.1289 122.658 94.1374 122.669C85.9149 122.688 77.5164 122.697 68.9991 122.697ZM37.7484 37.805C38.4723 37.0774 39.7395 36.7629 41.966 36.7629C42.0481 36.7629 42.1313 36.7629 42.2157 36.764C42.4831 36.767 42.7518 36.767 43.1037 36.7659H43.1976L43.2011 37.7779C43.2083 38.816 43.2142 39.7767 43.1881 40.7354C43.1631 41.6649 43.3687 42.3372 43.8145 42.7945C44.252 43.2406 44.8939 43.4737 45.7522 43.4325C47.8573 43.3903 50.0068 43.4182 51.9168 43.443L52.043 43.4447C52.8715 43.4587 53.5063 43.2406 53.9331 42.8055C54.361 42.3714 54.5714 41.7233 54.5583 40.8791C54.5429 39.8632 54.5453 38.8461 54.55 37.793L54.5512 36.8816H61.5481L61.5529 37.7407C61.5588 38.7758 61.5636 39.8199 61.5386 40.8641C61.5172 41.7353 61.7145 42.3703 62.1401 42.8055C62.5657 43.2386 63.1696 43.4637 64.0278 43.4245C66.2638 43.3793 68.3216 43.3743 70.3151 43.4115C71.1876 43.4345 71.8153 43.2175 72.2444 42.7713C72.6854 42.3131 72.8792 41.6338 72.8388 40.6941C72.7983 39.7394 72.8079 38.7858 72.8186 37.777L72.8211 37.4887L72.8212 37.4857L72.8212 37.4827L72.8212 37.4796C72.8231 37.2841 72.8249 37.0875 72.8257 36.8895H79.8119L79.8131 37.78L79.8132 37.7962C79.8179 38.8275 79.8225 39.8322 79.8036 40.8389C79.7857 41.7322 79.989 42.3805 80.4241 42.8236C80.8449 43.2527 81.4369 43.4567 82.2666 43.4406C84.1449 43.4085 86.2014 43.4025 88.7369 43.4206H88.7667C89.5417 43.4206 90.1123 43.2195 90.5105 42.8075C90.9207 42.3814 91.1109 41.7634 91.0859 40.9193C91.0576 39.9164 91.0644 38.9116 91.0715 37.8664L91.0716 37.8412L91.0752 36.8956C91.4689 36.8916 91.8568 36.8805 92.2411 36.8696L92.2437 36.8695C93.4289 36.8353 94.5523 36.8051 95.6435 36.9389C97.0855 37.1167 98.2552 38.412 98.424 40.0199C98.5298 41.0178 98.5393 42.1182 98.4525 43.4818C98.4455 43.599 98.2654 43.83 98.1327 44.0003L98.128 44.0064C98.04 44.1179 97.9544 44.2285 97.8807 44.3401C97.6369 44.7053 97.3628 45.0593 97.0889 45.4129L97.0652 45.4435L97.0584 45.4523C96.4364 46.2574 95.7933 47.0899 95.4581 48.0612C93.6964 53.1601 91.9049 58.6751 89.6523 65.9437C89.3064 67.0571 88.8974 67.3505 87.6754 67.3505H87.6421C76.5345 67.3023 65.238 67.3053 54.3194 67.3093L45.5929 67.3113C45.4971 67.3113 45.3965 67.3023 45.2937 67.2931H45.2936H45.2935H45.2934H45.2934H45.2933H45.2932L45.2929 67.2931L45.2612 67.2902L45.2423 67.2886C44.8748 67.2569 44.4588 67.2209 44.1141 67.4521C43.6742 67.7488 43.3183 68.1344 42.9732 68.5083L42.9705 68.5112C42.8386 68.655 42.7054 68.7986 42.5699 68.9353L42.2062 69.3001L42.5759 69.6568C42.6949 69.771 42.8091 69.893 42.9229 70.0146L42.9634 70.0578C43.2962 70.4156 43.641 70.7854 44.0867 71.0376C44.4731 71.2567 44.9272 71.2195 45.3266 71.1853L45.3536 71.183L45.3539 71.1829C45.4743 71.1726 45.5943 71.1623 45.7082 71.1623H87.868L87.3604 72.746C86.5568 75.2673 85.796 77.65 84.9877 79.9442C84.8771 80.0456 84.3053 80.2024 83.7704 80.2045C76.2124 80.2246 68.6556 80.2216 61.0952 80.2165L53.0011 80.2075C50.3954 80.1973 47.6969 80.1894 45.0425 80.2517C44.3019 80.2698 43.2463 80.6486 42.753 81.3148C42.3702 81.8304 42.2906 82.4143 42.5354 82.9147C42.8742 83.6051 43.7527 84.0191 44.8868 84.0232C48.6431 84.0356 52.3966 84.0355 56.1557 84.0353H56.1559H56.1562H56.1564H56.1566H56.1569H56.1571H56.1574H56.1644L57.5338 84.0352L60.8313 84.0341L83.6931 84.0352L83.1665 85.6812L83.1255 85.8095C82.3431 88.2593 81.6033 90.5756 80.7831 92.8442C80.6702 92.9759 80.0306 93.186 79.485 93.1869C71.1686 93.208 62.851 93.202 54.5346 93.196L46.551 93.1899C46.3537 93.1899 46.1551 93.1829 45.9554 93.1749L45.918 93.1737C45.2712 93.1528 44.607 93.1315 43.9726 93.3266C43.3105 93.5287 42.5033 94.3808 42.5093 95.0853C42.514 95.7807 43.3129 96.6077 43.9714 96.8308C44.5706 97.0337 45.2113 97.0096 45.8259 96.9865L45.8295 96.9863C46.0161 96.9794 46.2015 96.9725 46.3834 96.9725C55.384 96.9695 64.3858 96.9618 73.3854 96.954L73.4173 96.954L74.018 96.9534L79.9165 96.9493C79.9973 97.5081 80.0758 98.0618 80.1531 98.6105L80.1546 98.6217C80.4073 100.409 80.6459 102.098 80.9781 103.804C81.1076 104.468 81.4417 105.057 81.765 105.626C81.9005 105.864 82.0348 106.102 82.1525 106.342L82.3772 106.805L82.8265 106.566C83.0512 106.446 83.2806 106.336 83.5101 106.227C84.0367 105.975 84.5787 105.715 85.0637 105.348C89.0591 102.326 91.6743 98.0919 93.291 92.0283C94.7044 86.7284 96.6052 81.4454 98.4917 76.3104C98.4965 87.1223 98.4977 97.9342 98.4977 108.745V114.28C98.4977 115.873 98.1351 117.011 97.3898 117.76C96.6432 118.508 95.5139 118.873 93.9341 118.873L41.5488 118.869C39.6884 118.869 38.4783 118.518 37.7413 117.767C37.0054 117.019 36.6654 115.797 36.6654 113.917C36.6726 96.8598 36.6761 79.8035 36.6785 62.7461L36.6821 42.278C36.6821 39.8922 37.0019 38.5546 37.7484 37.805ZM78.2951 109.702H78.2309C74.7317 109.692 71.2325 109.692 67.734 109.692L65.6362 109.693L60.9407 109.694V109.67L57.2282 109.67C53.1509 109.666 49.0711 109.664 44.9926 109.68L44.9575 109.679C44.147 109.675 42.4851 109.665 42.4605 107.841C42.4534 107.294 42.6091 106.856 42.9194 106.534C43.4246 106.016 44.2068 105.943 44.9759 105.941C56.0573 105.927 67.1376 105.914 78.2178 105.913C78.8657 105.913 79.6752 105.983 80.1864 106.528C80.5097 106.87 80.6607 107.344 80.6321 107.934C80.5549 109.654 79.0202 109.702 78.2951 109.702ZM84.316 100.625L83.7645 97.293L86.6305 98.2357L84.316 100.625ZM84.5859 93.4944L88.3875 94.7597L101.697 53.8083L97.92 52.515L84.5859 93.4944ZM88.7928 58.219C88.964 58.235 89.1447 58.2501 89.3266 58.2501C89.6035 58.2501 89.8817 58.212 90.1337 58.0752C90.6005 57.8212 90.9509 57.4278 91.2905 57.0467L91.307 57.0282C91.4366 56.8795 91.5673 56.7318 91.7052 56.594L92.0773 56.2212L91.6886 55.8635C91.5709 55.7559 91.4579 55.6387 91.3445 55.5212L91.3034 55.4786C90.9694 55.1289 90.6247 54.7692 90.167 54.551C89.7438 54.349 89.2588 54.3863 88.8356 54.4194L88.8239 54.4203C88.6805 54.431 88.5394 54.4415 88.4017 54.4415L45.5287 54.4466C45.4281 54.4466 45.3225 54.4388 45.2162 54.431L45.1542 54.4264C44.7536 54.3923 44.2936 54.3561 43.9072 54.5812C43.679 54.7138 42.5402 55.4162 42.5212 56.2765C42.4986 57.1668 43.7052 57.9426 43.8442 58.0281C44.2302 58.266 44.6967 58.2321 45.1112 58.202L45.1126 58.2019L45.1491 58.1992C45.2603 58.1909 45.3703 58.1828 45.4764 58.1828L88.347 58.1909C88.4898 58.1909 88.6384 58.2047 88.7894 58.2187L88.7895 58.2187L88.7928 58.219ZM99.2062 48.9395L102.766 50.1354C103.045 49.3103 103.074 48.621 102.85 48.1245C102.661 47.7025 102.273 47.3929 101.701 47.203C101.166 47.0262 100.698 47.0452 100.315 47.2633C99.8469 47.5286 99.4665 48.1044 99.2062 48.9395ZM87.2047 39.5918H83.7419V29.5326H87.2047V39.5918ZM47.0146 39.5385H50.6403V29.5386H47.0146V39.5385ZM68.9266 39.5345H65.4198V29.5345H68.9266V39.5345Z" fill="white"/>
</svg>
