<svg width="135" height="143" viewBox="0 0 135 143" fill="none" xmlns="http://www.w3.org/2000/svg">
<path fill-rule="evenodd" clip-rule="evenodd" d="M58.8264 6.558C59.9392 2.7652 63.4013 0 67.4994 0C71.5987 0 75.0608 2.7652 76.1736 6.55812C109.315 10.8945 135 39.7097 135 74.4985C135 112.27 104.72 143 67.4994 143C30.2799 143 0 112.27 0 74.4985C0 39.7058 25.6897 10.8883 58.8264 6.558ZM58.5609 10.6225C27.7288 15.0429 3.93293 42.0031 3.93293 74.4985C3.93293 110.069 32.4488 139.009 67.4994 139.009C102.551 139.009 131.067 110.069 131.067 74.4985C131.067 42.0031 107.271 15.0429 76.4391 10.6226C75.7582 15.011 72.0153 18.368 67.4994 18.368C62.9847 18.368 59.2418 15.011 58.5609 10.6225ZM68.9697 115.2L73.377 102.5L81.4836 104.376L78.3542 117.22L74.9405 110.149L68.9697 115.2ZM90.1577 102.5L94.5662 115.2L88.593 110.149L85.1793 117.22L82.0523 104.376L90.1577 102.5ZM38.1611 99.8832V47.3786L49.7381 48.4465L51.7122 35.2987H88.7169C92.1484 35.2987 94.9403 38.1319 94.9403 41.6137V99.8832H97.8903V41.6137C97.8903 36.4813 93.7744 32.3049 88.7169 32.3049H44.3844C39.327 32.3049 35.2111 36.4813 35.2111 41.6137V99.8832C35.2111 105.016 39.327 109.192 44.3844 109.192H66.9767V106.198H44.3844C40.953 106.198 38.1611 103.365 38.1611 99.8832ZM80.7496 83.7582L83.6335 89.688L90.081 90.6391L85.4153 95.2555L86.5163 101.773L80.7496 98.6954L74.9818 101.773L76.0839 95.2555L71.4182 90.6391L77.8657 89.688L80.7496 83.7582ZM68.8316 96.5485H46.2146V98.5693H68.8316V96.5485ZM46.2146 90.7785H68.8316V92.7993H46.2146V90.7785ZM68.8316 85.3926H46.2146V87.4134H68.8316V85.3926ZM46.2134 79.3661H86.1752V81.3859H46.2134V79.3661ZM86.1752 73.596H46.2134V75.6158H86.1752V73.596ZM46.2134 68.2111H86.1752V70.2309H46.2134V68.2111ZM86.1752 62.5678H46.2134V64.5886H86.1752V62.5678ZM46.2134 57.1829H86.1752V59.2027H46.2134V57.1829ZM44.3844 35.2987H48.728L47.2388 45.2092L38.1611 44.3721V41.6137C38.1611 38.1319 40.953 35.2987 44.3844 35.2987Z" fill="white"/>
</svg>
