<svg width="83" height="79" viewBox="0 0 83 79" fill="none" xmlns="http://www.w3.org/2000/svg">
<path fill-rule="evenodd" clip-rule="evenodd" d="M5.22147 34.9988H0L3.72801 39.5661L7.45593 44.1341L11.1839 39.5661L14.912 34.9988H8.77178C10.9658 17.3029 25.9209 3.56881 43.9845 3.56881C63.5543 3.56881 79.4751 19.6875 79.4751 39.5C79.4751 59.3125 63.5543 75.4312 43.9845 75.4312C34.1986 75.4312 24.7504 71.2793 18.0614 64.0404L15.4868 66.4785C22.8398 74.4363 33.2264 79 43.9845 79C65.498 79 83 61.2803 83 39.5C83 17.7197 65.498 0 43.9845 0C23.9749 0 7.43504 15.3301 5.22147 34.9988ZM8.49472 39.5L8.77178 34.9988C8.58893 36.4736 8.49472 37.9759 8.49472 39.5ZM42.2492 15.2777V35.2793C40.6173 35.968 39.47 37.5984 39.47 39.5002C39.47 42.0247 41.4919 44.071 43.9848 44.071C45.8634 44.071 47.4739 42.9095 48.154 41.257H67.8169C68.6494 41.257 69.3312 40.5676 69.3312 39.7246V39.2757C69.3312 38.4327 68.6494 37.7432 67.8169 37.7432H48.154C47.6966 36.6316 46.818 35.7422 45.7199 35.279V15.2777C45.7199 14.434 45.0396 13.7446 44.2063 13.7446H43.7636C42.9303 13.7446 42.2492 14.434 42.2492 15.2777Z" fill="#C3C4C4"/>
</svg>
