<svg width="80" height="80" viewBox="0 0 80 80" fill="none" xmlns="http://www.w3.org/2000/svg">
<path fill-rule="evenodd" clip-rule="evenodd" d="M40 80C17.9443 80 0 62.0557 0 40C0 17.9435 17.9443 0 40 0C62.0557 0 80 17.9435 80 40C80 62.0557 62.0557 80 40 80ZM40 3.55778C19.9061 3.55778 3.55786 19.9061 3.55786 40C3.55786 60.0946 19.9061 76.4421 40 76.4421C60.0939 76.4421 76.4421 60.0946 76.4421 40C76.4421 19.9061 60.0939 3.55778 40 3.55778ZM49.9277 28.3587C50.4721 27.8247 51.0278 27.2796 51.8828 27.2259C51.7463 27.7026 51.4244 28.0412 51.0638 28.3661C46.3169 32.6448 42.9277 37.8164 40.8258 43.8505C40.2369 45.5409 39.9365 46.3789 40.2315 46.7984C40.5231 47.2132 41.397 47.2187 43.1497 47.2347C51.3541 47.3102 56.999 43.6719 60.0715 36.1606C61.3291 33.0873 62.1321 29.876 62.9352 26.6638C63.5749 24.1055 64.2148 21.5467 65.0845 19.0566C65.4106 18.1251 64.8777 18.0791 64.2174 18.0221L64.1751 18.0185C57.675 17.4556 51.2858 17.9644 45.1627 20.3169C37.5362 23.2478 32.7616 28.5112 32.3809 36.9974C32.2528 39.8678 32.4414 42.7625 35.0621 44.7492C35.4641 45.0538 35.8349 45.4735 35.6662 45.9852C35.1116 47.6666 34.7956 49.398 34.4795 51.1293C34.3491 51.8436 34.2188 52.558 34.0716 53.2688C33.9598 53.8082 33.4731 54.1355 33.276 53.5249C33.163 53.1738 32.9668 52.833 32.7692 52.4901C32.2555 51.5979 31.7333 50.6912 32.6456 49.5501C33.014 49.0879 32.9897 48.4564 32.9667 47.8584C32.9634 47.7715 32.96 47.6853 32.958 47.6005C32.8762 44.3073 30.5159 41.0156 27.2739 39.811C23.4344 38.385 19.5194 38.661 15.5965 39.4402C14.8194 39.5946 14.6422 39.8913 14.9788 40.6655C15.068 40.8703 15.1568 41.0752 15.2457 41.28C16.3166 43.75 17.386 46.2167 19.0077 48.3988C20.147 49.9337 21.5004 51.2145 23.2735 51.9972C25.6424 53.044 29.0778 52.6597 30.2668 51.196C30.685 51.8897 30.9757 52.6662 31.2624 53.4321C31.6489 54.4645 32.028 55.4774 32.7025 56.2417C33.639 57.3048 33.5839 58.2223 33.5224 59.2468C33.5134 59.3969 33.5042 59.5494 33.498 59.7049C33.4737 60.3148 33.4518 60.9249 33.43 61.535C33.3779 62.9898 33.3258 64.4448 33.2391 65.8977C33.1772 66.9245 33.3813 67.4133 34.5974 67.4261C35.8718 67.4382 36.1188 66.9537 36.1038 65.8223C36.0369 60.7011 36.5642 55.6283 37.6365 50.6224C39.446 42.1776 42.9128 34.6101 49.5055 28.7596C49.6487 28.6324 49.7879 28.4959 49.9277 28.3587ZM51.8828 27.2259L51.8885 27.2056C51.8878 27.2048 51.9297 27.1458 51.9297 27.1458L51.9027 27.2248L51.8828 27.2259Z" fill="#C3C4C4"/>
</svg>
