<svg width="88" height="85" viewBox="0 0 88 85" fill="none" xmlns="http://www.w3.org/2000/svg">
<path fill-rule="evenodd" clip-rule="evenodd" d="M1.64301 41.7326C1.64301 19.3468 19.788 1.14062 42.0902 1.14062C64.3923 1.14062 82.5373 19.3468 82.5303 41.7326C82.5303 64.1115 64.3853 82.3246 42.0831 82.3246C19.788 82.3246 1.64301 64.1185 1.64301 41.7326ZM67.7278 15.0895C61.0779 8.64017 52.0404 4.66485 42.0902 4.66485C21.7261 4.66485 5.15404 21.2921 5.15404 41.7326C5.15404 50.4093 8.14545 58.3881 13.1381 64.7106L20.2655 58.2401C20.4516 57.9361 20.6403 57.6322 20.83 57.3265L20.8304 57.3258C20.9485 57.1356 21.067 56.9448 21.1854 56.7529L20.9244 56.5551L20.7612 56.4313C20.4805 56.2185 20.1998 56.0056 19.9004 55.7802C19.149 56.6824 18.4117 57.5634 17.6323 58.4868C17.5089 58.387 17.3888 58.2923 17.2647 58.1944C17.1347 58.0917 17.0002 57.9856 16.8528 57.8665C17.5439 57.0302 18.2171 56.2118 18.9163 55.362L18.9166 55.3616L18.9174 55.3606L19.0999 55.1388C18.9351 54.9826 18.7716 54.829 18.6055 54.6729L18.6053 54.6728L18.6044 54.6719L18.6037 54.6713L18.6035 54.6711C18.3879 54.4686 18.1678 54.2617 17.9342 54.0392C17.807 54.1223 17.6774 54.2066 17.545 54.2927L17.5443 54.2932L17.5437 54.2936L17.5425 54.2944L17.5415 54.295C17.2147 54.5077 16.8706 54.7315 16.5017 54.9767L16.5012 54.976C16.3258 54.7295 16.1504 54.483 15.94 54.1802C16.197 53.9988 16.4472 53.8197 16.6996 53.6389C16.8886 53.5036 17.0788 53.3674 17.2741 53.2286C17.0623 52.9401 16.8546 52.6618 16.6454 52.3816C16.4663 52.1416 16.2861 51.9002 16.1015 51.6498C15.5829 51.9928 15.0758 52.3312 14.5657 52.6715C14.1848 52.9257 13.8023 53.181 13.412 53.4401C13.2224 53.1511 13.0539 52.8974 12.8573 52.6084C13.3172 52.2983 13.7649 51.9969 14.2125 51.6956C14.6602 51.3943 15.1078 51.093 15.5678 50.7828C15.427 50.5111 15.2899 50.243 15.1508 49.971C15.0194 49.714 14.8861 49.4534 14.7462 49.1828C14.1687 49.4691 13.6018 49.7519 13.0332 50.0355L13.0325 50.0358L13.0299 50.0371C12.4656 50.3186 11.8995 50.601 11.3194 50.8886C11.1649 50.6066 11.0245 50.3458 10.8489 50.0146C11.9553 49.4527 13.0307 48.9032 14.1274 48.3429L14.3459 48.2313C14.1915 47.8013 14.051 47.4066 13.8895 46.9485C13.5791 47.0346 13.2717 47.1201 12.9652 47.2053C12.2177 47.4132 11.4754 47.6196 10.7085 47.8295C10.6576 47.6423 10.6068 47.4628 10.5528 47.2723C10.5174 47.1473 10.4806 47.0176 10.4417 46.878C11.509 46.5679 12.5413 46.2648 13.6156 45.9476C13.5645 45.6517 13.5134 45.3609 13.4617 45.067L13.4616 45.0669C13.3927 44.6748 13.3227 44.2772 13.2505 43.8542C12.8887 43.9172 12.5347 43.9782 12.1742 44.0404C11.8489 44.0965 11.5184 44.1535 11.172 44.2137C11.1158 43.8683 11.0666 43.5793 11.0105 43.2551C11.3057 43.193 11.5886 43.1332 11.8671 43.0742L11.8689 43.0739L11.8698 43.0737C12.286 42.9856 12.6928 42.8996 13.1171 42.811V41.1758H9.5288V40.182C9.8404 40.1799 10.1514 40.1758 10.4621 40.1718H10.4624H10.4626H10.4629H10.4632H10.4634H10.4637H10.4639H10.4642C11.1891 40.1624 11.9126 40.1531 12.6396 40.1679C13.0679 40.1749 13.2786 40.0692 13.3558 39.6181C13.4004 39.345 13.5007 39.0788 13.6076 38.795C13.6525 38.676 13.6985 38.5539 13.742 38.4269C13.2997 38.1168 12.8432 37.7996 12.3517 37.4613C12.4413 37.3264 12.5275 37.1983 12.6153 37.0678L12.6157 37.0672C12.7067 36.932 12.7994 36.7942 12.8994 36.6437C13.0459 36.7395 13.189 36.8332 13.3312 36.9264L13.3324 36.9272L13.3335 36.9279L13.3361 36.9296C13.6419 37.13 13.9439 37.3279 14.2687 37.5388C14.4525 37.3401 14.63 37.1446 14.8182 36.9373C14.9103 36.8358 15.0051 36.7314 15.1043 36.6225C14.81 36.2653 14.5178 35.9102 14.2237 35.5529C13.7459 34.9723 13.2632 34.3858 12.759 33.7749C12.9791 33.5908 13.1886 33.4174 13.4245 33.222L13.4256 33.2211L13.4258 33.2209L13.4261 33.2207L13.5314 33.1335C14.3389 34.0992 15.1043 35.0155 15.8627 35.9247C16.5649 35.8049 16.7966 35.4313 16.7615 34.7476C16.7223 33.9747 16.731 33.2019 16.7398 32.4194C16.7437 32.0815 16.7475 31.7418 16.7475 31.3996H17.7306V35.1212C18.044 35.0977 18.3439 35.0754 18.6411 35.0533L18.6469 35.0529L18.6568 35.0521C19.0668 35.0216 19.472 34.9915 19.9004 34.9591C20.0408 34.3106 20.1883 33.6269 20.3498 32.8727C20.4784 32.8916 20.6069 32.9091 20.7436 32.9277L20.7437 32.9277C20.9131 32.9507 21.095 32.9755 21.3048 33.0067C21.2381 33.3731 21.1749 33.7273 21.1117 34.0814C21.0485 34.4356 20.9853 34.7899 20.9186 35.1564L20.9241 35.1588C21.3857 35.3553 21.8474 35.552 22.33 35.7556C22.5677 35.4618 22.8029 35.1716 23.0372 34.8825C23.3707 34.4711 23.7023 34.062 24.0364 33.6481C24.3032 33.8525 24.542 34.0428 24.8159 34.2613C24.2752 34.945 23.7415 35.6216 23.1938 36.3194C23.3545 36.4874 23.5072 36.6491 23.6611 36.8119L23.6612 36.8121L23.6627 36.8137L23.6637 36.8147L23.6638 36.8148C23.8317 36.9926 24.0011 37.1718 24.1839 37.3626C25.3566 36.7846 26.5292 36.1996 27.7721 35.5793C27.9266 35.8683 28.0741 36.1432 28.2496 36.4604C27.077 37.0595 25.9464 37.6304 24.7807 38.2155L24.7809 38.2161C24.9775 38.8079 25.167 39.3787 25.3917 40.041C26.1992 39.9141 27.0208 39.7873 27.9126 39.6533C27.9758 39.9423 28.039 40.2313 28.1233 40.6049C27.2244 40.774 26.3748 40.9291 25.4759 41.0912C25.4338 42.1978 25.7357 43.1705 26.459 44.2207C26.6134 44.0179 26.761 43.8253 26.9063 43.6355L26.9065 43.6353L26.9067 43.6351L26.9077 43.6338C27.1256 43.3493 27.3385 43.0714 27.5615 42.7758C27.778 42.9889 27.9402 43.1475 28.1022 43.306L28.103 43.3068L28.1037 43.3075C28.2145 43.4158 28.3252 43.5241 28.4533 43.6498C28.2186 43.8377 27.9953 44.0154 27.779 44.1877C27.5164 44.3968 27.264 44.5977 27.0138 44.7987C27.0204 44.8451 27.0254 44.8899 27.0304 44.9339C27.036 44.9835 27.0414 45.0321 27.0489 45.0806C27.3369 45.2229 27.6242 45.3644 27.9124 45.5064C28.5096 45.8006 29.1109 46.0967 29.7313 46.4058C30.2536 45.4706 30.7435 44.5928 31.2263 43.7278L32.2101 41.9652L32.3281 42.0325C32.5871 42.1802 32.8172 42.3114 33.0738 42.4586C32.6926 43.1589 32.3175 43.8405 31.9453 44.517L31.9452 44.5172L31.9447 44.5182L31.9446 44.5182L31.9439 44.5196C31.631 45.0882 31.3202 45.6531 31.0093 46.2225C31.3978 46.3029 31.7772 46.3833 32.1565 46.4637L32.1585 46.4641L32.1589 46.4642C32.4439 46.5246 32.7288 46.585 33.0176 46.6454L35.2647 44.6014C35.2717 44.5802 35.2858 44.5591 35.2998 44.5379C35.3033 44.5414 35.3068 44.5432 35.3103 44.545L35.3146 44.5472L35.318 44.5495L35.3209 44.552L37.3783 42.6842H36.8728C36.7263 42.3624 36.7514 41.9895 36.7765 41.6181C36.821 40.9563 36.8653 40.299 35.9388 39.9423C35.7736 40.046 35.5961 40.1546 35.4037 40.2723C35.2691 40.3547 35.1271 40.4416 34.9768 40.5344C34.831 40.3003 34.6949 40.0904 34.5484 39.8645L34.548 39.8639L34.4572 39.7238C34.6486 39.5889 34.8282 39.4588 35.007 39.3292L35.0078 39.3286C35.1369 39.235 35.2657 39.1417 35.3981 39.0472C35.3085 38.6297 35.2248 38.2181 35.1097 37.6524L35.0751 37.4824C34.8539 37.7849 34.672 38.0375 34.5025 38.2729L34.5019 38.2737L34.5008 38.2752C34.3589 38.4723 34.2256 38.6574 34.085 38.8498C33.8182 38.6736 33.5654 38.5044 33.2915 38.3212C33.3702 38.1894 33.4441 38.065 33.5152 37.9453L33.5155 37.9448C33.6155 37.7765 33.7098 37.6177 33.8041 37.4613C33.3403 36.9477 32.8993 37.1237 32.4478 37.3039C32.2363 37.3884 32.0224 37.4737 31.8028 37.4895C31.7045 37.2075 31.6062 36.9256 31.4938 36.6014C31.8098 36.4674 32.1048 36.3476 32.3927 36.2348C32.3594 35.3722 31.8093 35.2669 31.2655 35.1627C31.005 35.1129 30.746 35.0633 30.5459 34.9309C30.6863 34.0569 30.6863 34.0569 32.3576 34.3318C32.3927 33.782 32.4278 33.2534 32.4629 32.7247C32.4278 32.7177 32.3927 32.7089 32.3577 32.7001L32.3576 32.7C32.3225 32.6912 32.2873 32.6824 32.2522 32.6754L32.2917 32.6482L32.3333 32.6193L32.3333 32.6193C32.4376 32.5469 32.5393 32.4763 32.6455 32.4146C32.7277 32.3687 32.8129 32.3318 32.9088 32.2903C32.9603 32.268 33.0149 32.2443 33.0738 32.2172L33.0745 32.2183C33.1867 32.38 33.2988 32.5419 33.4249 32.7247C33.6028 32.6533 33.777 32.5856 33.9556 32.5162L33.9562 32.5159L33.9569 32.5157L33.9577 32.5153L33.959 32.5148L33.9593 32.5147L33.9606 32.5142L33.9607 32.5142L33.9608 32.5141L34.1622 32.4357C34.1744 32.2438 34.1843 32.0542 34.1945 31.8574L34.1945 31.857L34.1946 31.8554C34.202 31.7132 34.2096 31.5672 34.2184 31.4137H35.1594C35.1696 31.5315 35.1798 31.6456 35.19 31.7596C35.2079 31.9595 35.2258 32.1594 35.2436 32.3793C35.6294 32.4216 36.0011 32.4638 36.3729 32.5061L36.3742 32.5062C36.5287 32.2384 36.6691 31.9917 36.8376 31.6956C36.9854 31.7644 37.1276 31.8331 37.2737 31.9037L37.2741 31.9039C37.4126 31.9708 37.5547 32.0395 37.7084 32.1115C37.6278 32.3002 37.5555 32.4765 37.4882 32.6404L37.4275 32.7882C37.9612 33.3661 38.4527 33.3591 38.9864 32.8234C39.1852 32.6238 39.4224 32.4595 39.6741 32.285L39.6742 32.2849L39.6744 32.2849L39.6744 32.2848C39.796 32.2006 39.921 32.114 40.0467 32.0199C40.2434 32.2877 40.4189 32.5203 40.6436 32.8163L40.3832 33.0158L40.3831 33.0158L40.3815 33.017L40.3803 33.0179C39.9436 33.3524 39.5239 33.6737 39.0847 34.0146C39.2513 34.278 39.4154 34.5364 39.583 34.8001L39.5842 34.8021L39.7537 35.0691L39.9344 35.3538C40.0274 35.3188 40.1216 35.2838 40.2185 35.2478L40.2189 35.2476L40.2203 35.2471L40.221 35.2468C40.3575 35.1961 40.4993 35.1434 40.6506 35.0859C40.717 35.2191 40.7802 35.3491 40.8469 35.4863C40.9214 35.6397 41.0004 35.8022 41.093 35.9881C40.1006 36.1542 40.2365 36.7582 40.3847 37.4171L40.3968 37.4707L40.4119 37.5388C40.616 37.5531 40.8169 37.5706 41.0297 37.5892C41.1318 37.5981 41.2366 37.6072 41.3458 37.6163V38.5608C41.0228 38.582 40.6998 38.6031 40.3627 38.6243C40.1661 39.0119 39.9625 39.4066 39.7027 39.9C39.778 39.9623 39.8617 40.0274 39.9467 40.0935C39.9965 40.1321 40.0467 40.1712 40.0959 40.2102L47.1812 33.7679C46.0927 32.0481 45.4467 30.0181 45.4467 27.8331C45.4467 21.7362 50.3903 16.7741 56.4643 16.7741C59.0274 16.7741 61.3868 17.6692 63.2617 19.1494L67.7278 15.0895ZM60.1228 27.5018C60.495 27.5018 60.797 27.8049 60.797 28.1785C60.797 28.552 60.495 28.8551 60.1228 28.8551C59.7507 28.8551 59.4487 28.552 59.4487 28.1785C59.4487 27.8049 59.7507 27.5018 60.1228 27.5018ZM46.1489 27.819C46.1489 29.8208 46.7318 31.6886 47.7148 33.2745L62.7351 19.6146C60.9936 18.2754 58.8238 17.4648 56.4644 17.4648C50.7765 17.4648 46.1489 22.1098 46.1489 27.819ZM58.9993 27.7697C58.9502 27.8965 58.9221 28.0305 58.9221 28.1785C58.9221 28.841 59.4628 29.3838 60.1229 29.3838C60.7829 29.3838 61.3236 28.841 61.3236 28.1785C61.3236 27.5159 60.7899 26.9732 60.1229 26.9732C60.0245 26.9732 59.9262 26.9873 59.8349 27.0155L65.1155 22.2084C66.1618 23.8296 66.7798 25.7538 66.7798 27.826C66.7798 33.5353 62.1522 38.1802 56.4644 38.1802C54.0347 38.1802 51.8087 37.3274 50.0462 35.9177L58.9993 27.7697ZM37.7716 42.3106L39.3726 40.8586C38.9724 40.4921 38.5159 40.2384 37.7716 40.774V42.3106ZM36.2618 38.1732C36.0722 37.0243 35.7492 36.6789 34.6889 36.5168C33.6637 36.3617 33.13 35.7626 33.1862 34.8252C33.2353 33.9723 33.8884 33.4296 34.8855 33.3943H35.1664C37.7856 33.4225 39.6043 35.4595 39.3586 38.0815C39.2743 38.9555 38.6774 39.5688 37.8769 39.597C37.0062 39.6251 36.4163 39.1106 36.2618 38.1732ZM23.903 51.4877C24.9001 51.4806 25.7217 52.1573 25.9183 53.0877L32.1329 47.4419C31.7396 47.3573 31.3323 47.2939 30.911 47.2798C29.9209 47.2445 28.8606 47.0965 27.9758 46.6947C25.5181 45.567 24.528 43.4666 24.4016 40.8163C24.226 37.2287 20.4832 34.9802 17.2109 36.4393C15.0552 37.3978 14.0229 39.3362 14.1283 41.4577C14.3179 46.5044 15.8557 50.3035 18.8892 53.4331C19.9847 54.5538 21.1503 55.5123 22.3932 56.2806L23.3202 55.4419C22.4845 55.1881 21.8736 54.4198 21.8736 53.4965C21.8736 52.404 22.7865 51.5018 23.903 51.4877ZM30.3001 53.863C30.6442 54.5749 31.3745 55.0824 32.182 55.0612C33.2915 55.0331 34.1903 54.1097 34.1833 52.9961C34.1833 52.2419 33.776 51.5934 33.1791 51.2339L35.356 49.2604C35.9529 49.9441 36.3953 50.7758 36.634 51.7555C37.4205 55.0049 35.04 58.4375 31.7186 58.6137C29.64 58.7264 27.6879 58.4727 25.8692 57.8877L30.3001 53.863ZM15.4484 67.3678C22.1756 74.4092 31.6273 78.8075 42.0902 78.8075C62.4542 78.8075 79.0263 62.1731 78.9982 41.7326C78.9982 32.5415 75.6416 24.1327 70.1082 17.6481L65.6211 21.7291C66.7798 23.4772 67.4539 25.5705 67.4539 27.826C67.4539 33.923 62.5104 38.8851 56.4363 38.8851C53.803 38.8851 51.3804 37.9476 49.4844 36.397L36.0652 48.5978C36.1284 48.6613 36.1899 48.7282 36.2513 48.7952C36.3127 48.8621 36.3742 48.9291 36.4374 48.9925C36.5427 49.0983 36.8657 49.0771 37.0413 49.0066C37.6842 48.7507 38.319 48.4785 38.9701 48.1994C39.1796 48.1097 39.3907 48.0191 39.6043 47.9282C39.7226 48.1905 39.8297 48.4196 39.965 48.7086C39.9824 48.7458 40.0002 48.784 40.0186 48.8234C39.6369 48.9912 39.2585 49.1568 38.8851 49.3202C38.3176 49.5685 37.7618 49.8117 37.2239 50.0498C37.2634 50.2562 37.3019 50.4616 37.3402 50.6659C37.4719 51.3687 37.6014 52.0597 37.7646 52.7423C37.7997 52.8762 38.1086 53.0172 38.2912 53.0242C39.0259 53.0453 39.7646 53.0428 40.5277 53.0401C40.7856 53.0392 41.0464 53.0383 41.3107 53.0383V54.0322C41.021 54.0322 40.7313 54.0348 40.4417 54.0375C39.791 54.0435 39.1412 54.0495 38.4949 54.0251C37.9261 54.004 37.5539 54.0956 37.5118 54.7723C37.4977 54.9835 37.4152 55.1884 37.3243 55.4142C37.2787 55.5274 37.231 55.646 37.1888 55.7731L37.1905 55.7743C38.1379 56.4154 39.0853 57.0564 40.0818 57.7326C39.9133 58.0004 39.7518 58.2542 39.5482 58.5714C39.0904 58.2685 38.6392 57.9705 38.1858 57.6711C37.7003 57.3504 37.2124 57.0282 36.7113 56.6965C36.4444 57.0207 36.1776 57.3379 35.8826 57.6833C36.0006 57.8451 36.118 58.0057 36.2351 58.1661C36.5365 58.5786 36.8362 58.9889 37.1396 59.4101C37.0328 59.4891 36.9305 59.5658 36.8282 59.6426C36.6749 59.7576 36.5216 59.8726 36.3531 59.9952C35.9318 59.4454 35.5315 58.9238 35.1102 58.3811C34.717 58.6278 34.3448 58.8604 33.9446 59.1071C34.143 59.5161 34.3396 59.9161 34.5381 60.3198C34.7329 60.7162 34.9295 61.1162 35.1313 61.5317C34.8705 61.6594 34.6328 61.7813 34.3451 61.9288L34.2535 61.9758C34.0306 61.5357 33.8116 61.1051 33.5943 60.6781C33.394 60.2845 33.1953 59.894 32.9966 59.5018C32.2171 59.5793 31.4447 59.6568 30.6231 59.7414V63.315H29.633V59.6568C29.0151 59.5723 28.4884 59.5018 27.8985 59.4242C27.8229 59.7772 27.7473 60.1158 27.6717 60.4544C27.6069 60.7447 27.542 61.035 27.4772 61.3344C27.3122 61.3027 27.1578 61.2709 27.0033 61.2392C26.8488 61.2075 26.6943 61.1758 26.5292 61.1441C26.6486 60.4956 26.761 59.8753 26.8803 59.2128C26.2694 59.0225 25.6796 58.8392 25.0406 58.6419L24.7316 58.9238C24.6134 59.2677 24.4953 59.6079 24.3766 59.9495C24.2132 60.4202 24.0487 60.8937 23.8819 61.3837C23.7174 61.3323 23.5625 61.2829 23.4042 61.2324C23.2583 61.1858 23.1096 61.1384 22.948 61.0877C23.0052 60.9243 23.0568 60.7637 23.1082 60.6041C23.1388 60.509 23.1693 60.4142 23.2008 60.3194L15.4484 67.3678Z" fill="#C3C4C4"/>
<path fill-rule="evenodd" clip-rule="evenodd" d="M67.3214 51.4647C67.3305 51.5051 67.3396 51.5457 67.3486 51.5864C67.6505 51.6075 67.9454 51.6357 68.2755 51.671V52.6155C67.9525 52.6366 67.6294 52.6578 67.2924 52.6789C67.0958 53.0666 66.8921 53.4613 66.6323 53.9547C66.9553 54.2084 67.3064 54.4833 67.7207 54.8075C67.5876 54.9263 67.4707 55.0301 67.36 55.1283C67.2079 55.2633 67.0676 55.3878 66.9132 55.5265C66.7826 55.424 66.6588 55.2968 66.5335 55.1681C66.073 54.695 65.5941 54.203 64.6942 54.8569V56.7318H63.8094C63.663 56.41 63.6881 56.0371 63.7131 55.6657C63.7577 55.0039 63.802 54.3466 62.8755 53.9899C62.7102 54.0936 62.5328 54.2022 62.3403 54.3199C62.2057 54.4023 62.0638 54.4892 61.9135 54.582C61.7676 54.3477 61.6314 54.1377 61.4848 53.9117C61.4549 53.8657 61.4247 53.8191 61.3938 53.7714C61.5853 53.6365 61.7649 53.5064 61.9436 53.3768C62.0731 53.283 62.2021 53.1895 62.3348 53.0948C62.2452 52.6772 62.1614 52.2656 62.0463 51.6997C62.0351 51.6446 62.0236 51.5881 62.0118 51.53C61.7903 51.8329 61.6082 52.0857 61.4385 52.3214C61.2962 52.519 61.1626 52.7045 61.0217 52.8974C60.7548 52.7212 60.502 52.552 60.2282 52.3688C60.3069 52.2371 60.3808 52.1126 60.4519 51.993C60.5519 51.8245 60.6464 51.6655 60.7408 51.5089C60.277 50.9953 59.836 51.1713 59.3845 51.3515C59.1729 51.436 58.9591 51.5213 58.7395 51.5371L58.7394 51.5369C58.6411 51.255 58.5429 50.9731 58.4305 50.649C58.7465 50.515 59.0414 50.3952 59.3293 50.2824C59.2961 49.4198 58.746 49.3145 58.2022 49.2103C57.9417 49.1605 57.6827 49.1109 57.4825 48.9785C57.5378 48.6344 57.5713 48.4258 57.6936 48.3161C57.882 48.1471 58.2809 48.2127 59.2942 48.3794C59.3293 47.8296 59.3645 47.301 59.3996 46.7724L59.3996 46.7723C59.3645 46.7653 59.3293 46.7565 59.2942 46.7476C59.2591 46.7388 59.224 46.73 59.1889 46.723C59.2162 46.7042 59.2432 46.6855 59.27 46.6669C59.3743 46.5945 59.476 46.5239 59.5821 46.4622C59.6644 46.4163 59.7496 46.3794 59.8455 46.3379C59.897 46.3156 59.9516 46.2919 60.0105 46.2648C60.1228 46.4269 60.2352 46.5891 60.3616 46.7723C60.5412 46.7002 60.7171 46.6318 60.8975 46.5617C60.9639 46.5359 61.0309 46.5099 61.0989 46.4833C61.1111 46.2913 61.121 46.1016 61.1312 45.9047C61.1386 45.7619 61.1462 45.6153 61.1551 45.4613H62.096C62.1063 45.5792 62.1165 45.6934 62.1267 45.8076C62.1446 46.0074 62.1624 46.2072 62.1803 46.4269C62.5665 46.4692 62.9386 46.5115 63.3108 46.5538L63.3109 46.5538C63.4653 46.286 63.6058 46.0394 63.7742 45.7434L63.7743 45.7432C63.9221 45.812 64.0643 45.8807 64.2104 45.9513C64.349 46.0183 64.4912 46.087 64.6451 46.1591C64.5645 46.3477 64.4922 46.5239 64.425 46.6877C64.4043 46.7383 64.384 46.7876 64.3642 46.8358C64.8979 47.4137 65.3894 47.4067 65.9231 46.871C66.122 46.6713 66.3592 46.507 66.6111 46.3324C66.7327 46.2482 66.8577 46.1616 66.9834 46.0675C67.18 46.3353 67.3556 46.5679 67.5803 46.8639C67.4928 46.931 67.4062 46.9973 67.3203 47.063C66.8824 47.3983 66.4617 47.7204 66.0214 48.0622C66.1884 48.3262 66.3529 48.5853 66.5209 48.8497C66.6354 49.03 66.7515 49.2128 66.8711 49.4014C66.9646 49.3662 67.0593 49.331 67.1568 49.2948C67.2935 49.244 67.4356 49.1912 67.5873 49.1335C67.6536 49.2667 67.7168 49.3966 67.7835 49.5338C67.8581 49.6873 67.937 49.8497 68.0297 50.0357C67.0372 50.2018 67.1732 50.8058 67.3214 51.4647ZM64.8136 53.6586C65.6141 53.6305 66.211 53.0172 66.2952 52.1432C66.541 49.5142 64.7223 47.4842 62.1031 47.456H61.8222C60.8251 47.4913 60.172 48.034 60.1228 48.8868C60.0667 49.8243 60.6003 50.4234 61.6256 50.5785C62.6859 50.7406 63.0089 51.086 63.1985 52.2349C63.353 53.1723 63.9358 53.6939 64.8136 53.6586Z" fill="#C3C4C4"/>
<path fill-rule="evenodd" clip-rule="evenodd" d="M43.0855 48.002C43.1606 47.8784 43.2321 47.761 43.298 47.6463C42.9892 47.3035 42.693 47.4112 42.3843 47.5233C42.2295 47.5795 42.0717 47.6369 41.9076 47.6392C41.8502 47.4664 41.787 47.2877 41.718 47.0926C41.711 47.073 41.704 47.0531 41.6969 47.0331C41.9146 46.9414 42.1183 46.8569 42.3149 46.7793C42.2958 46.1916 41.9153 46.1189 41.5409 46.0474C41.3631 46.0135 41.1866 45.9798 41.0509 45.8912C41.1492 45.2921 41.1492 45.2921 42.2938 45.4824C42.3051 45.283 42.3183 45.0857 42.3314 44.8903C42.3429 44.7196 42.3542 44.5505 42.364 44.3829C42.3409 44.3751 42.3156 44.3695 42.2893 44.3637C42.2678 44.3589 42.2457 44.354 42.2236 44.3476C42.2443 44.3337 42.2655 44.3194 42.287 44.3049C42.3528 44.2604 42.4216 44.2139 42.4904 44.1714C42.5404 44.1421 42.5929 44.1203 42.6522 44.0956C42.6929 44.0787 42.7368 44.0604 42.7854 44.0375C42.8626 44.1503 42.9398 44.263 43.0241 44.3899C43.1926 44.3265 43.3541 44.263 43.5297 44.1925C43.5357 44.0004 43.5468 43.8082 43.5586 43.6029C43.5607 43.5673 43.5627 43.5313 43.5648 43.4948H44.2108C44.222 43.6139 44.2311 43.7272 44.2404 43.8419C44.2487 43.9442 44.2571 44.0476 44.267 44.1573C44.5339 44.1925 44.7866 44.2207 45.0394 44.2489C45.0841 44.1712 45.1263 44.096 45.1692 44.0195C45.2273 43.9158 45.2867 43.8098 45.3554 43.6921C45.3742 43.7009 45.3929 43.7096 45.4115 43.7182C45.5873 43.8001 45.7555 43.8784 45.9523 43.974C45.8821 44.1432 45.8189 44.2983 45.7627 44.4392C46.1279 44.834 46.4649 44.8269 46.8301 44.4604C46.9718 44.3182 47.1372 44.2033 47.3147 44.08C47.3923 44.0261 47.4722 43.9707 47.5533 43.9106C47.606 43.9793 47.6557 44.0451 47.7054 44.1108C47.7883 44.2204 47.8711 44.33 47.9676 44.4533C47.8419 44.5504 47.7195 44.6458 47.5981 44.7405C47.367 44.9206 47.1397 45.0978 46.9003 45.278C47.0899 45.5811 47.2795 45.8771 47.4831 46.1943C47.517 46.1819 47.5513 46.1695 47.586 46.157C47.7092 46.1125 47.8377 46.0661 47.9747 46.011L47.9747 46.0111C48.066 46.2014 48.1573 46.3917 48.2766 46.6313C47.5995 46.7379 47.6943 47.1595 47.7957 47.6103C47.8015 47.6363 47.8074 47.6624 47.8132 47.6886C47.9352 47.7012 48.0572 47.7114 48.1853 47.722C48.2709 47.7291 48.3593 47.7365 48.4522 47.745V48.3934C48.3772 48.3981 48.3031 48.4028 48.2289 48.4075C48.0807 48.4169 47.9325 48.4263 47.7781 48.4357L47.7779 48.4359C47.6375 48.7037 47.4971 48.9715 47.3216 49.3097C47.4055 49.3755 47.4914 49.4433 47.5807 49.5137C47.7305 49.632 47.89 49.7578 48.066 49.8947C47.9153 50.0314 47.7948 50.1376 47.6744 50.2438C47.6209 50.291 47.5674 50.3383 47.5112 50.3881C47.4226 50.3188 47.3382 50.2321 47.2527 50.1442C46.9379 49.8208 46.6073 49.4811 45.9944 49.93V51.2128H45.3905C45.2894 50.9945 45.3066 50.7396 45.3239 50.485C45.3545 50.0327 45.385 49.5814 44.7515 49.3379C44.6107 49.4187 44.4627 49.5103 44.2971 49.6128C44.2315 49.6534 44.1632 49.6957 44.0915 49.7397C44.0283 49.6445 43.9703 49.5547 43.9124 49.4648C43.8545 49.3749 43.7965 49.2851 43.7333 49.1899C43.7933 49.1466 43.8518 49.1044 43.9095 49.0627C44.0678 48.9483 44.2198 48.8384 44.3794 48.7247C44.3433 48.5438 44.3073 48.3675 44.266 48.1657C44.235 48.0137 44.2009 47.8472 44.1617 47.6533C43.8878 48.041 43.6982 48.3018 43.4876 48.5908C43.305 48.471 43.1365 48.3582 42.9469 48.2313L42.9469 48.2313C42.9942 48.1522 43.0405 48.076 43.0855 48.002ZM44.2319 44.8762H44.0353C43.3541 44.8974 42.9047 45.271 42.8766 45.863C42.8345 46.5044 43.1997 46.9132 43.9019 47.019C44.6322 47.1317 44.8569 47.3643 44.9833 48.1538C45.0886 48.7952 45.4959 49.1476 46.0928 49.1265C46.6405 49.1053 47.0478 48.6895 47.1039 48.0903C47.2725 46.2859 46.0225 44.8974 44.2319 44.8762Z" fill="#C3C4C4"/>
<path d="M19.788 37.5741C18.0747 37.5882 16.7405 38.9344 16.7545 40.6472C16.7685 42.3529 18.1238 43.7203 19.8091 43.7203C21.5365 43.7203 22.8918 42.3388 22.8707 40.5908C22.8497 38.878 21.5084 37.56 19.788 37.5741Z" fill="#C3C4C4"/>
<path d="M26.9997 47.3715C26.1149 47.3715 25.497 48.0058 25.504 48.8939C25.511 49.7679 26.1571 50.4164 27.0208 50.4093C27.8705 50.4023 28.5376 49.7327 28.5305 48.8798C28.5235 48.0058 27.8775 47.3715 26.9997 47.3715Z" fill="#C3C4C4"/>
<path d="M18.826 46.3142C17.9974 46.286 17.2882 46.9767 17.2741 47.8155C17.2601 48.6754 17.9132 49.3732 18.7488 49.3944C19.5704 49.4155 20.2936 48.7177 20.3077 47.893C20.3217 47.0331 19.6687 46.3353 18.826 46.3142Z" fill="#C3C4C4"/>
<path fill-rule="evenodd" clip-rule="evenodd" d="M52.9182 21.7292C52.9182 22.3918 52.3775 22.9345 51.7174 22.9345C51.0574 22.9345 50.5167 22.3918 50.5167 21.7292C50.5167 21.0667 51.0503 20.5239 51.7174 20.5239C52.3845 20.5239 52.9182 21.0667 52.9182 21.7292ZM52.3916 21.7363C52.3916 21.3627 52.0896 21.0596 51.7174 21.0596C51.3453 21.0596 51.0433 21.3627 51.0433 21.7363C51.0433 22.1098 51.3453 22.4129 51.7174 22.4129C52.0896 22.4129 52.3916 22.1098 52.3916 21.7363Z" fill="#C3C4C4"/>
<path fill-rule="evenodd" clip-rule="evenodd" d="M52.6163 34.8604C52.6163 34.1979 53.157 33.6552 53.817 33.6552C54.4771 33.6552 55.0178 34.1979 55.0178 34.8604C55.0178 35.523 54.4841 36.0657 53.817 36.0657C53.1499 36.0657 52.6163 35.523 52.6163 34.8604ZM53.1429 34.8534C53.1429 35.227 53.4449 35.53 53.817 35.53C54.1892 35.53 54.4912 35.227 54.4912 34.8534C54.4912 34.4798 54.1892 34.1767 53.817 34.1767C53.4449 34.1767 53.1429 34.4798 53.1429 34.8534Z" fill="#C3C4C4"/>
<path fill-rule="evenodd" clip-rule="evenodd" d="M50.8677 26.7758C50.8677 26.1133 51.4084 25.5706 52.0685 25.5706C52.7286 25.5706 53.2693 26.1133 53.2693 26.7758C53.2693 27.4384 52.7286 27.9811 52.0685 27.9811C51.4084 27.9811 50.8677 27.4384 50.8677 26.7758ZM51.3944 26.7688C51.3944 27.1424 51.6963 27.4454 52.0685 27.4454C52.4337 27.4454 52.7426 27.1424 52.7426 26.7688C52.7426 26.3952 52.4407 26.0921 52.0685 26.0921C51.6963 26.0921 51.3944 26.3952 51.3944 26.7688Z" fill="#C3C4C4"/>
<path fill-rule="evenodd" clip-rule="evenodd" d="M47.7148 30.5256C47.7148 29.863 48.2555 29.3203 48.9156 29.3203C49.5757 29.3203 50.1164 29.863 50.1164 30.5256C50.1164 31.1882 49.5827 31.7309 48.9156 31.7309C48.2485 31.7309 47.7148 31.1882 47.7148 30.5256ZM48.2415 30.5185C48.2415 30.8921 48.5434 31.1952 48.9156 31.1952C49.2808 31.1952 49.5897 30.8921 49.5897 30.5185C49.5897 30.145 49.2878 29.8419 48.9156 29.8419C48.5434 29.8419 48.2415 30.145 48.2415 30.5185Z" fill="#C3C4C4"/>
<path fill-rule="evenodd" clip-rule="evenodd" d="M65.0594 25.5918C65.0594 26.2543 64.5187 26.7971 63.8586 26.7971C63.1985 26.7971 62.6578 26.2614 62.6578 25.5988C62.6578 24.9363 63.1985 24.3936 63.8586 24.3936C64.5187 24.3936 65.0594 24.9292 65.0594 25.5918ZM64.5327 25.5988C64.5327 25.2253 64.2308 24.9222 63.8586 24.9222C63.4864 24.9222 63.1845 25.2253 63.1845 25.5988C63.1845 25.9724 63.4864 26.2755 63.8586 26.2755C64.2308 26.2755 64.5327 25.9724 64.5327 25.5988Z" fill="#C3C4C4"/>
<path fill-rule="evenodd" clip-rule="evenodd" d="M54.2524 23.8437C54.2524 23.1812 54.7931 22.6384 55.4532 22.6384C56.1132 22.6384 56.6539 23.1812 56.6539 23.8437C56.6539 24.5063 56.1203 25.049 55.4532 25.049C54.7861 25.049 54.2524 24.5063 54.2524 23.8437ZM54.779 23.8367C54.779 24.2102 55.081 24.5133 55.4532 24.5133C55.8183 24.5133 56.1273 24.2102 56.1273 23.8367C56.1273 23.4631 55.8253 23.16 55.4532 23.16C55.081 23.16 54.779 23.4631 54.779 23.8367Z" fill="#C3C4C4"/>
<path fill-rule="evenodd" clip-rule="evenodd" d="M56.4995 19.4526C56.4995 20.1152 55.9588 20.6579 55.2987 20.6579C54.6386 20.6579 54.0979 20.1152 54.0979 19.4526C54.0979 18.79 54.6316 18.2473 55.2987 18.2473C55.9658 18.2473 56.4995 18.79 56.4995 19.4526ZM55.9728 19.4596C55.9728 19.0861 55.6708 18.783 55.2987 18.783C54.9265 18.783 54.6246 19.0861 54.6246 19.4596C54.6246 19.8332 54.9265 20.1363 55.2987 20.1363C55.6708 20.1363 55.9728 19.8332 55.9728 19.4596Z" fill="#C3C4C4"/>
<path fill-rule="evenodd" clip-rule="evenodd" d="M58.5218 35.5582C58.5218 36.2207 57.9811 36.7635 57.321 36.7635C56.6609 36.7635 56.1202 36.2207 56.1202 35.5582C56.1202 34.8956 56.6539 34.3529 57.321 34.3529C57.9881 34.3529 58.5218 34.8956 58.5218 35.5582ZM57.9951 35.5652C57.9951 35.1917 57.6932 34.8886 57.321 34.8886C56.9488 34.8886 56.6469 35.1917 56.6469 35.5652C56.6469 35.9388 56.9488 36.2419 57.321 36.2419C57.6932 36.2419 57.9951 35.9388 57.9951 35.5652Z" fill="#C3C4C4"/>
<path fill-rule="evenodd" clip-rule="evenodd" d="M49.7653 26.0639C49.7653 26.7265 49.2246 27.2692 48.5645 27.2692C47.9045 27.2692 47.3638 26.7265 47.3638 26.0639C47.3638 25.4014 47.8974 24.8586 48.5645 24.8586C49.2316 24.8586 49.7653 25.4014 49.7653 26.0639ZM49.2387 26.071C49.2387 25.6974 48.9367 25.3943 48.5645 25.3943C48.1924 25.3943 47.8904 25.6974 47.8904 26.071C47.8904 26.4445 48.1924 26.7476 48.5645 26.7476C48.9367 26.7476 49.2387 26.4445 49.2387 26.071Z" fill="#C3C4C4"/>
<path fill-rule="evenodd" clip-rule="evenodd" d="M58.4516 20.4464C58.4516 19.7838 58.9923 19.2411 59.6524 19.2411C60.3124 19.2411 60.8531 19.7838 60.8531 20.4464C60.8531 21.1089 60.3195 21.6517 59.6524 21.6517C58.9853 21.6517 58.4516 21.1089 58.4516 20.4464ZM58.9783 20.4393C58.9783 20.8129 59.2802 21.116 59.6524 21.116C60.0245 21.116 60.3265 20.8129 60.3265 20.4393C60.3265 20.0658 60.0245 19.7627 59.6524 19.7627C59.2802 19.7627 58.9783 20.0658 58.9783 20.4393Z" fill="#C3C4C4"/>
<path fill-rule="evenodd" clip-rule="evenodd" d="M59.1047 31.8084C59.1047 32.471 58.564 33.0137 57.9039 33.0137C57.2438 33.0137 56.7031 32.471 56.7031 31.8084C56.7031 31.1459 57.2368 30.6031 57.9039 30.6031C58.571 30.6031 59.1047 31.1459 59.1047 31.8084ZM58.578 31.8155C58.578 31.4419 58.2761 31.1388 57.9039 31.1388C57.5317 31.1388 57.2298 31.4419 57.2298 31.8155C57.2298 32.1891 57.5317 32.4921 57.9039 32.4921C58.2761 32.4921 58.578 32.1891 58.578 31.8155Z" fill="#C3C4C4"/>
<path fill-rule="evenodd" clip-rule="evenodd" d="M64.4485 30.6736C63.7814 30.6736 63.2477 30.1309 63.2477 29.4683C63.2477 28.8058 63.7814 28.2631 64.4485 28.2631C65.1156 28.2631 65.6492 28.8058 65.6492 29.4683C65.6492 30.1309 65.1156 30.6736 64.4485 30.6736ZM64.4414 30.145C64.8136 30.145 65.1156 29.8419 65.1156 29.4683C65.1156 29.0948 64.8136 28.7917 64.4414 28.7917C64.0693 28.7917 63.7673 29.0948 63.7673 29.4683C63.7673 29.8419 64.0693 30.145 64.4414 30.145Z" fill="#C3C4C4"/>
<path fill-rule="evenodd" clip-rule="evenodd" d="M62.8404 33.0913C62.8404 33.7538 62.2997 34.2966 61.6396 34.2966C60.9795 34.2966 60.4459 33.7609 60.4388 33.0913C60.4388 32.4287 60.9725 31.886 61.6396 31.886C62.3067 31.886 62.8404 32.4287 62.8404 33.0913ZM62.3137 33.0983C62.3137 32.7248 62.0118 32.4217 61.6396 32.4217C61.2674 32.4217 60.9655 32.7248 60.9655 33.0983C60.9655 33.4719 61.2674 33.775 61.6396 33.775C62.0118 33.775 62.3137 33.4719 62.3137 33.0983Z" fill="#C3C4C4"/>
<path fill-rule="evenodd" clip-rule="evenodd" d="M42.7643 65.0771C42.7643 60.6366 46.3666 57.0208 50.7905 57.0208C55.2214 57.0208 58.8167 60.6366 58.8167 65.0771C58.8167 69.5176 55.2144 73.1335 50.7905 73.1335C46.3666 73.1335 42.7643 69.5176 42.7643 65.0771ZM43.2909 65.0771C43.2909 69.2287 46.6545 72.6049 50.7905 72.6049C54.9265 72.6049 58.2901 69.2287 58.2901 65.0771C58.2901 60.9256 54.9265 57.5494 50.7905 57.5494C46.6545 57.5494 43.2909 60.9256 43.2909 65.0771Z" fill="#C3C4C4"/>
<path fill-rule="evenodd" clip-rule="evenodd" d="M48.1923 60.6366C48.1923 61.1089 47.8061 61.4966 47.3356 61.4966C46.8652 61.4966 46.4789 61.1089 46.4789 60.6366C46.4789 60.1644 46.8652 59.7767 47.3356 59.7767C47.8061 59.7767 48.1923 60.1644 48.1923 60.6366ZM47.8412 60.6437C47.8412 60.3618 47.6165 60.1362 47.3356 60.1362C47.0618 60.1362 46.83 60.3618 46.83 60.6437C46.83 60.9256 47.0548 61.1512 47.3356 61.1512C47.6165 61.1512 47.8412 60.9256 47.8412 60.6437Z" fill="#C3C4C4"/>
<path fill-rule="evenodd" clip-rule="evenodd" d="M48.0098 70.1943C48.0098 69.722 48.396 69.3344 48.8665 69.3344C49.3369 69.3344 49.7232 69.722 49.7232 70.1943C49.7232 70.6665 49.3369 71.0542 48.8665 71.0542C48.396 71.0542 48.0098 70.6665 48.0098 70.1943ZM48.3609 70.1943C48.3609 70.4762 48.5856 70.7017 48.8665 70.7017C49.1473 70.7017 49.372 70.4762 49.372 70.1943C49.372 69.9123 49.1473 69.6868 48.8665 69.6868C48.5856 69.6868 48.3609 69.9123 48.3609 70.1943Z" fill="#C3C4C4"/>
<path fill-rule="evenodd" clip-rule="evenodd" d="M47.5955 65.1688C47.125 65.1688 46.7388 64.7811 46.7388 64.3089C46.7388 63.8366 47.125 63.449 47.5955 63.449C48.0659 63.449 48.4522 63.8366 48.4522 64.3089C48.4522 64.7811 48.0659 65.1688 47.5955 65.1688ZM47.5884 64.8164C47.8693 64.8164 48.094 64.5908 48.094 64.3089C48.094 64.0269 47.8693 63.8014 47.5884 63.8014C47.3076 63.8014 47.0829 64.0269 47.0829 64.3089C47.0829 64.5908 47.3076 64.8164 47.5884 64.8164Z" fill="#C3C4C4"/>
<path fill-rule="evenodd" clip-rule="evenodd" d="M48.3257 66.3389C48.7962 66.3389 49.1824 66.7265 49.1824 67.1988C49.1824 67.6781 48.7962 68.0587 48.3257 68.0587C47.8553 68.0587 47.4691 67.671 47.4691 67.1988C47.4691 66.7265 47.8553 66.3389 48.3257 66.3389ZM48.3328 66.6913C48.0519 66.6913 47.8272 66.9168 47.8272 67.1988C47.8272 67.4807 48.0519 67.7063 48.3328 67.7063C48.6137 67.7063 48.8384 67.4807 48.8384 67.1988C48.8384 66.9168 48.6137 66.6913 48.3328 66.6913Z" fill="#C3C4C4"/>
<path fill-rule="evenodd" clip-rule="evenodd" d="M45.2993 66.1768C45.7697 66.1768 46.156 66.5644 46.156 67.0367C46.156 67.5089 45.7697 67.8966 45.2993 67.8966C44.8288 67.8966 44.4426 67.5089 44.4426 67.0367C44.4426 66.5644 44.8288 66.1768 45.2993 66.1768ZM44.7937 67.0367C44.7937 67.3186 45.0184 67.5442 45.2993 67.5442C45.5731 67.5442 45.8048 67.3186 45.8048 67.0367C45.8048 66.7547 45.5801 66.5292 45.2993 66.5292C45.0184 66.5292 44.7937 66.7547 44.7937 67.0367Z" fill="#C3C4C4"/>
<path fill-rule="evenodd" clip-rule="evenodd" d="M56.1765 64.3159C55.706 64.3159 55.3198 63.9282 55.3198 63.456C55.3198 62.9837 55.706 62.5961 56.1765 62.5961C56.6469 62.5961 57.0331 62.9837 57.0331 63.456C57.0331 63.9282 56.6469 64.3159 56.1765 64.3159ZM56.1765 63.9635C56.4573 63.9635 56.682 63.7379 56.682 63.456C56.682 63.174 56.4573 62.9485 56.1765 62.9485C55.8956 62.9485 55.6709 63.174 55.6709 63.456C55.6709 63.7379 55.8956 63.9635 56.1765 63.9635Z" fill="#C3C4C4"/>
<path fill-rule="evenodd" clip-rule="evenodd" d="M49.2035 62.1731C49.2035 61.7009 49.5897 61.3132 50.0602 61.3132C50.5307 61.3132 50.9169 61.7009 50.9169 62.1731C50.9169 62.6454 50.5307 63.0331 50.0602 63.0331C49.5897 63.0331 49.2035 62.6454 49.2035 62.1731ZM49.5546 62.1731C49.5546 62.4551 49.7793 62.6806 50.0602 62.6806C50.334 62.6806 50.5658 62.4551 50.5658 62.1731C50.5658 61.8912 50.3411 61.6657 50.0602 61.6657C49.7793 61.6657 49.5546 61.8912 49.5546 62.1731Z" fill="#C3C4C4"/>
<path fill-rule="evenodd" clip-rule="evenodd" d="M50.8046 58.9872C50.8046 59.4595 50.4184 59.8471 49.9479 59.8471C49.4774 59.8471 49.0912 59.4595 49.0912 58.9872C49.0912 58.515 49.4774 58.1273 49.9479 58.1273C50.4184 58.1273 50.8046 58.515 50.8046 58.9872ZM50.4535 58.9872C50.4535 58.7053 50.2288 58.4797 49.9479 58.4797C49.667 58.4797 49.4423 58.7053 49.4423 58.9872C49.4423 59.2692 49.667 59.4947 49.9479 59.4947C50.2288 59.4947 50.4535 59.2692 50.4535 58.9872Z" fill="#C3C4C4"/>
<path fill-rule="evenodd" clip-rule="evenodd" d="M50.5588 70.7088C50.5588 70.2365 50.945 69.8489 51.4155 69.8489C51.8859 69.8489 52.2722 70.2365 52.2722 70.7088C52.2722 71.181 51.8859 71.5687 51.4155 71.5687C50.945 71.5687 50.5588 71.181 50.5588 70.7088ZM50.9099 70.7017C50.9099 70.9837 51.1346 71.2092 51.4155 71.2092C51.6964 71.2092 51.9211 70.9837 51.9211 70.7017C51.9211 70.4198 51.6964 70.1943 51.4155 70.1943C51.1346 70.1943 50.9099 70.4198 50.9099 70.7017Z" fill="#C3C4C4"/>
<path fill-rule="evenodd" clip-rule="evenodd" d="M53.4589 64.4709C53.9294 64.4709 54.3156 64.8586 54.3156 65.3309C54.3156 65.8031 53.9294 66.1908 53.4589 66.1908C52.9884 66.1908 52.6022 65.8031 52.6022 65.3309C52.6022 64.8586 52.9884 64.4709 53.4589 64.4709ZM52.9533 65.3309C52.9533 65.6128 53.178 65.8383 53.4589 65.8383C53.7328 65.8383 53.9645 65.6128 53.9645 65.3309C53.9645 65.0489 53.7398 64.8234 53.4589 64.8234C53.178 64.8234 52.9533 65.0489 52.9533 65.3309Z" fill="#C3C4C4"/>
<path fill-rule="evenodd" clip-rule="evenodd" d="M50.6992 64.1185C51.1697 64.1185 51.5559 64.5062 51.5559 64.9784C51.5559 65.4507 51.1697 65.8384 50.6992 65.8384C50.2287 65.8384 49.8425 65.4507 49.8425 64.9784C49.8425 64.5062 50.2287 64.1185 50.6992 64.1185ZM50.7062 64.471C50.4254 64.471 50.2007 64.6965 50.2007 64.9784C50.2007 65.2533 50.4254 65.4789 50.7062 65.4859C50.9871 65.4859 51.2118 65.2604 51.2118 64.9784C51.2118 64.6965 50.9871 64.471 50.7062 64.471Z" fill="#C3C4C4"/>
<path fill-rule="evenodd" clip-rule="evenodd" d="M53.8451 62.1662C53.8451 62.6384 53.4589 63.0261 52.9884 63.0261C52.5179 63.0261 52.1317 62.6384 52.1317 62.1662C52.1317 61.6939 52.5179 61.3063 52.9884 61.3063C53.4589 61.3063 53.8451 61.6939 53.8451 62.1662ZM53.494 62.1662C53.494 61.8842 53.2693 61.6587 52.9884 61.6587C52.7145 61.6587 52.4828 61.8913 52.4828 62.1662C52.4828 62.4481 52.7075 62.6737 52.9884 62.6737C53.2693 62.6737 53.494 62.4481 53.494 62.1662Z" fill="#C3C4C4"/>
<path fill-rule="evenodd" clip-rule="evenodd" d="M45.0394 62.9344C45.5099 62.9344 45.8961 63.3221 45.8961 63.7944C45.8961 64.2666 45.5099 64.6543 45.0394 64.6543C44.569 64.6543 44.1827 64.2666 44.1827 63.7944C44.1827 63.3221 44.569 62.9344 45.0394 62.9344ZM45.0465 63.2869C44.7656 63.2869 44.5409 63.5124 44.5409 63.7944C44.5409 64.0763 44.7656 64.3018 45.0465 64.3018C45.3273 64.3018 45.552 64.0763 45.552 63.7944C45.552 63.5124 45.3273 63.2869 45.0465 63.2869Z" fill="#C3C4C4"/>
<path fill-rule="evenodd" clip-rule="evenodd" d="M53.9715 59.6991C53.9715 60.1714 53.5853 60.5591 53.1148 60.5591C52.6443 60.5591 52.2581 60.1714 52.2581 59.6991C52.2581 59.2269 52.6443 58.8392 53.1148 58.8392C53.5853 58.8392 53.9715 59.2269 53.9715 59.6991ZM53.6204 59.6991C53.6204 59.4172 53.3957 59.1917 53.1148 59.1917C52.8409 59.1917 52.6092 59.4243 52.6092 59.6991C52.6092 59.9811 52.8339 60.2066 53.1148 60.2066C53.3957 60.2066 53.6204 59.9811 53.6204 59.6991Z" fill="#C3C4C4"/>
<path fill-rule="evenodd" clip-rule="evenodd" d="M55.6849 61.5811C55.2144 61.5811 54.8282 61.1935 54.8282 60.7212C54.8282 60.2419 55.2144 59.8613 55.6849 59.8613C56.1554 59.8613 56.5416 60.249 56.5416 60.7212C56.5416 61.1935 56.1554 61.5811 55.6849 61.5811ZM55.6849 61.2287C55.9658 61.2287 56.1905 61.0032 56.1905 60.7212C56.1905 60.4393 55.9658 60.2138 55.6849 60.2138C55.404 60.2138 55.1793 60.4393 55.1793 60.7212C55.1793 61.0032 55.404 61.2287 55.6849 61.2287Z" fill="#C3C4C4"/>
<path fill-rule="evenodd" clip-rule="evenodd" d="M45.3694 69.1934C45.3694 68.7212 45.7557 68.3335 46.2261 68.3335C46.6966 68.3335 47.0828 68.7212 47.0828 69.1934C47.0828 69.6657 46.6966 70.0533 46.2261 70.0533C45.7557 70.0533 45.3694 69.6657 45.3694 69.1934ZM45.7205 69.1934C45.7205 69.4753 45.9453 69.7009 46.2261 69.7009C46.507 69.7009 46.7317 69.4753 46.7317 69.1934C46.7317 68.9115 46.507 68.6859 46.2261 68.6859C45.9453 68.6859 45.7205 68.9115 45.7205 69.1934Z" fill="#C3C4C4"/>
<path fill-rule="evenodd" clip-rule="evenodd" d="M50.9871 67.974C50.9871 67.5018 51.3733 67.1141 51.8438 67.1141C52.3143 67.1141 52.7005 67.5018 52.7005 67.974C52.7005 68.4463 52.3143 68.834 51.8438 68.834C51.3733 68.834 50.9871 68.4463 50.9871 67.974ZM51.3382 67.974C51.3382 68.256 51.5629 68.4815 51.8438 68.4815C52.1177 68.4815 52.3494 68.256 52.3494 67.974C52.3494 67.6921 52.1247 67.4666 51.8438 67.4666C51.5629 67.4666 51.3382 67.6921 51.3382 67.974Z" fill="#C3C4C4"/>
<path fill-rule="evenodd" clip-rule="evenodd" d="M56.6048 67.1283C56.1343 67.1283 55.7481 66.7406 55.7481 66.2684C55.7481 65.7961 56.1343 65.4084 56.6048 65.4084C57.0753 65.4084 57.4615 65.7961 57.4615 66.2684C57.4615 66.7406 57.0753 67.1283 56.6048 67.1283ZM56.5978 66.7758C56.8787 66.7758 57.1034 66.5503 57.1034 66.2684C57.1034 65.9935 56.8787 65.7609 56.5978 65.7609C56.3169 65.7609 56.0922 65.9864 56.0922 66.2684C56.0922 66.5503 56.3169 66.7758 56.5978 66.7758Z" fill="#C3C4C4"/>
<path fill-rule="evenodd" clip-rule="evenodd" d="M53.7047 68.9185C53.7047 68.4463 54.0909 68.0586 54.5613 68.0586C55.0318 68.0586 55.418 68.4463 55.418 68.9185C55.418 69.3908 55.0318 69.7784 54.5613 69.7784C54.0909 69.7784 53.7047 69.3908 53.7047 68.9185ZM54.0558 68.9115C54.0558 69.1934 54.2805 69.4189 54.5613 69.4189C54.8422 69.4189 55.0669 69.1934 55.0669 68.9115C55.0669 68.6295 54.8422 68.404 54.5613 68.404C54.2805 68.404 54.0558 68.6295 54.0558 68.9115Z" fill="#C3C4C4"/>
<path fill-rule="evenodd" clip-rule="evenodd" d="M37.4977 20.249C37.4977 24.1045 34.3729 27.2411 30.5318 27.2411C26.6837 27.2411 23.5659 24.1045 23.5659 20.249C23.5659 16.3935 26.6907 13.257 30.5318 13.257C34.3729 13.257 37.4977 16.3935 37.4977 20.249ZM36.9711 20.249C36.9711 16.6825 34.085 13.7856 30.5318 13.7856C26.9786 13.7856 24.0926 16.6825 24.0926 20.249C24.0926 23.8155 26.9786 26.7124 30.5318 26.7124C34.085 26.7124 36.9711 23.8155 36.9711 20.249Z" fill="#C3C4C4"/>
<path fill-rule="evenodd" clip-rule="evenodd" d="M28.3058 16.4146C28.3058 16.8375 27.9618 17.1829 27.5404 17.1829C27.1191 17.1829 26.782 16.8375 26.775 16.4146C26.775 15.9917 27.1191 15.6464 27.5404 15.6464C27.9618 15.6464 28.3058 15.9917 28.3058 16.4146ZM27.9547 16.4217C27.9547 16.1891 27.7651 16.0058 27.5404 16.0058C27.3157 16.0058 27.1261 16.1891 27.1261 16.4217C27.1261 16.6543 27.3087 16.8375 27.5404 16.8375C27.7722 16.8375 27.9547 16.6543 27.9547 16.4217Z" fill="#C3C4C4"/>
<path fill-rule="evenodd" clip-rule="evenodd" d="M28.1022 24.6754C28.1022 24.2525 28.4463 23.9071 28.8676 23.9071C29.2819 23.9071 29.633 24.2525 29.633 24.6754C29.633 25.0983 29.2889 25.4437 28.8676 25.4437C28.4463 25.4437 28.1022 25.0983 28.1022 24.6754ZM28.4533 24.6683C28.4533 24.9009 28.6429 25.0842 28.8676 25.0842C29.0923 25.0842 29.2819 24.9009 29.2819 24.6683C29.2819 24.4357 29.0993 24.2525 28.8676 24.2525C28.6359 24.2525 28.4533 24.4357 28.4533 24.6683Z" fill="#C3C4C4"/>
<path fill-rule="evenodd" clip-rule="evenodd" d="M26.9997 19.5864C26.9997 19.1635 27.3438 18.8181 27.7651 18.8181C28.1864 18.8181 28.5235 19.1635 28.5305 19.5864C28.5305 20.0093 28.1864 20.3547 27.7651 20.3547C27.3438 20.3547 26.9997 20.0093 26.9997 19.5864ZM27.3508 19.5864C27.3508 19.819 27.5404 20.0023 27.7651 20.0023C27.9898 20.0023 28.1794 19.819 28.1794 19.5864C28.1794 19.3538 27.9968 19.1705 27.7651 19.1705C27.5334 19.1705 27.3508 19.3538 27.3508 19.5864Z" fill="#C3C4C4"/>
<path fill-rule="evenodd" clip-rule="evenodd" d="M28.4041 22.857C27.9828 22.857 27.6387 22.5116 27.6387 22.0887C27.6387 21.6658 27.9828 21.3204 28.4041 21.3204C28.8255 21.3204 29.1695 21.6658 29.1695 22.0887C29.1695 22.5116 28.8255 22.857 28.4041 22.857ZM28.3971 22.5046C28.6288 22.5046 28.8114 22.3143 28.8114 22.0887C28.8114 21.8561 28.6288 21.6729 28.3971 21.6729C28.1654 21.6729 27.9828 21.8561 27.9828 22.0887C27.9828 22.3213 28.1654 22.5046 28.3971 22.5046Z" fill="#C3C4C4"/>
<path fill-rule="evenodd" clip-rule="evenodd" d="M25.7779 21.1794C26.1992 21.1794 26.5433 21.5248 26.5433 21.9477C26.5433 22.3636 26.1992 22.716 25.7779 22.716C25.3565 22.716 25.0125 22.3706 25.0125 21.9477C25.0125 21.5248 25.3565 21.1794 25.7779 21.1794ZM25.3706 21.9407C25.3706 22.1733 25.5602 22.3565 25.7849 22.3565C26.0096 22.3565 26.1992 22.1733 26.1992 21.9407C26.1992 21.7081 26.0166 21.5248 25.7849 21.5248C25.5532 21.5248 25.3706 21.7081 25.3706 21.9407Z" fill="#C3C4C4"/>
<path fill-rule="evenodd" clip-rule="evenodd" d="M35.1804 19.6216C34.7591 19.6216 34.415 19.2763 34.415 18.8534C34.415 18.4305 34.7591 18.0851 35.1804 18.0851C35.6018 18.0851 35.9459 18.4305 35.9459 18.8534C35.9459 19.2763 35.6018 19.6216 35.1804 19.6216ZM35.1734 19.2692C35.4052 19.2692 35.5877 19.0789 35.5877 18.8534C35.5877 18.6208 35.4052 18.4375 35.1734 18.4375C34.9417 18.4375 34.7591 18.6208 34.7591 18.8534C34.7591 19.086 34.9417 19.2692 35.1734 19.2692Z" fill="#C3C4C4"/>
<path fill-rule="evenodd" clip-rule="evenodd" d="M29.1274 17.7468C29.1274 17.3239 29.4715 16.9785 29.8928 16.9785C30.3141 16.9785 30.6582 17.3239 30.6582 17.7468C30.6582 18.1697 30.3141 18.5151 29.8928 18.5151C29.4715 18.5151 29.1274 18.1697 29.1274 17.7468ZM29.4785 17.7397C29.4785 17.9723 29.6681 18.1556 29.8928 18.1556C30.1175 18.1556 30.3071 17.9723 30.3071 17.7397C30.3071 17.5071 30.1245 17.3239 29.8928 17.3239C29.6611 17.3239 29.4785 17.5071 29.4785 17.7397Z" fill="#C3C4C4"/>
<path fill-rule="evenodd" clip-rule="evenodd" d="M30.5599 14.9839C30.5599 15.4068 30.2158 15.7521 29.7945 15.7521C29.3732 15.7521 29.0291 15.4068 29.0291 14.9839C29.0291 14.561 29.3732 14.2156 29.7945 14.2156C30.2158 14.2156 30.5599 14.561 30.5599 14.9839ZM30.2088 14.9909C30.2088 14.7583 30.0192 14.575 29.7945 14.575C29.5698 14.575 29.3802 14.7583 29.3802 14.9909C29.3802 15.2235 29.5628 15.4068 29.7945 15.4068C30.0262 15.4068 30.2088 15.2235 30.2088 14.9909Z" fill="#C3C4C4"/>
<path fill-rule="evenodd" clip-rule="evenodd" d="M30.3001 25.1124C30.3001 24.6895 30.6442 24.3441 31.0655 24.3441C31.4868 24.3441 31.8309 24.6895 31.8309 25.1124C31.8309 25.5353 31.4868 25.8807 31.0655 25.8807C30.6442 25.8807 30.3001 25.5353 30.3001 25.1124ZM30.6512 25.1124C30.6512 25.345 30.8408 25.5283 31.0655 25.5283C31.2972 25.5283 31.4798 25.345 31.4798 25.1124C31.4798 24.8798 31.2972 24.6965 31.0655 24.6965C30.8338 24.6965 30.6512 24.8798 30.6512 25.1124Z" fill="#C3C4C4"/>
<path fill-rule="evenodd" clip-rule="evenodd" d="M32.828 21.2429C32.4067 21.2429 32.0626 20.8975 32.0626 20.4746C32.0626 20.0517 32.4067 19.7063 32.828 19.7063C33.2494 19.7063 33.5934 20.0517 33.5934 20.4746C33.5934 20.8975 33.2494 21.2429 32.828 21.2429ZM32.828 20.8904C33.0598 20.8904 33.2423 20.7001 33.2423 20.4746C33.2423 20.242 33.0598 20.0587 32.828 20.0587C32.5963 20.0587 32.4137 20.242 32.4137 20.4746C32.4137 20.7072 32.5963 20.8904 32.828 20.8904Z" fill="#C3C4C4"/>
<path fill-rule="evenodd" clip-rule="evenodd" d="M30.4546 20.9327C30.0332 20.9327 29.6891 20.5873 29.6891 20.1644C29.6891 19.7415 30.0332 19.3961 30.4546 19.3961C30.8759 19.3961 31.22 19.7415 31.22 20.1644C31.22 20.5873 30.8759 20.9327 30.4546 20.9327ZM30.4475 20.5803C30.6793 20.5803 30.8618 20.3899 30.8618 20.1644C30.8618 19.9318 30.6793 19.7485 30.4475 19.7485C30.2158 19.7485 30.0332 19.9318 30.0332 20.1644C30.0332 20.397 30.2158 20.5803 30.4475 20.5803Z" fill="#C3C4C4"/>
<path fill-rule="evenodd" clip-rule="evenodd" d="M33.1932 17.7328C33.1932 18.1557 32.8491 18.501 32.4278 18.501C32.0064 18.501 31.6624 18.1627 31.6624 17.7328C31.6624 17.3099 32.0064 16.9645 32.4278 16.9645C32.8491 16.9645 33.1932 17.3099 33.1932 17.7328ZM32.8421 17.7398C32.8421 17.5072 32.6525 17.3239 32.4278 17.3239C32.196 17.3239 32.0135 17.5072 32.0135 17.7398C32.0135 17.9724 32.196 18.1557 32.4278 18.1557C32.6595 18.1557 32.8421 17.9724 32.8421 17.7398Z" fill="#C3C4C4"/>
<path fill-rule="evenodd" clip-rule="evenodd" d="M26.3256 19.1424C26.3256 19.5653 25.9815 19.9107 25.5602 19.9107C25.1389 19.9107 24.7948 19.5653 24.7948 19.1424C24.7948 18.7195 25.1389 18.3741 25.5602 18.3741C25.9815 18.3741 26.3256 18.7195 26.3256 19.1424ZM25.9745 19.1495C25.9745 18.9169 25.7849 18.7336 25.5602 18.7336C25.3355 18.7336 25.1459 18.9169 25.1459 19.1495C25.1459 19.3821 25.3285 19.5653 25.5602 19.5653C25.7919 19.5653 25.9745 19.3821 25.9745 19.1495Z" fill="#C3C4C4"/>
<path fill-rule="evenodd" clip-rule="evenodd" d="M33.2985 15.6041C33.2985 16.027 32.9544 16.3724 32.5331 16.3724C32.1118 16.3724 31.7747 16.027 31.7677 15.6041C31.7677 15.1812 32.1118 14.8358 32.5331 14.8358C32.9544 14.8358 33.2985 15.1812 33.2985 15.6041ZM32.9474 15.6111C32.9474 15.3785 32.7578 15.1953 32.5331 15.1953C32.3084 15.1953 32.1188 15.3785 32.1188 15.6111C32.1188 15.8437 32.3014 16.027 32.5331 16.027C32.7648 16.027 32.9474 15.8437 32.9474 15.6111Z" fill="#C3C4C4"/>
<path fill-rule="evenodd" clip-rule="evenodd" d="M35.5175 16.4852C35.5175 16.9081 35.1734 17.2535 34.7521 17.2535C34.3308 17.2535 33.9937 16.9081 33.9867 16.4852C33.9867 16.0623 34.3308 15.7169 34.7521 15.7169C35.1734 15.7169 35.5175 16.0623 35.5175 16.4852ZM35.1664 16.4922C35.1664 16.2596 34.9768 16.0764 34.7521 16.0764C34.5274 16.0764 34.3378 16.2596 34.3378 16.4922C34.3378 16.7248 34.5204 16.9081 34.7521 16.9081C34.9838 16.9081 35.1664 16.7248 35.1664 16.4922Z" fill="#C3C4C4"/>
<path fill-rule="evenodd" clip-rule="evenodd" d="M27.3508 23.8084C27.3508 24.2313 27.0067 24.5767 26.5854 24.5767C26.1641 24.5767 25.82 24.2313 25.82 23.8084C25.82 23.3855 26.1641 23.0402 26.5854 23.0402C27.0067 23.0402 27.3508 23.3855 27.3508 23.8084ZM26.9997 23.8084C26.9997 23.5758 26.8101 23.3926 26.5854 23.3926C26.3607 23.3926 26.1711 23.5758 26.1711 23.8084C26.1711 24.041 26.3537 24.2243 26.5854 24.2243C26.8171 24.2243 26.9997 24.041 26.9997 23.8084Z" fill="#C3C4C4"/>
<path fill-rule="evenodd" clip-rule="evenodd" d="M31.4376 23.5266C31.0163 23.5266 30.6722 23.1812 30.6722 22.7583C30.6722 22.3354 31.0163 21.99 31.4376 21.99C31.859 21.99 32.2031 22.3354 32.2031 22.7583C32.2031 23.1812 31.859 23.5266 31.4376 23.5266ZM31.8449 22.7583C31.8449 22.5257 31.6553 22.3424 31.4306 22.3424C31.2059 22.3424 31.0163 22.5257 31.0163 22.7583C31.0163 22.9909 31.1989 23.1741 31.4306 23.1741C31.6624 23.1741 31.8449 22.9909 31.8449 22.7583Z" fill="#C3C4C4"/>
<path fill-rule="evenodd" clip-rule="evenodd" d="M35.5456 22.0534C35.1242 22.0534 34.7802 21.708 34.7802 21.2851C34.7802 20.8622 35.1242 20.5168 35.5456 20.5168C35.9669 20.5168 36.311 20.8622 36.311 21.2851C36.311 21.708 35.9669 22.0534 35.5456 22.0534ZM35.5385 21.701C35.7703 21.701 35.9528 21.5107 35.9528 21.2851C35.9528 21.0525 35.7703 20.8693 35.5385 20.8693C35.3068 20.8693 35.1242 21.0525 35.1242 21.2851C35.1242 21.5177 35.3068 21.701 35.5385 21.701Z" fill="#C3C4C4"/>
<path fill-rule="evenodd" clip-rule="evenodd" d="M33.783 24.3371C33.3617 24.3371 33.0176 23.9917 33.0176 23.5688C33.0176 23.1459 33.3617 22.8005 33.783 22.8005C34.2044 22.8005 34.5485 23.1459 34.5485 23.5688C34.5485 23.9917 34.2044 24.3371 33.783 24.3371ZM34.1973 23.5688C34.1973 23.3362 34.0078 23.153 33.783 23.153C33.5583 23.153 33.3687 23.3362 33.3687 23.5688C33.3687 23.8014 33.5513 23.9847 33.783 23.9847C34.0148 23.9847 34.1973 23.8014 34.1973 23.5688Z" fill="#C3C4C4"/>
</svg>
