<svg width="45" height="45" viewBox="0 0 45 45" fill="none" xmlns="http://www.w3.org/2000/svg">
<path fill-rule="evenodd" clip-rule="evenodd" d="M2.38338 22.4574C2.38338 23.3161 2.43895 24.173 2.55008 25.0388C3.22588 30.3684 5.94342 35.1172 10.1882 38.4031C14.433 41.6908 19.7122 43.125 25.0361 42.4402C30.3619 41.7661 35.1086 39.0592 38.3944 34.8106C41.6837 30.5602 43.1232 25.2844 42.4402 19.9549C41.7608 14.6271 39.0558 9.89447 34.8092 6.59598C30.5626 3.30646 25.2799 1.88129 19.9613 2.55175C14.6302 3.22937 9.88529 5.93808 6.59771 10.1938C3.84791 13.7469 2.38338 18.0296 2.38338 22.4574M45 22.5435C45 27.5002 43.3562 32.2902 40.2766 36.2734C36.6 41.0204 31.3012 44.0554 25.3391 44.8172C19.3752 45.5737 13.483 43.9657 8.72371 40.289C3.98056 36.6122 0.942147 31.2952 0.189266 25.3436C-0.585125 19.383 1.03536 13.4816 4.71013 8.72746C8.38849 3.98229 13.6945 0.945527 19.6566 0.18544C25.6205 -0.578233 31.5109 1.03337 36.2666 4.71369C41.0169 8.39043 44.0517 13.6949 44.8136 19.6519C44.9301 20.6253 45 21.5862 45 22.5435" fill="black"/>
<path fill-rule="evenodd" clip-rule="evenodd" d="M29 16.7483C29 17.0657 28.9227 17.3957 28.7437 17.679L23.0374 27.0658C22.8987 27.3383 22.6898 27.5625 22.4211 27.7328C22.1367 27.905 21.8277 28 21.5011 28C21.1938 28 20.8585 27.905 20.5776 27.7328C20.3054 27.5625 20.1018 27.3383 19.9648 27.0658L14.2656 17.679C13.7529 16.8362 14.0057 15.7388 14.8239 15.217C15.6491 14.697 16.7377 14.957 17.2381 15.8016L19.7524 19.9185V6.79489C19.7524 5.79793 20.5319 5 21.5011 5C22.4633 5 23.2569 5.79793 23.2569 6.79489V19.9221L25.7606 15.8016C26.2715 14.957 27.3548 14.697 28.1783 15.2278C28.7085 15.5631 29 16.1477 29 16.7483" fill="black"/>
<path fill-rule="evenodd" clip-rule="evenodd" d="M20.7726 32C17.4916 32 15.6513 30.5082 14.1735 29.306C13.1464 28.4704 12.3297 27.8106 11.2725 27.8106H1.87682C1.39421 27.8106 1 27.402 1 26.9053C1 26.4032 1.39421 26 1.87682 26H11.2725C12.9325 26 14.1116 26.9548 15.2536 27.8803C16.6466 29.0128 18.0908 30.1894 20.7726 30.1894C23.7336 30.1894 25.2044 28.9963 26.6292 27.8454C27.7464 26.9365 28.9114 26 30.6049 26H41.1267C41.6093 26 42 26.4032 42 26.9053C42 27.402 41.6093 27.8106 41.1267 27.8106H30.6049C29.5142 27.8106 28.7116 28.452 27.704 29.2767C26.2032 30.4899 24.3311 32 20.7726 32" fill="black"/>
</svg>
