<svg width="44" height="44" viewBox="0 0 44 44" fill="none" xmlns="http://www.w3.org/2000/svg">
<path fill-rule="evenodd" clip-rule="evenodd" d="M22.0289 2.33417C21.1936 2.33417 20.3502 2.38562 19.5177 2.49394C14.3069 3.15601 9.66483 5.80836 6.45231 9.96492C3.23438 14.1161 1.82915 19.2759 2.49521 24.4831C3.74204 34.2801 12.1192 41.6672 21.9748 41.6672C22.8087 41.6672 23.6494 41.6117 24.4847 41.5047C29.694 40.8426 34.3348 38.1916 37.55 34.0364C40.7666 29.8839 42.1705 24.7268 41.5085 19.5155C40.2616 9.72121 31.8858 2.33417 22.0289 2.33417M21.9748 44C10.9455 44 1.57735 35.7397 0.178891 24.781C-0.561627 18.9496 1.01282 13.1832 4.60576 8.53517C8.2014 3.88849 13.3945 0.919318 19.2212 0.177365C20.1512 0.0609268 21.0935 0 22.0289 0C33.0568 0 42.4277 8.26574 43.8207 19.2231C44.5626 25.049 42.9854 30.8181 39.3952 35.4648C35.7996 40.1115 30.6078 43.0793 24.7798 43.8213C23.8498 43.9391 22.9062 44 21.9748 44" fill="black"/>
<path fill-rule="evenodd" clip-rule="evenodd" d="M36.7906 23H8.20537C7.54228 23 7 22.5544 7 22.0022C7 21.4489 7.54228 21 8.20537 21H36.7906C37.4577 21 38 21.4489 38 22.0022C38 22.5544 37.4577 23 36.7906 23" fill="black"/>
<path fill-rule="evenodd" clip-rule="evenodd" d="M34.7761 17H9.22794C8.55196 17 8 16.5526 8 16.0006C8 15.4474 8.55196 15 9.22794 15H34.7761C35.4521 15 36 15.4474 36 16.0006C36 16.5526 35.4521 17 34.7761 17" fill="black"/>
<path fill-rule="evenodd" clip-rule="evenodd" d="M32.7741 11H11.2218C10.5492 11 10 10.5509 10 9.99722C10 9.4458 10.5492 9 11.2218 9H32.7741C33.4508 9 34 9.4458 34 9.99722C34 10.5509 33.4508 11 32.7741 11" fill="black"/>
<path fill-rule="evenodd" clip-rule="evenodd" d="M34.7761 29H9.22794C8.55196 29 8 28.5531 8 27.9983C8 27.448 8.55196 27 9.22794 27H34.7761C35.4521 27 36 27.448 36 27.9983C36 28.5531 35.4521 29 34.7761 29" fill="black"/>
<path fill-rule="evenodd" clip-rule="evenodd" d="M32.7741 35H11.2218C10.5492 35 10 34.5544 10 34.0033C10 33.4489 10.5492 33 11.2218 33H32.7741C33.4508 33 34 33.4489 34 34.0033C34 34.5544 33.4508 35 32.7741 35" fill="black"/>
<path fill-rule="evenodd" clip-rule="evenodd" d="M34.5058 16.9686L10.9596 11.452C10.2972 11.3004 9.88155 10.6387 10.0301 9.97014C10.1814 9.30021 10.8369 8.88115 11.4979 9.03003L35.0427 14.5467C35.7024 14.6997 36.1194 15.36 35.9695 16.0299C35.8223 16.6998 35.1654 17.1216 34.5058 16.9686" fill="black"/>
<path fill-rule="evenodd" clip-rule="evenodd" d="M32.506 34.9691L8.95964 29.4522C8.29724 29.3033 7.88154 28.6391 8.0301 27.9734C8.17867 27.3036 8.83561 26.8791 9.49392 27.0307L33.0444 32.549C33.7041 32.7006 34.1211 33.3621 33.9685 34.0333C33.8186 34.7003 33.1657 35.1207 32.506 34.9691" fill="black"/>
<path fill-rule="evenodd" clip-rule="evenodd" d="M34.4852 28.9695L6.97094 23.4508C6.30222 23.3033 5.88081 22.6388 6.03003 21.9716C6.17925 21.3015 6.84106 20.8811 7.51393 21.03L35.0295 26.5486C35.6982 26.7003 36.121 27.362 35.9691 28.0293C35.8198 28.7007 35.1539 29.1198 34.4852 28.9695" fill="black"/>
<path fill-rule="evenodd" clip-rule="evenodd" d="M36.4865 22.9696L8.96779 17.4524C8.2993 17.3049 7.88028 16.6392 8.03052 15.968C8.17938 15.3023 8.84236 14.8792 9.50949 15.0308L37.0323 20.5452C37.6981 20.6996 38.1199 21.3611 37.9696 22.0296C37.818 22.6994 37.155 23.1198 36.4865 22.9696" fill="black"/>
</svg>
