<svg width="233" height="65" viewBox="0 0 233 65" fill="none" xmlns="http://www.w3.org/2000/svg">
<path d="M33.596 50.06C33.764 50.06 33.8947 50.116 33.988 50.228C34.0813 50.3307 34.128 50.4707 34.128 50.648V59.482C34.128 59.6593 34.0767 59.804 33.974 59.916C33.8807 60.0187 33.7453 60.07 33.568 60.07C33.3907 60.07 33.2367 59.9907 33.106 59.832L27.296 52.062V59.482C27.296 59.6593 27.2447 59.804 27.142 59.916C27.0487 60.0187 26.918 60.07 26.75 60.07C26.582 60.07 26.4513 60.0187 26.358 59.916C26.2647 59.804 26.218 59.6593 26.218 59.482V50.648C26.218 50.4707 26.2647 50.3307 26.358 50.228C26.4607 50.116 26.6007 50.06 26.778 50.06C26.9647 50.06 27.1233 50.1393 27.254 50.298L33.05 58.068V50.648C33.05 50.4707 33.0967 50.3307 33.19 50.228C33.2927 50.116 33.428 50.06 33.596 50.06ZM40.8416 60.07C40.6643 60.07 40.5243 60.0187 40.4216 59.916C40.3189 59.804 40.2676 59.6593 40.2676 59.482V50.648C40.2676 50.4707 40.3189 50.3307 40.4216 50.228C40.5243 50.116 40.6643 50.06 40.8416 50.06C41.0189 50.06 41.1589 50.116 41.2616 50.228C41.3643 50.3307 41.4156 50.4707 41.4156 50.648V59.482C41.4156 59.6593 41.3643 59.804 41.2616 59.916C41.1589 60.0187 41.0189 60.07 40.8416 60.07ZM54.7876 50.354C54.8343 50.2513 54.8996 50.172 54.9836 50.116C55.077 50.06 55.175 50.032 55.2776 50.032C55.427 50.032 55.5576 50.0833 55.6696 50.186C55.791 50.2793 55.8516 50.396 55.8516 50.536C55.8516 50.6107 55.833 50.6853 55.7956 50.76L51.7776 59.692C51.7216 59.8133 51.6376 59.9067 51.5256 59.972C51.4136 60.0373 51.2923 60.07 51.1616 60.07C51.031 60.07 50.9096 60.0373 50.7976 59.972C50.6856 59.9067 50.6016 59.8133 50.5456 59.692L46.5416 50.76C46.5136 50.6853 46.4996 50.6153 46.4996 50.55C46.4996 50.4007 46.5603 50.2793 46.6816 50.186C46.803 50.0833 46.9383 50.032 47.0876 50.032C47.3116 50.032 47.475 50.1393 47.5776 50.354L51.1896 58.516L54.7876 50.354ZM61.5173 60C61.34 60 61.1953 59.9487 61.0833 59.846C60.9807 59.7433 60.9293 59.608 60.9293 59.44V50.69C60.9293 50.522 60.9807 50.3867 61.0833 50.284C61.1953 50.1813 61.34 50.13 61.5173 50.13H66.7533C66.9213 50.13 67.052 50.172 67.1453 50.256C67.2387 50.34 67.2853 50.4567 67.2853 50.606C67.2853 50.7553 67.2387 50.872 67.1453 50.956C67.052 51.04 66.9213 51.082 66.7533 51.082H62.0633V54.512H66.4733C66.6413 54.512 66.772 54.554 66.8653 54.638C66.9587 54.722 67.0053 54.8387 67.0053 54.988C67.0053 55.1373 66.9587 55.254 66.8653 55.338C66.772 55.422 66.6413 55.464 66.4733 55.464H62.0633V59.048H66.7533C66.9213 59.048 67.052 59.09 67.1453 59.174C67.2387 59.2487 67.2853 59.3653 67.2853 59.524C67.2853 59.6733 67.2387 59.79 67.1453 59.874C67.052 59.958 66.9213 60 66.7533 60H61.5173ZM73.3378 60C73.1791 60 73.0438 59.9533 72.9318 59.86C72.8291 59.7573 72.7778 59.6267 72.7778 59.468V50.648C72.7778 50.4707 72.8291 50.3307 72.9318 50.228C73.0344 50.116 73.1744 50.06 73.3518 50.06C73.5291 50.06 73.6691 50.116 73.7718 50.228C73.8744 50.3307 73.9258 50.4707 73.9258 50.648V59.02H78.4478C78.6158 59.02 78.7464 59.062 78.8398 59.146C78.9331 59.23 78.9798 59.3513 78.9798 59.51C78.9798 59.6687 78.9331 59.79 78.8398 59.874C78.7464 59.958 78.6158 60 78.4478 60H73.3378ZM91.9357 60C91.7584 60 91.6137 59.9487 91.5017 59.846C91.399 59.7433 91.3477 59.608 91.3477 59.44V50.69C91.3477 50.522 91.399 50.3867 91.5017 50.284C91.6137 50.1813 91.7584 50.13 91.9357 50.13H94.6657C96.243 50.13 97.461 50.5593 98.3197 51.418C99.1877 52.2673 99.6217 53.4807 99.6217 55.058C99.6217 56.6353 99.1877 57.8533 98.3197 58.712C97.4517 59.5707 96.2337 60 94.6657 60H91.9357ZM94.5957 59.02C97.153 59.02 98.4317 57.6993 98.4317 55.058C98.4317 52.426 97.153 51.11 94.5957 51.11H92.4957V59.02H94.5957ZM105.985 60C105.808 60 105.663 59.9487 105.551 59.846C105.449 59.7433 105.397 59.608 105.397 59.44V50.69C105.397 50.522 105.449 50.3867 105.551 50.284C105.663 50.1813 105.808 50.13 105.985 50.13H111.221C111.389 50.13 111.52 50.172 111.613 50.256C111.707 50.34 111.753 50.4567 111.753 50.606C111.753 50.7553 111.707 50.872 111.613 50.956C111.52 51.04 111.389 51.082 111.221 51.082H106.531V54.512H110.941C111.109 54.512 111.24 54.554 111.333 54.638C111.427 54.722 111.473 54.8387 111.473 54.988C111.473 55.1373 111.427 55.254 111.333 55.338C111.24 55.422 111.109 55.464 110.941 55.464H106.531V59.048H111.221C111.389 59.048 111.52 59.09 111.613 59.174C111.707 59.2487 111.753 59.3653 111.753 59.524C111.753 59.6733 111.707 59.79 111.613 59.874C111.52 59.958 111.389 60 111.221 60H105.985ZM125.129 60.07C124.952 60.07 124.812 60.0187 124.709 59.916C124.606 59.804 124.555 59.6593 124.555 59.482V50.69C124.555 50.522 124.606 50.3867 124.709 50.284C124.821 50.1813 124.966 50.13 125.143 50.13H130.239C130.407 50.13 130.538 50.172 130.631 50.256C130.724 50.34 130.771 50.4613 130.771 50.62C130.771 50.7693 130.724 50.886 130.631 50.97C130.538 51.054 130.407 51.096 130.239 51.096H125.689V54.498H129.959C130.127 54.498 130.258 54.54 130.351 54.624C130.444 54.708 130.491 54.8293 130.491 54.988C130.491 55.1373 130.444 55.254 130.351 55.338C130.258 55.422 130.127 55.464 129.959 55.464H125.689V59.482C125.689 59.6593 125.638 59.804 125.535 59.916C125.442 60.0187 125.306 60.07 125.129 60.07ZM136.622 60.07C136.445 60.07 136.305 60.0187 136.202 59.916C136.099 59.804 136.048 59.6593 136.048 59.482V50.648C136.048 50.4707 136.099 50.3307 136.202 50.228C136.305 50.116 136.445 50.06 136.622 50.06C136.799 50.06 136.939 50.116 137.042 50.228C137.145 50.3307 137.196 50.4707 137.196 50.648V59.482C137.196 59.6593 137.145 59.804 137.042 59.916C136.939 60.0187 136.799 60.07 136.622 60.07ZM150.862 59.286C150.927 59.3887 150.96 59.496 150.96 59.608C150.96 59.748 150.904 59.8647 150.792 59.958C150.689 60.042 150.568 60.084 150.428 60.084C150.213 60.084 150.045 59.9907 149.924 59.804L148.048 56.836C147.805 56.4533 147.553 56.192 147.292 56.052C147.031 55.9027 146.676 55.828 146.228 55.828H144.464V59.482C144.464 59.6593 144.413 59.804 144.31 59.916C144.207 60.0187 144.072 60.07 143.904 60.07C143.727 60.07 143.587 60.0187 143.484 59.916C143.381 59.804 143.33 59.6593 143.33 59.482V50.69C143.33 50.522 143.381 50.3867 143.484 50.284C143.596 50.1813 143.741 50.13 143.918 50.13H147.39C148.463 50.13 149.28 50.368 149.84 50.844C150.409 51.32 150.694 52.02 150.694 52.944C150.694 53.728 150.465 54.358 150.008 54.834C149.56 55.31 148.916 55.5993 148.076 55.702C148.309 55.7767 148.519 55.898 148.706 56.066C148.893 56.234 149.079 56.4673 149.266 56.766L150.862 59.286ZM147.292 54.876C148.057 54.876 148.627 54.7173 149 54.4C149.383 54.0827 149.574 53.602 149.574 52.958C149.574 52.3233 149.387 51.852 149.014 51.544C148.641 51.236 148.067 51.082 147.292 51.082H144.464V54.876H147.292ZM165.392 50.06C165.569 50.06 165.704 50.116 165.798 50.228C165.9 50.3307 165.952 50.4707 165.952 50.648V59.51C165.952 59.678 165.905 59.8133 165.812 59.916C165.718 60.0187 165.588 60.07 165.42 60.07C165.252 60.07 165.126 60.0187 165.042 59.916C164.958 59.8133 164.916 59.678 164.916 59.51V52.356L161.878 58.18C161.747 58.4507 161.556 58.586 161.304 58.586C161.061 58.586 160.87 58.4507 160.73 58.18L157.678 52.426V59.51C157.678 59.678 157.631 59.8133 157.538 59.916C157.454 60.0187 157.328 60.07 157.16 60.07C156.992 60.07 156.861 60.0187 156.768 59.916C156.674 59.8133 156.628 59.678 156.628 59.51V50.648C156.628 50.4707 156.679 50.3307 156.782 50.228C156.884 50.116 157.024 50.06 157.202 50.06C157.435 50.06 157.622 50.1953 157.762 50.466L161.318 57.284L164.832 50.466C164.906 50.3167 164.986 50.214 165.07 50.158C165.163 50.0927 165.27 50.06 165.392 50.06ZM172.687 60C172.51 60 172.365 59.9487 172.253 59.846C172.151 59.7433 172.099 59.608 172.099 59.44V50.69C172.099 50.522 172.151 50.3867 172.253 50.284C172.365 50.1813 172.51 50.13 172.687 50.13H177.923C178.091 50.13 178.222 50.172 178.315 50.256C178.409 50.34 178.455 50.4567 178.455 50.606C178.455 50.7553 178.409 50.872 178.315 50.956C178.222 51.04 178.091 51.082 177.923 51.082H173.233V54.512H177.643C177.811 54.512 177.942 54.554 178.035 54.638C178.129 54.722 178.175 54.8387 178.175 54.988C178.175 55.1373 178.129 55.254 178.035 55.338C177.942 55.422 177.811 55.464 177.643 55.464H173.233V59.048H177.923C178.091 59.048 178.222 59.09 178.315 59.174C178.409 59.2487 178.455 59.3653 178.455 59.524C178.455 59.6733 178.409 59.79 178.315 59.874C178.222 59.958 178.091 60 177.923 60H172.687ZM190.052 59.034C190.22 59.034 190.35 59.076 190.444 59.16C190.537 59.244 190.584 59.3607 190.584 59.51C190.584 59.6687 190.537 59.79 190.444 59.874C190.35 59.958 190.22 60 190.052 60H183.794C183.626 60 183.49 59.9533 183.388 59.86C183.294 59.7667 183.248 59.65 183.248 59.51C183.248 59.37 183.299 59.2253 183.402 59.076L189.002 51.096H183.794C183.626 51.096 183.495 51.054 183.402 50.97C183.308 50.886 183.262 50.7693 183.262 50.62C183.262 50.4613 183.308 50.34 183.402 50.256C183.495 50.172 183.626 50.13 183.794 50.13H189.898C190.066 50.13 190.196 50.1767 190.29 50.27C190.392 50.3633 190.444 50.48 190.444 50.62C190.444 50.7507 190.392 50.8907 190.29 51.04L184.676 59.034H190.052ZM204.267 59.342C204.304 59.4167 204.323 59.496 204.323 59.58C204.323 59.72 204.267 59.8367 204.155 59.93C204.052 60.0233 203.926 60.07 203.777 60.07C203.543 60.07 203.38 59.958 203.287 59.734L202.293 57.466H197.015L196.007 59.734C195.913 59.958 195.75 60.07 195.517 60.07C195.367 60.07 195.237 60.0233 195.125 59.93C195.013 59.8273 194.957 59.706 194.957 59.566C194.957 59.4913 194.975 59.4167 195.013 59.342L199.017 50.438C199.073 50.3073 199.157 50.2093 199.269 50.144C199.381 50.0787 199.502 50.046 199.633 50.046C199.773 50.046 199.899 50.0833 200.011 50.158C200.123 50.2233 200.207 50.3167 200.263 50.438L204.267 59.342ZM201.873 56.514L199.647 51.488L197.435 56.514H201.873Z" fill="#373737"/>
<g clip-path="url(#clip0)">
<path d="M4.352 34.17C3.92133 34.17 3.58133 34.0453 3.332 33.796C3.08267 33.524 2.958 33.1727 2.958 32.742V11.288C2.958 10.8573 3.08267 10.5173 3.332 10.268C3.58133 9.996 3.92133 9.86 4.352 9.86C4.78267 9.86 5.12267 9.996 5.372 10.268C5.62133 10.5173 5.746 10.8573 5.746 11.288V32.742C5.746 33.1727 5.62133 33.524 5.372 33.796C5.12267 34.0453 4.78267 34.17 4.352 34.17ZM19.5792 17.034C23.5459 17.034 25.5292 19.2213 25.5292 23.596V32.81C25.5292 33.2407 25.4046 33.5807 25.1552 33.83C24.9286 34.0567 24.5999 34.17 24.1692 34.17C23.7386 34.17 23.3986 34.0567 23.1492 33.83C22.8999 33.5807 22.7752 33.2407 22.7752 32.81V23.766C22.7752 22.2247 22.4692 21.1027 21.8572 20.4C21.2679 19.6973 20.3159 19.346 19.0012 19.346C17.4826 19.346 16.2699 19.8107 15.3632 20.74C14.4566 21.6693 14.0032 22.9273 14.0032 24.514V32.81C14.0032 33.2407 13.8786 33.5807 13.6292 33.83C13.4026 34.0567 13.0739 34.17 12.6432 34.17C12.2126 34.17 11.8726 34.0567 11.6232 33.83C11.3739 33.5807 11.2492 33.2407 11.2492 32.81V18.462C11.2492 18.054 11.3739 17.7253 11.6232 17.476C11.8726 17.2267 12.2126 17.102 12.6432 17.102C13.0512 17.102 13.3686 17.2267 13.5952 17.476C13.8446 17.7253 13.9692 18.0427 13.9692 18.428V20.162C14.5132 19.142 15.2726 18.3713 16.2472 17.85C17.2219 17.306 18.3326 17.034 19.5792 17.034ZM38.2234 31.994C39.0168 32.062 39.4134 32.4247 39.4134 33.082C39.4134 33.4673 39.2661 33.762 38.9714 33.966C38.6994 34.1473 38.2801 34.2153 37.7134 34.17L36.7954 34.102C34.9821 33.966 33.6448 33.422 32.7834 32.47C31.9221 31.518 31.4914 30.0787 31.4914 28.152V19.618H29.2134C28.8281 19.618 28.5221 19.5273 28.2954 19.346C28.0914 19.142 27.9894 18.8813 27.9894 18.564C27.9894 18.224 28.0914 17.952 28.2954 17.748C28.5221 17.544 28.8281 17.442 29.2134 17.442H31.4914V13.6C31.4914 13.1693 31.6161 12.8407 31.8654 12.614C32.1148 12.3647 32.4548 12.24 32.8854 12.24C33.2934 12.24 33.6221 12.3647 33.8714 12.614C34.1208 12.8407 34.2454 13.1693 34.2454 13.6V17.442H38.0194C38.3821 17.442 38.6654 17.544 38.8694 17.748C39.0961 17.952 39.2094 18.224 39.2094 18.564C39.2094 18.8813 39.0961 19.142 38.8694 19.346C38.6654 19.5273 38.3821 19.618 38.0194 19.618H34.2454V28.288C34.2454 29.5347 34.4948 30.4413 34.9934 31.008C35.5148 31.552 36.2854 31.858 37.3054 31.926L38.2234 31.994ZM54.9461 30.158C55.1955 30.158 55.4108 30.26 55.5921 30.464C55.7735 30.668 55.8641 30.9287 55.8641 31.246C55.8641 31.8127 55.4675 32.334 54.6741 32.81C53.8581 33.286 52.9968 33.6487 52.0901 33.898C51.1835 34.1247 50.2995 34.238 49.4381 34.238C46.8768 34.238 44.8481 33.4787 43.3521 31.96C41.8788 30.4413 41.1421 28.3447 41.1421 25.67C41.1421 23.97 41.4708 22.474 42.1281 21.182C42.7855 19.8673 43.7035 18.8473 44.8821 18.122C46.0835 17.3967 47.4435 17.034 48.9621 17.034C51.1155 17.034 52.8268 17.7367 54.0961 19.142C55.3655 20.5473 56.0001 22.4513 56.0001 24.854C56.0001 25.3073 55.9095 25.636 55.7281 25.84C55.5468 26.044 55.2521 26.146 54.8441 26.146H43.8961C44.1001 30.0447 45.9475 31.994 49.4381 31.994C50.3221 31.994 51.0815 31.8807 51.7161 31.654C52.3508 31.4047 53.0308 31.076 53.7561 30.668C54.3455 30.328 54.7421 30.158 54.9461 30.158ZM48.9961 19.176C47.5455 19.176 46.3781 19.6293 45.4941 20.536C44.6328 21.4427 44.1228 22.7233 43.9641 24.378H53.5861C53.5408 22.7007 53.1215 21.42 52.3281 20.536C51.5348 19.6293 50.4241 19.176 48.9961 19.176ZM68.2518 17.102C69.2038 17.034 69.6798 17.4193 69.6798 18.258C69.6798 18.6207 69.5778 18.9153 69.3738 19.142C69.1698 19.346 68.8185 19.4707 68.3198 19.516L67.2998 19.618C65.7811 19.754 64.6478 20.298 63.8998 21.25C63.1745 22.1793 62.8118 23.2787 62.8118 24.548V32.81C62.8118 33.2633 62.6871 33.6033 62.4378 33.83C62.1885 34.0567 61.8598 34.17 61.4518 34.17C61.0438 34.17 60.7038 34.0567 60.4318 33.83C60.1825 33.5807 60.0578 33.2407 60.0578 32.81V18.462C60.0578 18.0313 60.1938 17.7027 60.4658 17.476C60.7378 17.2267 61.0665 17.102 61.4518 17.102C61.8145 17.102 62.1205 17.2267 62.3698 17.476C62.6191 17.7027 62.7438 18.02 62.7438 18.428V20.332C63.2198 19.3347 63.8885 18.5753 64.7498 18.054C65.6338 17.5327 66.6425 17.2267 67.7758 17.136L68.2518 17.102ZM90.4721 17.034C94.1441 17.034 95.9801 19.2213 95.9801 23.596V32.81C95.9801 33.2407 95.8555 33.5807 95.6061 33.83C95.3568 34.0567 95.0281 34.17 94.6201 34.17C94.2121 34.17 93.8721 34.0567 93.6001 33.83C93.3508 33.5807 93.2261 33.2407 93.2261 32.81V23.664C93.2261 22.1453 92.9541 21.046 92.4101 20.366C91.8661 19.686 91.0161 19.346 89.8601 19.346C88.4775 19.346 87.3895 19.8107 86.5961 20.74C85.8028 21.6693 85.4061 22.9273 85.4061 24.514V32.81C85.4061 33.2407 85.2701 33.5807 84.9981 33.83C84.7488 34.0567 84.4201 34.17 84.0121 34.17C83.6041 34.17 83.2755 34.0567 83.0261 33.83C82.7768 33.5807 82.6521 33.2407 82.6521 32.81V23.664C82.6521 22.1453 82.3801 21.046 81.8361 20.366C81.2921 19.686 80.4308 19.346 79.2521 19.346C77.8921 19.346 76.8041 19.8107 75.9881 20.74C75.1948 21.6693 74.7981 22.9273 74.7981 24.514V32.81C74.7981 33.2407 74.6735 33.5807 74.4241 33.83C74.1748 34.0567 73.8461 34.17 73.4381 34.17C73.0301 34.17 72.6901 34.0567 72.4181 33.83C72.1688 33.5807 72.0441 33.2407 72.0441 32.81V18.462C72.0441 18.054 72.1688 17.7253 72.4181 17.476C72.6901 17.2267 73.0301 17.102 73.4381 17.102C73.8235 17.102 74.1408 17.2267 74.3901 17.476C74.6395 17.7027 74.7641 18.02 74.7641 18.428V20.06C75.2628 19.0853 75.9541 18.3373 76.8381 17.816C77.7221 17.2947 78.7421 17.034 79.8981 17.034C82.4821 17.034 84.1708 18.122 84.9641 20.298C85.4401 19.3007 86.1655 18.5073 87.1401 17.918C88.1148 17.3287 89.2255 17.034 90.4721 17.034ZM113.815 30.158C114.065 30.158 114.28 30.26 114.461 30.464C114.643 30.668 114.733 30.9287 114.733 31.246C114.733 31.8127 114.337 32.334 113.543 32.81C112.727 33.286 111.866 33.6487 110.959 33.898C110.053 34.1247 109.169 34.238 108.307 34.238C105.746 34.238 103.717 33.4787 102.221 31.96C100.748 30.4413 100.011 28.3447 100.011 25.67C100.011 23.97 100.34 22.474 100.997 21.182C101.655 19.8673 102.573 18.8473 103.751 18.122C104.953 17.3967 106.313 17.034 107.831 17.034C109.985 17.034 111.696 17.7367 112.965 19.142C114.235 20.5473 114.869 22.4513 114.869 24.854C114.869 25.3073 114.779 25.636 114.597 25.84C114.416 26.044 114.121 26.146 113.713 26.146H102.765C102.969 30.0447 104.817 31.994 108.307 31.994C109.191 31.994 109.951 31.8807 110.585 31.654C111.22 31.4047 111.9 31.076 112.625 30.668C113.215 30.328 113.611 30.158 113.815 30.158ZM107.865 19.176C106.415 19.176 105.247 19.6293 104.363 20.536C103.502 21.4427 102.992 22.7233 102.833 24.378H112.455C112.41 22.7007 111.991 21.42 111.197 20.536C110.404 19.6293 109.293 19.176 107.865 19.176ZM132.221 9.86C132.652 9.86 132.992 9.98467 133.241 10.234C133.49 10.4833 133.615 10.8007 133.615 11.186V32.81C133.615 33.218 133.49 33.5467 133.241 33.796C132.992 34.0453 132.652 34.17 132.221 34.17C131.79 34.17 131.45 34.0453 131.201 33.796C130.974 33.5467 130.861 33.218 130.861 32.81V30.974C130.362 32.0167 129.626 32.8213 128.651 33.388C127.699 33.9547 126.577 34.238 125.285 34.238C123.834 34.238 122.554 33.8753 121.443 33.15C120.332 32.4247 119.471 31.416 118.859 30.124C118.247 28.8093 117.941 27.2907 117.941 25.568C117.941 23.868 118.247 22.372 118.859 21.08C119.471 19.788 120.332 18.7907 121.443 18.088C122.554 17.3853 123.834 17.034 125.285 17.034C126.577 17.034 127.699 17.3173 128.651 17.884C129.626 18.4507 130.362 19.2553 130.861 20.298V11.186C130.861 10.778 130.974 10.4607 131.201 10.234C131.45 9.98467 131.79 9.86 132.221 9.86ZM125.829 31.96C127.438 31.96 128.674 31.416 129.535 30.328C130.419 29.2173 130.861 27.6533 130.861 25.636C130.861 23.6187 130.419 22.066 129.535 20.978C128.674 19.89 127.438 19.346 125.829 19.346C124.22 19.346 122.962 19.89 122.055 20.978C121.171 22.066 120.729 23.596 120.729 25.568C120.729 27.5853 121.171 29.1607 122.055 30.294C122.962 31.4047 124.22 31.96 125.829 31.96ZM140.11 34.17C139.702 34.17 139.362 34.0567 139.09 33.83C138.841 33.5807 138.716 33.2407 138.716 32.81V18.462C138.716 18.0313 138.841 17.7027 139.09 17.476C139.362 17.2267 139.702 17.102 140.11 17.102C140.518 17.102 140.847 17.2267 141.096 17.476C141.345 17.7027 141.47 18.0313 141.47 18.462V32.81C141.47 33.2633 141.345 33.6033 141.096 33.83C140.847 34.0567 140.518 34.17 140.11 34.17ZM140.11 13.532C139.566 13.532 139.124 13.3733 138.784 13.056C138.444 12.7387 138.274 12.3193 138.274 11.798C138.274 11.2993 138.444 10.8913 138.784 10.574C139.124 10.2567 139.566 10.098 140.11 10.098C140.654 10.098 141.096 10.2567 141.436 10.574C141.776 10.8913 141.946 11.2993 141.946 11.798C141.946 12.3193 141.776 12.7387 141.436 13.056C141.096 13.3733 140.654 13.532 140.11 13.532ZM153.384 17.034C157.532 17.034 159.606 19.21 159.606 23.562V32.81C159.606 33.218 159.482 33.5467 159.232 33.796C159.006 34.0453 158.688 34.17 158.28 34.17C157.872 34.17 157.544 34.0453 157.294 33.796C157.045 33.5467 156.92 33.218 156.92 32.81V31.178C156.49 32.1527 155.832 32.912 154.948 33.456C154.064 33.9773 153.044 34.238 151.888 34.238C150.823 34.238 149.837 34.0227 148.93 33.592C148.046 33.1613 147.344 32.5607 146.822 31.79C146.301 31.0193 146.04 30.1693 146.04 29.24C146.04 27.9933 146.358 27.03 146.992 26.35C147.627 25.6473 148.67 25.1487 150.12 24.854C151.571 24.5367 153.588 24.378 156.172 24.378H156.92V23.256C156.92 21.896 156.637 20.8987 156.07 20.264C155.526 19.6293 154.631 19.312 153.384 19.312C151.843 19.312 150.279 19.7313 148.692 20.57C148.08 20.9553 147.65 21.148 147.4 21.148C147.128 21.148 146.902 21.046 146.72 20.842C146.539 20.638 146.448 20.3773 146.448 20.06C146.448 19.7427 146.539 19.4707 146.72 19.244C146.924 18.9947 147.242 18.7453 147.672 18.496C148.466 18.0427 149.361 17.6913 150.358 17.442C151.378 17.17 152.387 17.034 153.384 17.034ZM152.262 32.062C153.622 32.062 154.733 31.6087 155.594 30.702C156.478 29.7727 156.92 28.5827 156.92 27.132V26.146H156.308C154.314 26.146 152.795 26.2367 151.752 26.418C150.71 26.5767 149.962 26.86 149.508 27.268C149.078 27.6533 148.862 28.2313 148.862 29.002C148.862 29.886 149.18 30.6227 149.814 31.212C150.472 31.7787 151.288 32.062 152.262 32.062Z" fill="#373737"/>
<path d="M180.34 34H232.731" stroke="#126ABF" stroke-width="2" stroke-linecap="square"/>
<path d="M185.338 29H228.662" stroke="#126ABF" stroke-width="2" stroke-linecap="square"/>
<path d="M189.337 24H223.67" stroke="#126ABF" stroke-width="2" stroke-linecap="square"/>
<path d="M192.337 19H220.663" stroke="#DCDCDC" stroke-width="2" stroke-linecap="square"/>
<path d="M196.339 14H216.763" stroke="#DCDCDC" stroke-width="2" stroke-linecap="square"/>
</g>
<defs>
<clipPath id="clip0">
<rect width="233" height="46" fill="white"/>
</clipPath>
</defs>
</svg>
