<svg width="267" height="54" viewBox="0 0 267 54" fill="none" xmlns="http://www.w3.org/2000/svg">
<path fill-rule="evenodd" clip-rule="evenodd" d="M8.94 5.29061H4.925V12.7106H8.94C11.951 12.7106 13.471 11.3116 13.471 9.00061C13.471 6.65861 11.951 5.29061 8.94 5.29061V5.29061ZM13.562 22.5636L9.457 16.6346H9.213H4.925V22.5636H0V1.27661H9.213C14.901 1.27661 18.459 4.22661 18.459 9.00061C18.459 12.1936 16.847 14.5356 14.08 15.7216L18.854 22.5636H13.562Z" fill="#192A38"/>
<path fill-rule="evenodd" clip-rule="evenodd" d="M25.5172 12.9547H33.5772C33.2422 10.8867 31.6912 9.54872 29.5622 9.54872C27.4032 9.54872 25.8522 10.8557 25.5172 12.9547M37.9552 15.7217H25.5792C26.0352 17.7597 27.7682 19.0067 30.2612 19.0067C31.9952 19.0067 33.2422 18.4887 34.3672 17.4247L36.8912 20.1617C35.3712 21.8947 33.0892 22.8077 30.1402 22.8077C24.4842 22.8077 20.8032 19.2497 20.8032 14.3837C20.8032 9.48772 24.5442 5.95972 29.5322 5.95972C34.3362 5.95972 38.0462 9.18372 38.0462 14.4437C38.0462 14.8087 37.9862 15.3267 37.9552 15.7217" fill="#192A38"/>
<path fill-rule="evenodd" clip-rule="evenodd" d="M39.6313 21.0435L41.2123 17.6375C42.6723 18.5805 44.8923 19.2195 46.8993 19.2195C49.0893 19.2195 49.9093 18.6415 49.9093 17.7295C49.9093 15.0525 40.0273 17.7895 40.0273 11.2515C40.0273 8.14847 42.8243 5.95947 47.5993 5.95947C49.8493 5.95947 52.3433 6.47747 53.8943 7.38947L52.3123 10.7645C50.7003 9.85247 49.0893 9.54847 47.5993 9.54847C45.4703 9.54847 44.5583 10.2175 44.5583 11.0685C44.5583 13.8665 54.4413 11.1595 54.4413 17.6065C54.4413 20.6475 51.6123 22.8075 46.7173 22.8075C43.9493 22.8075 41.1523 22.0475 39.6313 21.0435" fill="#192A38"/>
<path fill-rule="evenodd" clip-rule="evenodd" d="M67.9155 21.773C66.9415 22.473 65.5135 22.807 64.0535 22.807C60.1905 22.807 57.9405 20.831 57.9405 16.938V10.217H55.4165V6.56796H57.9405V2.58496H62.6855V6.56796H66.7605V10.217H62.6855V16.877C62.6855 18.276 63.4445 19.037 64.7225 19.037C65.4215 19.037 66.1215 18.824 66.6385 18.428L67.9155 21.773Z" fill="#192A38"/>
<path fill-rule="evenodd" clip-rule="evenodd" d="M69.5894 11.9204C69.5894 5.50338 74.5164 0.911377 81.1464 0.911377C84.8254 0.911377 87.8974 2.24938 89.9034 4.68238L86.7414 7.60238C85.3124 5.95938 83.5184 5.10838 81.3894 5.10838C77.4054 5.10838 74.5774 7.90538 74.5774 11.9204C74.5774 15.9344 77.4054 18.7324 81.3894 18.7324C83.5184 18.7324 85.3124 17.8804 86.7414 16.2084L89.9034 19.1274C87.8974 21.5914 84.8254 22.9294 81.1154 22.9294C74.5164 22.9294 69.5894 18.3364 69.5894 11.9204" fill="#192A38"/>
<path fill-rule="evenodd" clip-rule="evenodd" d="M102.467 17.394V15.721H99.2134C96.9934 15.721 96.2944 16.542 96.2944 17.637C96.2944 18.824 97.2974 19.614 98.9704 19.614C100.551 19.614 101.92 18.884 102.467 17.394M107.211 13.228V22.564H102.772V20.527C101.889 22.016 100.187 22.807 97.7834 22.807C93.9524 22.807 91.6714 20.678 91.6714 17.85C91.6714 14.961 93.7094 12.955 98.6964 12.955H102.467C102.467 10.916 101.25 9.73098 98.6964 9.73098C96.9634 9.73098 95.1684 10.308 93.9834 11.251L92.2794 7.93598C94.0734 6.65898 96.7204 5.95898 99.3354 5.95898C104.322 5.95898 107.211 8.27098 107.211 13.228" fill="#192A38"/>
<path fill-rule="evenodd" clip-rule="evenodd" d="M121.66 5.95947V10.3385C121.264 10.3085 120.961 10.2775 120.596 10.2775C117.98 10.2775 116.247 11.7075 116.247 14.8395V22.5635H111.503V6.20247H116.034V8.36147C117.189 6.78047 119.136 5.95947 121.66 5.95947Z" fill="#192A38"/>
<path fill-rule="evenodd" clip-rule="evenodd" d="M128.109 12.9547H136.169C135.834 10.8867 134.283 9.54872 132.154 9.54872C129.995 9.54872 128.444 10.8557 128.109 12.9547M140.547 15.7217H128.171C128.627 17.7597 130.36 19.0067 132.853 19.0067C134.587 19.0067 135.834 18.4887 136.959 17.4247L139.483 20.1617C137.963 21.8947 135.681 22.8077 132.732 22.8077C127.076 22.8077 123.395 19.2497 123.395 14.3837C123.395 9.48772 127.136 5.95972 132.124 5.95972C136.928 5.95972 140.638 9.18372 140.638 14.4437C140.638 14.8087 140.578 15.3267 140.547 15.7217" fill="#192A38"/>
<path fill-rule="evenodd" clip-rule="evenodd" d="M170.467 9.00061C170.467 6.65861 168.946 5.29061 165.936 5.29061H161.921V12.6806H165.936C168.946 12.6806 170.467 11.3126 170.467 9.00061M175.454 9.00061C175.454 13.7446 171.897 16.6946 166.209 16.6946H161.921V22.5636H156.995V1.27661H166.209C171.897 1.27661 175.454 4.22661 175.454 9.00061" fill="#192A38"/>
<path fill-rule="evenodd" clip-rule="evenodd" d="M190.876 14.3832C190.876 11.5552 189.082 9.85223 186.71 9.85223C184.338 9.85223 182.514 11.5552 182.514 14.3832C182.514 17.2112 184.338 18.9142 186.71 18.9142C189.082 18.9142 190.876 17.2112 190.876 14.3832M177.709 14.3832C177.709 9.45623 181.51 5.95923 186.71 5.95923C191.91 5.95923 195.682 9.45623 195.682 14.3832C195.682 19.3102 191.91 22.8072 186.71 22.8072C181.51 22.8072 177.709 19.3102 177.709 14.3832" fill="#192A38"/>
<path fill-rule="evenodd" clip-rule="evenodd" d="M197.631 14.3832C197.631 9.45623 201.432 5.95923 206.754 5.95923C210.191 5.95923 212.897 7.44923 214.083 10.1252L210.403 12.1032C209.521 10.5512 208.213 9.85223 206.724 9.85223C204.32 9.85223 202.436 11.5252 202.436 14.3832C202.436 17.2412 204.32 18.9142 206.724 18.9142C208.213 18.9142 209.521 18.2452 210.403 16.6642L214.083 18.6712C212.897 21.2862 210.191 22.8072 206.754 22.8072C201.432 22.8072 197.631 19.3102 197.631 14.3832" fill="#192A38"/>
<path fill-rule="evenodd" clip-rule="evenodd" d="M223.848 16.147L221.567 18.398V22.564H216.823V0H221.567V12.772L228.5 6.203H234.157L227.345 13.136L234.765 22.564H229.018L223.848 16.147Z" fill="#192A38"/>
<path fill-rule="evenodd" clip-rule="evenodd" d="M240.394 12.9547H248.454C248.119 10.8867 246.568 9.54872 244.439 9.54872C242.28 9.54872 240.729 10.8557 240.394 12.9547M252.832 15.7217H240.456C240.912 17.7597 242.645 19.0067 245.138 19.0067C246.872 19.0067 248.119 18.4887 249.244 17.4247L251.768 20.1617C250.248 21.8947 247.966 22.8077 245.017 22.8077C239.361 22.8077 235.68 19.2497 235.68 14.3837C235.68 9.48772 239.421 5.95972 244.409 5.95972C249.213 5.95972 252.923 9.18372 252.923 14.4437C252.923 14.8087 252.863 15.3267 252.832 15.7217" fill="#192A38"/>
<path fill-rule="evenodd" clip-rule="evenodd" d="M266.642 21.773C265.668 22.473 264.24 22.807 262.78 22.807C258.917 22.807 256.667 20.831 256.667 16.938V10.217H254.143V6.56796H256.667V2.58496H261.412V6.56796H265.487V10.217H261.412V16.877C261.412 18.276 262.171 19.037 263.449 19.037C264.148 19.037 264.848 18.824 265.365 18.428L266.642 21.773Z" fill="#192A38"/>
<path fill-rule="evenodd" clip-rule="evenodd" d="M35.567 32.1436C36.884 32.1436 38.525 32.6906 39.147 33.3366C39.147 33.9576 38.749 34.9776 37.879 34.9276C37.307 34.6286 36.239 34.3056 35.443 34.3056C34.126 34.3056 33.181 34.9276 33.181 36.0216C33.181 37.1896 34.002 37.7866 36.313 39.1036C38.55 40.3716 39.818 41.3156 39.818 43.6766C39.818 46.7586 37.133 48.4246 34.2 48.4246C32.485 48.4246 31.217 47.9276 30.571 47.4556C30.148 47.1816 30 46.9336 30 46.6106C30 46.0876 30.373 45.1676 30.596 45.0196C31.491 45.6406 32.982 46.1876 34.175 46.1876C35.667 46.1876 36.711 45.5406 36.711 44.2736C36.711 43.1796 36.139 42.5586 33.629 41.1916C30.745 39.6246 30.248 38.0346 30.248 36.5426C30.248 34.8526 31.441 32.1436 35.543 32.1436H35.567Z" fill="#192A38"/>
<path fill-rule="evenodd" clip-rule="evenodd" d="M47.1031 38.6564C45.5871 38.6564 44.7671 40.2214 44.7671 42.3594C44.7671 45.1934 45.9591 46.5104 47.3761 46.5104C48.9171 46.5104 49.6881 44.9944 49.6881 42.7084C49.6881 40.5944 48.9431 38.6564 47.1281 38.6564H47.1031ZM47.3761 36.8164C50.9571 36.8164 52.8451 39.3514 52.8451 42.4344C52.8451 45.9144 50.5831 48.3494 47.1031 48.3494C43.8971 48.3494 41.6101 46.2124 41.6101 42.6824C41.6101 39.3024 44.0211 36.8164 47.3521 36.8164H47.3761Z" fill="#192A38"/>
<mask id="mask0" mask-type="alpha" maskUnits="userSpaceOnUse" x="54" y="36" width="13" height="18">
<path fill-rule="evenodd" clip-rule="evenodd" d="M54.8115 36.8167H66.0465V53.3213H54.8115V36.8167Z" fill="white"/>
</mask>
<g mask="url(#mask0)">
<path fill-rule="evenodd" clip-rule="evenodd" d="M58.2915 46.1377C58.6395 46.2867 59.2355 46.4107 59.7075 46.4107C61.2735 46.4107 62.8895 45.2427 62.8895 42.4837C62.8895 40.5707 61.8705 39.1537 60.3295 39.1537C59.5095 39.1537 58.7135 39.5507 58.2915 39.8487V46.1377ZM58.2915 52.5267C58.2915 52.9487 58.2415 53.0977 57.7195 53.1977C56.8745 53.2967 56.1285 53.3216 55.2085 53.3216C55.2585 52.3516 55.2835 50.9597 55.2835 49.2697V39.5007C55.2835 38.8547 55.1595 38.3827 54.8115 38.2577V38.0837C55.1095 37.4387 55.8545 36.8167 56.7005 36.8167C57.5695 36.8167 57.9425 37.5867 58.0925 38.2837C59.4595 37.3387 60.5035 36.8167 61.5975 36.8167C64.1825 36.8167 66.0465 38.9297 66.0465 42.0617C66.0465 45.8897 63.2625 48.3497 60.0565 48.3497C59.3595 48.3497 58.7135 48.1757 58.2915 47.9277V52.5267Z" fill="#192A38"/>
</g>
<path fill-rule="evenodd" clip-rule="evenodd" d="M73.3814 38.6564C71.8654 38.6564 71.0454 40.2214 71.0454 42.3594C71.0454 45.1934 72.2374 46.5104 73.6544 46.5104C75.1954 46.5104 75.9664 44.9944 75.9664 42.7084C75.9664 40.5944 75.2214 38.6564 73.4064 38.6564H73.3814ZM73.6544 36.8164C77.2354 36.8164 79.1234 39.3514 79.1234 42.4344C79.1234 45.9144 76.8614 48.3494 73.3814 48.3494C70.1754 48.3494 67.8884 46.2124 67.8884 42.6824C67.8884 39.3024 70.2994 36.8164 73.6304 36.8164H73.6544Z" fill="#192A38"/>
<path fill-rule="evenodd" clip-rule="evenodd" d="M80.9897 38.1094C81.1887 37.5374 82.1337 36.8164 82.8037 36.8164C83.8977 36.8164 84.3457 37.8604 84.3707 39.4014C85.0917 37.7124 86.1357 36.8164 87.4527 36.8164C87.9257 36.8164 88.3967 37.0404 88.6207 37.2394C88.7457 37.5124 88.7197 38.2334 88.4717 38.7064C88.3727 39.2274 87.8757 39.8244 87.5027 39.8744C87.0057 39.6744 86.7317 39.6254 86.3087 39.6254C85.9117 39.6254 85.1907 39.9234 84.7937 40.9674C84.6437 41.3654 84.5697 41.6384 84.5697 42.1854V47.3804C84.5697 47.7784 84.5197 47.9774 84.0227 48.0764C83.1527 48.1754 82.3827 48.2014 81.4867 48.2014C81.5367 46.8834 81.5617 45.3674 81.5617 43.6764V39.4764C81.5617 38.9044 81.4127 38.4574 80.9897 38.2094V38.1094Z" fill="#192A38"/>
<path fill-rule="evenodd" clip-rule="evenodd" d="M97.4968 45.8146C97.6208 46.4116 97.5208 47.1816 97.0738 47.5546C96.4768 48.0766 95.4338 48.3496 94.3398 48.3496C91.8048 48.3496 90.9838 46.7346 90.9838 45.0196V39.0786C90.0638 39.0786 89.5918 38.6306 89.5918 38.3826C89.9398 37.6626 91.9528 35.8726 92.3758 35.5246C92.7988 35.1756 93.2708 34.8776 94.2398 34.7786C94.1408 35.5246 94.0908 36.4186 94.0908 37.1156H97.7698C97.4718 38.8306 96.9248 38.9046 96.4278 38.9546C95.8558 39.0036 95.0598 39.0536 94.0168 39.0536C93.9168 41.0916 93.9418 43.5026 94.0418 44.5466C94.1658 45.7646 94.8368 46.2116 95.6818 46.2116C96.4278 46.2116 97.1238 45.9636 97.4218 45.7646L97.4968 45.8146Z" fill="#192A38"/>
<path fill-rule="evenodd" clip-rule="evenodd" d="M103.613 38.5567C102.693 38.5567 101.699 39.4267 101.599 41.2907C102.619 41.3657 104.533 41.3407 105.13 41.2907C105.303 41.2907 105.453 41.0417 105.453 40.7687C105.477 39.5507 104.906 38.5567 103.638 38.5567H103.613ZM107.789 45.5907C107.789 46.6847 106.919 47.7037 106.497 47.9027C106.124 48.0767 105.054 48.3497 104.185 48.3497C100.555 48.3497 98.5669 46.3617 98.5669 42.7077C98.5669 39.7007 100.531 36.8167 103.886 36.8167C107.044 36.8167 108.261 39.1037 108.286 41.0917C108.286 41.4397 108.261 41.7127 108.212 41.9117C108.137 42.2857 107.142 42.6327 106.124 42.8817C105.503 43.0307 102.917 43.0557 101.55 43.0057C101.675 45.1937 103.265 46.1137 104.956 46.1137C106.148 46.1137 107.317 45.7407 107.739 45.5407L107.789 45.5907Z" fill="#192A38"/>
<path fill-rule="evenodd" clip-rule="evenodd" d="M115.375 52.1034C116.12 51.2834 117.611 49.2194 118.531 47.4804C118.407 47.3054 118.134 46.7844 117.984 46.3864C117.513 45.1934 115.35 39.4764 114.405 37.4874C115.102 37.1394 116.319 36.8164 116.94 36.8164C117.388 36.8164 117.513 37.1154 117.687 37.5124C118.308 39.1274 119.501 42.6084 120.098 44.4724C120.992 42.2104 122.061 38.5814 122.384 36.8164C122.881 36.8414 123.478 36.9154 124.1 37.0894C124.695 37.2394 124.771 37.5624 124.621 38.1594C123.975 40.7444 122.956 43.9004 121.514 46.9084C119.923 50.2134 117.96 53.1224 117.388 53.1224C116.518 53.1224 115.648 52.5754 115.375 52.2034V52.1034Z" fill="#192A38"/>
<mask id="mask1" mask-type="alpha" maskUnits="userSpaceOnUse" x="131" y="36" width="12" height="18">
<path fill-rule="evenodd" clip-rule="evenodd" d="M131.385 36.8167H142.62V53.3213H131.385V36.8167Z" fill="white"/>
</mask>
<g mask="url(#mask1)">
<path fill-rule="evenodd" clip-rule="evenodd" d="M134.865 46.1377C135.213 46.2867 135.809 46.4107 136.281 46.4107C137.847 46.4107 139.463 45.2427 139.463 42.4837C139.463 40.5707 138.444 39.1537 136.903 39.1537C136.083 39.1537 135.287 39.5507 134.865 39.8487V46.1377ZM134.865 52.5267C134.865 52.9487 134.815 53.0977 134.293 53.1977C133.448 53.2967 132.702 53.3216 131.782 53.3216C131.832 52.3516 131.857 50.9597 131.857 49.2697V39.5007C131.857 38.8547 131.733 38.3827 131.385 38.2577V38.0837C131.683 37.4387 132.428 36.8167 133.274 36.8167C134.144 36.8167 134.516 37.5867 134.666 38.2837C136.033 37.3387 137.077 36.8167 138.171 36.8167C140.756 36.8167 142.62 38.9297 142.62 42.0617C142.62 45.8897 139.836 48.3497 136.63 48.3497C135.933 48.3497 135.287 48.1757 134.865 47.9277V52.5267Z" fill="#192A38"/>
</g>
<path fill-rule="evenodd" clip-rule="evenodd" d="M144.561 38.1094C144.76 37.5374 145.705 36.8164 146.375 36.8164C147.469 36.8164 147.917 37.8604 147.942 39.4014C148.663 37.7124 149.707 36.8164 151.024 36.8164C151.497 36.8164 151.968 37.0404 152.193 37.2394C152.317 37.5124 152.291 38.2334 152.043 38.7064C151.944 39.2274 151.447 39.8244 151.074 39.8744C150.577 39.6744 150.303 39.6254 149.88 39.6254C149.483 39.6254 148.762 39.9234 148.365 40.9674C148.215 41.3654 148.141 41.6384 148.141 42.1854V47.3804C148.141 47.7784 148.091 47.9774 147.594 48.0764C146.724 48.1754 145.954 48.2014 145.058 48.2014C145.108 46.8834 145.133 45.3674 145.133 43.6764V39.4764C145.133 38.9044 144.984 38.4574 144.561 38.2094V38.1094Z" fill="#192A38"/>
<path fill-rule="evenodd" clip-rule="evenodd" d="M158.358 38.6564C156.842 38.6564 156.022 40.2214 156.022 42.3594C156.022 45.1934 157.214 46.5104 158.631 46.5104C160.172 46.5104 160.943 44.9944 160.943 42.7084C160.943 40.5944 160.198 38.6564 158.383 38.6564H158.358ZM158.631 36.8164C162.212 36.8164 164.1 39.3514 164.1 42.4344C164.1 45.9144 161.838 48.3494 158.358 48.3494C155.152 48.3494 152.865 46.2124 152.865 42.6824C152.865 39.3024 155.276 36.8164 158.607 36.8164H158.631Z" fill="#192A38"/>
<path fill-rule="evenodd" clip-rule="evenodd" d="M173.201 45.8146C173.325 46.4116 173.225 47.1816 172.778 47.5546C172.181 48.0766 171.138 48.3496 170.044 48.3496C167.509 48.3496 166.688 46.7346 166.688 45.0196V39.0786C165.768 39.0786 165.296 38.6306 165.296 38.3826C165.644 37.6626 167.657 35.8726 168.08 35.5246C168.503 35.1756 168.974 34.8776 169.944 34.7786C169.845 35.5246 169.795 36.4186 169.795 37.1156H173.474C173.176 38.8306 172.629 38.9046 172.132 38.9546C171.56 39.0036 170.764 39.0536 169.721 39.0536C169.621 41.0916 169.646 43.5026 169.746 44.5466C169.87 45.7646 170.541 46.2116 171.386 46.2116C172.132 46.2116 172.828 45.9636 173.126 45.7646L173.201 45.8146Z" fill="#192A38"/>
<path fill-rule="evenodd" clip-rule="evenodd" d="M179.317 38.5567C178.397 38.5567 177.403 39.4267 177.303 41.2907C178.323 41.3657 180.237 41.3407 180.834 41.2907C181.007 41.2907 181.157 41.0417 181.157 40.7687C181.181 39.5507 180.61 38.5567 179.342 38.5567H179.317ZM183.493 45.5907C183.493 46.6847 182.623 47.7037 182.201 47.9027C181.828 48.0767 180.758 48.3497 179.889 48.3497C176.259 48.3497 174.271 46.3617 174.271 42.7077C174.271 39.7007 176.235 36.8167 179.59 36.8167C182.748 36.8167 183.965 39.1037 183.99 41.0917C183.99 41.4397 183.965 41.7127 183.916 41.9117C183.841 42.2857 182.846 42.6327 181.828 42.8817C181.207 43.0307 178.621 43.0557 177.254 43.0057C177.379 45.1937 178.969 46.1137 180.66 46.1137C181.852 46.1137 183.021 45.7407 183.443 45.5407L183.493 45.5907Z" fill="#192A38"/>
<path fill-rule="evenodd" clip-rule="evenodd" d="M194.904 45.7149C194.88 46.4369 194.532 47.3059 194.084 47.7039C193.363 48.1519 192.319 48.3499 191.275 48.3499C188.044 48.3499 185.534 46.4859 185.534 42.8319C185.534 39.2529 188.218 36.8169 191.674 36.8169C193.363 36.8169 194.556 37.3389 195.004 37.7609C195.004 38.4069 194.68 39.3269 193.81 39.3019C193.239 39.0779 192.468 38.9039 191.798 38.9039C190.008 38.9039 188.616 40.1479 188.616 42.4089C188.616 45.1189 190.455 46.1129 192.171 46.1129C193.239 46.1129 194.183 45.9139 194.855 45.6409L194.904 45.7149Z" fill="#192A38"/>
<path fill-rule="evenodd" clip-rule="evenodd" d="M205.495 45.7149C205.471 46.4369 205.123 47.3059 204.675 47.7039C203.954 48.1519 202.91 48.3499 201.866 48.3499C198.635 48.3499 196.125 46.4859 196.125 42.8319C196.125 39.2529 198.809 36.8169 202.265 36.8169C203.954 36.8169 205.147 37.3389 205.595 37.7609C205.595 38.4069 205.271 39.3269 204.401 39.3019C203.83 39.0779 203.059 38.9039 202.389 38.9039C200.599 38.9039 199.207 40.1479 199.207 42.4089C199.207 45.1189 201.046 46.1129 202.762 46.1129C203.83 46.1129 204.774 45.9139 205.446 45.6409L205.495 45.7149Z" fill="#192A38"/>
<path fill-rule="evenodd" clip-rule="evenodd" d="M210.518 47.4552C210.518 47.9022 210.344 48.0272 209.797 48.1012C209.3 48.1762 208.406 48.2012 207.436 48.2012C207.461 47.1822 207.511 45.7402 207.511 44.2992V40.0482C207.511 38.5312 207.461 37.7612 207.412 37.2642C207.983 37.0902 209.549 36.9662 210.071 36.9662C210.419 36.9662 210.518 37.0902 210.518 38.5312V47.4552ZM209.077 31.5972C210.021 31.5972 210.593 32.2932 210.593 33.2122C210.593 34.1572 209.921 34.9022 208.977 34.9022C208.206 34.9022 207.412 34.4312 207.412 33.2872C207.412 32.0692 208.43 31.5972 209.052 31.5972H209.077Z" fill="#192A38"/>
<path fill-rule="evenodd" clip-rule="evenodd" d="M219.145 31C219.841 31 220.512 31.373 220.885 31.721C221.059 31.846 221.084 31.944 220.835 32.218C219.767 33.387 218.673 34.853 218.001 35.673C217.604 35.599 217.356 35.425 217.132 35.275C216.983 35.176 216.908 35.002 217.082 34.579C217.43 33.61 218.474 31 219.121 31H219.145ZM218.325 38.656C216.809 38.656 215.989 40.222 215.989 42.359C215.989 45.193 217.181 46.511 218.598 46.511C220.139 46.511 220.91 44.994 220.91 42.708C220.91 40.595 220.165 38.656 218.35 38.656H218.325ZM218.598 36.816C222.178 36.816 224.067 39.352 224.067 42.435C224.067 45.914 221.805 48.35 218.325 48.35C215.119 48.35 212.832 46.212 212.832 42.683C212.832 39.302 215.243 36.816 218.574 36.816H218.598Z" fill="#192A38"/>
<path fill-rule="evenodd" clip-rule="evenodd" d="M233.515 41.3409C233.515 39.8989 232.744 39.0779 231.651 39.0779C230.681 39.0779 230.06 39.5269 229.513 39.9979V47.4309C229.513 47.8779 229.438 48.0019 228.941 48.0519C228.096 48.1759 227.326 48.2009 226.43 48.2009C226.48 46.8839 226.505 45.3669 226.505 43.6769V39.6009C226.505 38.8549 226.406 38.4829 226.033 38.2579V38.0839C226.282 37.4629 227.126 36.8169 227.897 36.8169C228.841 36.8169 229.214 37.7119 229.364 38.4829C230.382 37.5869 231.576 36.8169 232.819 36.8169C235.975 36.8169 236.522 39.4269 236.522 41.3649V44.4969C236.522 45.7899 236.547 47.1569 236.621 48.0019C236.05 48.0519 235.056 48.2009 234.012 48.2009C233.639 48.2009 233.515 48.0519 233.515 47.7289V41.3409Z" fill="#192A38"/>
</svg>
