<svg width="732" height="39" viewBox="0 0 732 39" fill="none" xmlns="http://www.w3.org/2000/svg">
<path d="M674.658 37.7399H746.285V33.7238H676.32L653.612 11.02H22.3502V15.0361H651.949L674.658 37.7399Z" fill="#C3C4C4"/>
<path fill-rule="evenodd" clip-rule="evenodd" d="M24.6956 13.1876C24.6956 19.6622 19.4267 24.9294 12.9508 24.9294C6.47493 24.9294 1.20677 19.6622 1.20677 13.1876C1.20677 6.7136 6.47493 1.4458 12.9508 1.4458C19.4267 1.4458 24.6956 6.7136 24.6956 13.1876ZM20.6787 13.1876C20.6787 8.92782 17.2121 5.46191 12.9508 5.46191C8.69024 5.46191 5.22367 8.92782 5.22367 13.1876C5.22367 17.448 8.69024 20.9132 12.9508 20.9132C17.2121 20.9132 20.6787 17.448 20.6787 13.1876Z" fill="#C3C4C4"/>
</svg>
