<svg width="920" height="41" viewBox="0 0 920 41" fill="none" xmlns="http://www.w3.org/2000/svg">
<mask id="mask0" mask-type="alpha" maskUnits="userSpaceOnUse" x="-12" y="0" width="932" height="41">
<rect x="-12" width="932" height="40.0808" fill="white"/>
</mask>
<g mask="url(#mask0)">
<path d="M58.3425 37.7399H-13.2854V33.7238H56.6795L79.3877 11.02H710.65V15.0361H81.0507L58.3425 37.7399Z" fill="#C3C4C4"/>
<path fill-rule="evenodd" clip-rule="evenodd" d="M708.304 13.1876C708.304 19.6622 713.573 24.9294 720.049 24.9294C726.525 24.9294 731.793 19.6622 731.793 13.1876C731.793 6.7136 726.525 1.4458 720.049 1.4458C713.573 1.4458 708.304 6.7136 708.304 13.1876ZM712.321 13.1876C712.321 8.92782 715.788 5.46191 720.049 5.46191C724.31 5.46191 727.776 8.92782 727.776 13.1876C727.776 17.448 724.31 20.9132 720.049 20.9132C715.788 20.9132 712.321 17.448 712.321 13.1876Z" fill="#C3C4C4"/>
</g>
</svg>
