<svg width="193" height="76" viewBox="0 0 193 76" fill="none" xmlns="http://www.w3.org/2000/svg">
<path d="M10.596 61.06C10.764 61.06 10.8947 61.116 10.988 61.228C11.0813 61.3307 11.128 61.4707 11.128 61.648V70.482C11.128 70.6593 11.0767 70.804 10.974 70.916C10.8807 71.0187 10.7453 71.07 10.568 71.07C10.3907 71.07 10.2367 70.9907 10.106 70.832L4.296 63.062V70.482C4.296 70.6593 4.24467 70.804 4.142 70.916C4.04867 71.0187 3.918 71.07 3.75 71.07C3.582 71.07 3.45133 71.0187 3.358 70.916C3.26467 70.804 3.218 70.6593 3.218 70.482V61.648C3.218 61.4707 3.26467 61.3307 3.358 61.228C3.46067 61.116 3.60067 61.06 3.778 61.06C3.96467 61.06 4.12333 61.1393 4.254 61.298L10.05 69.068V61.648C10.05 61.4707 10.0967 61.3307 10.19 61.228C10.2927 61.116 10.428 61.06 10.596 61.06ZM17.8416 71.07C17.6643 71.07 17.5243 71.0187 17.4216 70.916C17.3189 70.804 17.2676 70.6593 17.2676 70.482V61.648C17.2676 61.4707 17.3189 61.3307 17.4216 61.228C17.5243 61.116 17.6643 61.06 17.8416 61.06C18.0189 61.06 18.1589 61.116 18.2616 61.228C18.3643 61.3307 18.4156 61.4707 18.4156 61.648V70.482C18.4156 70.6593 18.3643 70.804 18.2616 70.916C18.1589 71.0187 18.0189 71.07 17.8416 71.07ZM31.7876 61.354C31.8343 61.2513 31.8996 61.172 31.9836 61.116C32.077 61.06 32.175 61.032 32.2776 61.032C32.427 61.032 32.5576 61.0833 32.6696 61.186C32.791 61.2793 32.8516 61.396 32.8516 61.536C32.8516 61.6107 32.833 61.6853 32.7956 61.76L28.7776 70.692C28.7216 70.8133 28.6376 70.9067 28.5256 70.972C28.4136 71.0373 28.2923 71.07 28.1616 71.07C28.031 71.07 27.9096 71.0373 27.7976 70.972C27.6856 70.9067 27.6016 70.8133 27.5456 70.692L23.5416 61.76C23.5136 61.6853 23.4996 61.6153 23.4996 61.55C23.4996 61.4007 23.5603 61.2793 23.6816 61.186C23.803 61.0833 23.9383 61.032 24.0876 61.032C24.3116 61.032 24.475 61.1393 24.5776 61.354L28.1896 69.516L31.7876 61.354ZM38.5173 71C38.34 71 38.1953 70.9487 38.0833 70.846C37.9807 70.7433 37.9293 70.608 37.9293 70.44V61.69C37.9293 61.522 37.9807 61.3867 38.0833 61.284C38.1953 61.1813 38.34 61.13 38.5173 61.13H43.7533C43.9213 61.13 44.052 61.172 44.1453 61.256C44.2387 61.34 44.2853 61.4567 44.2853 61.606C44.2853 61.7553 44.2387 61.872 44.1453 61.956C44.052 62.04 43.9213 62.082 43.7533 62.082H39.0633V65.512H43.4733C43.6413 65.512 43.772 65.554 43.8653 65.638C43.9587 65.722 44.0053 65.8387 44.0053 65.988C44.0053 66.1373 43.9587 66.254 43.8653 66.338C43.772 66.422 43.6413 66.464 43.4733 66.464H39.0633V70.048H43.7533C43.9213 70.048 44.052 70.09 44.1453 70.174C44.2387 70.2487 44.2853 70.3653 44.2853 70.524C44.2853 70.6733 44.2387 70.79 44.1453 70.874C44.052 70.958 43.9213 71 43.7533 71H38.5173ZM50.3378 71C50.1791 71 50.0438 70.9533 49.9318 70.86C49.8291 70.7573 49.7778 70.6267 49.7778 70.468V61.648C49.7778 61.4707 49.8291 61.3307 49.9318 61.228C50.0344 61.116 50.1744 61.06 50.3518 61.06C50.5291 61.06 50.6691 61.116 50.7718 61.228C50.8744 61.3307 50.9258 61.4707 50.9258 61.648V70.02H55.4478C55.6158 70.02 55.7464 70.062 55.8398 70.146C55.9331 70.23 55.9798 70.3513 55.9798 70.51C55.9798 70.6687 55.9331 70.79 55.8398 70.874C55.7464 70.958 55.6158 71 55.4478 71H50.3378ZM68.9357 71C68.7584 71 68.6137 70.9487 68.5017 70.846C68.399 70.7433 68.3477 70.608 68.3477 70.44V61.69C68.3477 61.522 68.399 61.3867 68.5017 61.284C68.6137 61.1813 68.7584 61.13 68.9357 61.13H71.6657C73.243 61.13 74.461 61.5593 75.3197 62.418C76.1877 63.2673 76.6217 64.4807 76.6217 66.058C76.6217 67.6353 76.1877 68.8533 75.3197 69.712C74.4517 70.5707 73.2337 71 71.6657 71H68.9357ZM71.5957 70.02C74.153 70.02 75.4317 68.6993 75.4317 66.058C75.4317 63.426 74.153 62.11 71.5957 62.11H69.4957V70.02H71.5957ZM82.9853 71C82.808 71 82.6633 70.9487 82.5513 70.846C82.4486 70.7433 82.3973 70.608 82.3973 70.44V61.69C82.3973 61.522 82.4486 61.3867 82.5513 61.284C82.6633 61.1813 82.808 61.13 82.9853 61.13H88.2213C88.3893 61.13 88.52 61.172 88.6133 61.256C88.7066 61.34 88.7533 61.4567 88.7533 61.606C88.7533 61.7553 88.7066 61.872 88.6133 61.956C88.52 62.04 88.3893 62.082 88.2213 62.082H83.5313V65.512H87.9413C88.1093 65.512 88.24 65.554 88.3333 65.638C88.4266 65.722 88.4733 65.8387 88.4733 65.988C88.4733 66.1373 88.4266 66.254 88.3333 66.338C88.24 66.422 88.1093 66.464 87.9413 66.464H83.5313V70.048H88.2213C88.3893 70.048 88.52 70.09 88.6133 70.174C88.7066 70.2487 88.7533 70.3653 88.7533 70.524C88.7533 70.6733 88.7066 70.79 88.6133 70.874C88.52 70.958 88.3893 71 88.2213 71H82.9853ZM105.741 71.112C104.808 71.112 104 70.9113 103.319 70.51C102.638 70.0993 102.11 69.516 101.737 68.76C101.373 67.9947 101.191 67.094 101.191 66.058C101.191 65.0313 101.373 64.14 101.737 63.384C102.11 62.6187 102.638 62.0353 103.319 61.634C104 61.2233 104.808 61.018 105.741 61.018C106.366 61.018 106.954 61.1207 107.505 61.326C108.065 61.522 108.55 61.8067 108.961 62.18C109.11 62.32 109.185 62.4833 109.185 62.67C109.185 62.8007 109.148 62.9173 109.073 63.02C108.998 63.1133 108.91 63.16 108.807 63.16C108.695 63.16 108.56 63.1087 108.401 63.006C107.925 62.6327 107.491 62.3713 107.099 62.222C106.716 62.0727 106.273 61.998 105.769 61.998C104.686 61.998 103.851 62.3527 103.263 63.062C102.684 63.762 102.395 64.7607 102.395 66.058C102.395 67.3647 102.684 68.3727 103.263 69.082C103.851 69.782 104.686 70.132 105.769 70.132C106.264 70.132 106.707 70.0573 107.099 69.908C107.491 69.7587 107.925 69.4973 108.401 69.124C108.56 69.0213 108.695 68.97 108.807 68.97C108.91 68.97 108.998 69.0167 109.073 69.11C109.148 69.2033 109.185 69.32 109.185 69.46C109.185 69.6467 109.11 69.81 108.961 69.95C108.55 70.3233 108.065 70.6127 107.505 70.818C106.954 71.014 106.366 71.112 105.741 71.112ZM118.709 71.112C117.795 71.112 116.997 70.9067 116.315 70.496C115.643 70.0853 115.125 69.502 114.761 68.746C114.397 67.99 114.215 67.0987 114.215 66.072C114.215 65.036 114.393 64.14 114.747 63.384C115.111 62.6187 115.629 62.0353 116.301 61.634C116.983 61.2233 117.785 61.018 118.709 61.018C119.633 61.018 120.431 61.2233 121.103 61.634C121.785 62.0353 122.303 62.6187 122.657 63.384C123.021 64.14 123.203 65.0313 123.203 66.058C123.203 67.0847 123.021 67.9807 122.657 68.746C122.293 69.502 121.771 70.0853 121.089 70.496C120.417 70.9067 119.624 71.112 118.709 71.112ZM118.709 70.132C119.755 70.132 120.567 69.782 121.145 69.082C121.733 68.3727 122.027 67.3647 122.027 66.058C122.027 64.7513 121.738 63.748 121.159 63.048C120.581 62.348 119.764 61.998 118.709 61.998C117.664 61.998 116.847 62.3527 116.259 63.062C115.681 63.762 115.391 64.7607 115.391 66.058C115.391 67.3553 115.681 68.3587 116.259 69.068C116.847 69.7773 117.664 70.132 118.709 70.132ZM136.349 61.06C136.517 61.06 136.647 61.116 136.741 61.228C136.834 61.3307 136.881 61.4707 136.881 61.648V70.482C136.881 70.6593 136.829 70.804 136.727 70.916C136.633 71.0187 136.498 71.07 136.321 71.07C136.143 71.07 135.989 70.9907 135.859 70.832L130.049 63.062V70.482C130.049 70.6593 129.997 70.804 129.895 70.916C129.801 71.0187 129.671 71.07 129.503 71.07C129.335 71.07 129.204 71.0187 129.111 70.916C129.017 70.804 128.971 70.6593 128.971 70.482V61.648C128.971 61.4707 129.017 61.3307 129.111 61.228C129.213 61.116 129.353 61.06 129.531 61.06C129.717 61.06 129.876 61.1393 130.007 61.298L135.803 69.068V61.648C135.803 61.4707 135.849 61.3307 135.943 61.228C136.045 61.116 136.181 61.06 136.349 61.06ZM143.594 71.07C143.417 71.07 143.277 71.0187 143.174 70.916C143.072 70.804 143.02 70.6593 143.02 70.482V61.69C143.02 61.522 143.072 61.3867 143.174 61.284C143.286 61.1813 143.431 61.13 143.608 61.13H148.704C148.872 61.13 149.003 61.172 149.096 61.256C149.19 61.34 149.236 61.4613 149.236 61.62C149.236 61.7693 149.19 61.886 149.096 61.97C149.003 62.054 148.872 62.096 148.704 62.096H144.154V65.498H148.424C148.592 65.498 148.723 65.54 148.816 65.624C148.91 65.708 148.956 65.8293 148.956 65.988C148.956 66.1373 148.91 66.254 148.816 66.338C148.723 66.422 148.592 66.464 148.424 66.464H144.154V70.482C144.154 70.6593 144.103 70.804 144 70.916C143.907 71.0187 143.772 71.07 143.594 71.07ZM158.425 71.112C157.51 71.112 156.712 70.9067 156.031 70.496C155.359 70.0853 154.841 69.502 154.477 68.746C154.113 67.99 153.931 67.0987 153.931 66.072C153.931 65.036 154.108 64.14 154.463 63.384C154.827 62.6187 155.345 62.0353 156.017 61.634C156.698 61.2233 157.501 61.018 158.425 61.018C159.349 61.018 160.147 61.2233 160.819 61.634C161.5 62.0353 162.018 62.6187 162.373 63.384C162.737 64.14 162.919 65.0313 162.919 66.058C162.919 67.0847 162.737 67.9807 162.373 68.746C162.009 69.502 161.486 70.0853 160.805 70.496C160.133 70.9067 159.339 71.112 158.425 71.112ZM158.425 70.132C159.47 70.132 160.282 69.782 160.861 69.082C161.449 68.3727 161.743 67.3647 161.743 66.058C161.743 64.7513 161.453 63.748 160.875 63.048C160.296 62.348 159.479 61.998 158.425 61.998C157.379 61.998 156.563 62.3527 155.975 63.062C155.396 63.762 155.107 64.7607 155.107 66.058C155.107 67.3553 155.396 68.3587 155.975 69.068C156.563 69.7773 157.379 70.132 158.425 70.132ZM176.218 70.286C176.283 70.3887 176.316 70.496 176.316 70.608C176.316 70.748 176.26 70.8647 176.148 70.958C176.045 71.042 175.924 71.084 175.784 71.084C175.569 71.084 175.401 70.9907 175.28 70.804L173.404 67.836C173.161 67.4533 172.909 67.192 172.648 67.052C172.387 66.9027 172.032 66.828 171.584 66.828H169.82V70.482C169.82 70.6593 169.769 70.804 169.666 70.916C169.563 71.0187 169.428 71.07 169.26 71.07C169.083 71.07 168.943 71.0187 168.84 70.916C168.737 70.804 168.686 70.6593 168.686 70.482V61.69C168.686 61.522 168.737 61.3867 168.84 61.284C168.952 61.1813 169.097 61.13 169.274 61.13H172.746C173.819 61.13 174.636 61.368 175.196 61.844C175.765 62.32 176.05 63.02 176.05 63.944C176.05 64.728 175.821 65.358 175.364 65.834C174.916 66.31 174.272 66.5993 173.432 66.702C173.665 66.7767 173.875 66.898 174.062 67.066C174.249 67.234 174.435 67.4673 174.622 67.766L176.218 70.286ZM172.648 65.876C173.413 65.876 173.983 65.7173 174.356 65.4C174.739 65.0827 174.93 64.602 174.93 63.958C174.93 63.3233 174.743 62.852 174.37 62.544C173.997 62.236 173.423 62.082 172.648 62.082H169.82V65.876H172.648ZM184.678 71.07C184.501 71.07 184.356 71.0187 184.244 70.916C184.142 70.804 184.09 70.6593 184.09 70.482V62.11H181.08C180.912 62.11 180.782 62.068 180.688 61.984C180.595 61.9 180.548 61.7787 180.548 61.62C180.548 61.4613 180.595 61.34 180.688 61.256C180.782 61.172 180.912 61.13 181.08 61.13H188.262C188.43 61.13 188.561 61.172 188.654 61.256C188.748 61.34 188.794 61.4613 188.794 61.62C188.794 61.7787 188.748 61.9 188.654 61.984C188.561 62.068 188.43 62.11 188.262 62.11H185.252V70.482C185.252 70.6593 185.201 70.804 185.098 70.916C184.996 71.0187 184.856 71.07 184.678 71.07Z" fill="#373737"/>
<rect x="3" y="45" width="44" height="5" fill="#126ABF"/>
<rect x="51" y="45" width="44" height="5" fill="#126ABF"/>
<rect x="99" y="45" width="44" height="5" fill="#126ABF"/>
<rect x="147" y="45" width="44" height="5" fill="#126ABF"/>
<path d="M12.308 34.272C9.18 34.272 6.81133 33.456 5.202 31.824C3.59267 30.192 2.788 27.7893 2.788 24.616V11.288C2.788 10.8573 2.91267 10.5173 3.162 10.268C3.41133 9.996 3.75133 9.86 4.182 9.86C4.59 9.86 4.91867 9.996 5.168 10.268C5.41733 10.5173 5.542 10.8573 5.542 11.288V24.854C5.542 27.1887 6.10867 28.9453 7.242 30.124C8.398 31.3027 10.0867 31.892 12.308 31.892C14.5293 31.892 16.2067 31.3027 17.34 30.124C18.4733 28.9453 19.04 27.1887 19.04 24.854V11.288C19.04 10.8573 19.1647 10.5173 19.414 10.268C19.686 9.996 20.026 9.86 20.434 9.86C20.8647 9.86 21.2047 9.996 21.454 10.268C21.7033 10.5173 21.828 10.8573 21.828 11.288V24.616C21.828 27.7667 21.012 30.1693 19.38 31.824C17.7707 33.456 15.4133 34.272 12.308 34.272ZM28.5475 34.17C28.1395 34.17 27.7995 34.0567 27.5275 33.83C27.2782 33.5807 27.1535 33.2407 27.1535 32.81V11.22C27.1535 10.7893 27.2782 10.4607 27.5275 10.234C27.7995 9.98467 28.1395 9.86 28.5475 9.86C28.9328 9.86 29.2502 9.98467 29.4995 10.234C29.7715 10.4607 29.9075 10.7893 29.9075 11.22V32.81C29.9075 33.2407 29.7715 33.5807 29.4995 33.83C29.2502 34.0567 28.9328 34.17 28.5475 34.17ZM42.7059 31.994C43.4992 32.062 43.8959 32.4247 43.8959 33.082C43.8959 33.4673 43.7485 33.762 43.4539 33.966C43.1819 34.1473 42.7625 34.2153 42.1959 34.17L41.2779 34.102C39.4645 33.966 38.1272 33.422 37.2659 32.47C36.4045 31.518 35.9739 30.0787 35.9739 28.152V19.618H33.6959C33.3105 19.618 33.0045 19.5273 32.7779 19.346C32.5739 19.142 32.4719 18.8813 32.4719 18.564C32.4719 18.224 32.5739 17.952 32.7779 17.748C33.0045 17.544 33.3105 17.442 33.6959 17.442H35.9739V13.6C35.9739 13.1693 36.0985 12.8407 36.3479 12.614C36.5972 12.3647 36.9372 12.24 37.3679 12.24C37.7759 12.24 38.1045 12.3647 38.3539 12.614C38.6032 12.8407 38.7279 13.1693 38.7279 13.6V17.442H42.5019C42.8645 17.442 43.1479 17.544 43.3519 17.748C43.5785 17.952 43.6919 18.224 43.6919 18.564C43.6919 18.8813 43.5785 19.142 43.3519 19.346C43.1479 19.5273 42.8645 19.618 42.5019 19.618H38.7279V28.288C38.7279 29.5347 38.9772 30.4413 39.4759 31.008C39.9972 31.552 40.7679 31.858 41.7879 31.926L42.7059 31.994ZM54.8045 17.102C55.7565 17.034 56.2325 17.4193 56.2325 18.258C56.2325 18.6207 56.1305 18.9153 55.9265 19.142C55.7225 19.346 55.3712 19.4707 54.8725 19.516L53.8525 19.618C52.3339 19.754 51.2005 20.298 50.4525 21.25C49.7272 22.1793 49.3645 23.2787 49.3645 24.548V32.81C49.3645 33.2633 49.2399 33.6033 48.9905 33.83C48.7412 34.0567 48.4125 34.17 48.0045 34.17C47.5965 34.17 47.2565 34.0567 46.9845 33.83C46.7352 33.5807 46.6105 33.2407 46.6105 32.81V18.462C46.6105 18.0313 46.7465 17.7027 47.0185 17.476C47.2905 17.2267 47.6192 17.102 48.0045 17.102C48.3672 17.102 48.6732 17.2267 48.9225 17.476C49.1719 17.7027 49.2965 18.02 49.2965 18.428V20.332C49.7725 19.3347 50.4412 18.5753 51.3025 18.054C52.1865 17.5327 53.1952 17.2267 54.3285 17.136L54.8045 17.102ZM65.2301 17.034C69.3781 17.034 71.4521 19.21 71.4521 23.562V32.81C71.4521 33.218 71.3274 33.5467 71.0781 33.796C70.8514 34.0453 70.5341 34.17 70.1261 34.17C69.7181 34.17 69.3894 34.0453 69.1401 33.796C68.8907 33.5467 68.7661 33.218 68.7661 32.81V31.178C68.3354 32.1527 67.6781 32.912 66.7941 33.456C65.9101 33.9773 64.8901 34.238 63.7341 34.238C62.6687 34.238 61.6827 34.0227 60.7761 33.592C59.8921 33.1613 59.1894 32.5607 58.6681 31.79C58.1467 31.0193 57.8861 30.1693 57.8861 29.24C57.8861 27.9933 58.2034 27.03 58.8381 26.35C59.4727 25.6473 60.5154 25.1487 61.9661 24.854C63.4167 24.5367 65.4341 24.378 68.0181 24.378H68.7661V23.256C68.7661 21.896 68.4827 20.8987 67.9161 20.264C67.3721 19.6293 66.4767 19.312 65.2301 19.312C63.6887 19.312 62.1247 19.7313 60.5381 20.57C59.9261 20.9553 59.4954 21.148 59.2461 21.148C58.9741 21.148 58.7474 21.046 58.5661 20.842C58.3847 20.638 58.2941 20.3773 58.2941 20.06C58.2941 19.7427 58.3847 19.4707 58.5661 19.244C58.7701 18.9947 59.0874 18.7453 59.5181 18.496C60.3114 18.0427 61.2067 17.6913 62.2041 17.442C63.2241 17.17 64.2327 17.034 65.2301 17.034ZM64.1081 32.062C65.4681 32.062 66.5787 31.6087 67.4401 30.702C68.3241 29.7727 68.7661 28.5827 68.7661 27.132V26.146H68.1541C66.1594 26.146 64.6407 26.2367 63.5981 26.418C62.5554 26.5767 61.8074 26.86 61.3541 27.268C60.9234 27.6533 60.7081 28.2313 60.7081 29.002C60.7081 29.886 61.0254 30.6227 61.6601 31.212C62.3174 31.7787 63.1334 32.062 64.1081 32.062ZM92.093 34.238C90.5517 34.238 89.1803 33.8867 87.979 33.184C86.8003 32.4813 85.8823 31.484 85.225 30.192C84.5903 28.9 84.273 27.404 84.273 25.704C84.273 24.004 84.6017 22.4967 85.259 21.182C85.939 19.8673 86.8797 18.8473 88.081 18.122C89.2823 17.3967 90.665 17.034 92.229 17.034C93.0903 17.034 93.9403 17.1587 94.779 17.408C95.6403 17.6347 96.3883 17.9747 97.023 18.428C97.431 18.7 97.7143 18.972 97.873 19.244C98.0543 19.4933 98.145 19.7767 98.145 20.094C98.145 20.4113 98.0543 20.672 97.873 20.876C97.7143 21.08 97.499 21.182 97.227 21.182C97.0683 21.182 96.8983 21.1367 96.717 21.046C96.5357 20.9553 96.377 20.8647 96.241 20.774C96.1277 20.6833 96.0483 20.6267 96.003 20.604C95.4137 20.2187 94.847 19.9127 94.303 19.686C93.7817 19.4593 93.1357 19.346 92.365 19.346C90.7103 19.346 89.4183 19.9127 88.489 21.046C87.5823 22.1567 87.129 23.7093 87.129 25.704C87.129 27.6987 87.5823 29.24 88.489 30.328C89.4183 31.416 90.7103 31.96 92.365 31.96C93.1357 31.96 93.793 31.8467 94.337 31.62C94.9037 31.3933 95.4703 31.0873 96.037 30.702C96.2863 30.5433 96.5243 30.4073 96.751 30.294C96.9777 30.1807 97.1703 30.124 97.329 30.124C97.5783 30.124 97.7823 30.226 97.941 30.43C98.1223 30.634 98.213 30.8947 98.213 31.212C98.213 31.5067 98.1337 31.7787 97.975 32.028C97.8163 32.2547 97.5217 32.5153 97.091 32.81C96.4563 33.2407 95.6857 33.592 94.779 33.864C93.895 34.1133 92.9997 34.238 92.093 34.238ZM108.397 34.238C106.833 34.238 105.45 33.8867 104.249 33.184C103.07 32.4813 102.152 31.484 101.495 30.192C100.86 28.8773 100.543 27.3587 100.543 25.636C100.543 23.9133 100.86 22.406 101.495 21.114C102.152 19.7993 103.07 18.7907 104.249 18.088C105.45 17.3853 106.833 17.034 108.397 17.034C109.961 17.034 111.343 17.3853 112.545 18.088C113.746 18.7907 114.664 19.7993 115.299 21.114C115.956 22.406 116.285 23.9133 116.285 25.636C116.285 27.3587 115.956 28.8773 115.299 30.192C114.664 31.484 113.746 32.4813 112.545 33.184C111.343 33.8867 109.961 34.238 108.397 34.238ZM108.397 31.96C110.029 31.96 111.275 31.4273 112.137 30.362C113.021 29.274 113.463 27.6987 113.463 25.636C113.463 23.6187 113.021 22.066 112.137 20.978C111.253 19.8673 110.006 19.312 108.397 19.312C106.787 19.312 105.541 19.8673 104.657 20.978C103.773 22.066 103.331 23.6187 103.331 25.636C103.331 27.676 103.761 29.24 104.623 30.328C105.507 31.416 106.765 31.96 108.397 31.96ZM128.718 17.034C132.685 17.034 134.668 19.2213 134.668 23.596V32.81C134.668 33.2407 134.543 33.5807 134.294 33.83C134.067 34.0567 133.739 34.17 133.308 34.17C132.877 34.17 132.537 34.0567 132.288 33.83C132.039 33.5807 131.914 33.2407 131.914 32.81V23.766C131.914 22.2247 131.608 21.1027 130.996 20.4C130.407 19.6973 129.455 19.346 128.14 19.346C126.621 19.346 125.409 19.8107 124.502 20.74C123.595 21.6693 123.142 22.9273 123.142 24.514V32.81C123.142 33.2407 123.017 33.5807 122.768 33.83C122.541 34.0567 122.213 34.17 121.782 34.17C121.351 34.17 121.011 34.0567 120.762 33.83C120.513 33.5807 120.388 33.2407 120.388 32.81V18.462C120.388 18.054 120.513 17.7253 120.762 17.476C121.011 17.2267 121.351 17.102 121.782 17.102C122.19 17.102 122.507 17.2267 122.734 17.476C122.983 17.7253 123.108 18.0427 123.108 18.428V20.162C123.652 19.142 124.411 18.3713 125.386 17.85C126.361 17.306 127.471 17.034 128.718 17.034ZM147.022 12.206C145.821 12.2967 144.914 12.682 144.302 13.362C143.69 14.0193 143.384 15.0167 143.384 16.354V17.442H147.158C147.543 17.442 147.838 17.544 148.042 17.748C148.246 17.952 148.348 18.224 148.348 18.564C148.348 18.904 148.246 19.1647 148.042 19.346C147.838 19.5273 147.543 19.618 147.158 19.618H143.384V32.81C143.384 33.2407 143.248 33.5807 142.976 33.83C142.727 34.0567 142.409 34.17 142.024 34.17C141.616 34.17 141.276 34.0567 141.004 33.83C140.755 33.5807 140.63 33.2407 140.63 32.81V19.618H138.352C137.967 19.618 137.661 19.5273 137.434 19.346C137.23 19.142 137.128 18.8813 137.128 18.564C137.128 18.224 137.23 17.952 137.434 17.748C137.661 17.544 137.967 17.442 138.352 17.442H140.63V16.83C140.63 14.79 141.14 13.192 142.16 12.036C143.18 10.8573 144.642 10.2 146.546 10.064L147.43 9.996C148.019 9.95067 148.439 10.0073 148.688 10.166C148.96 10.3247 149.096 10.608 149.096 11.016C149.096 11.6733 148.699 12.0473 147.906 12.138L147.022 12.206ZM157.57 34.238C156.006 34.238 154.624 33.8867 153.422 33.184C152.244 32.4813 151.326 31.484 150.668 30.192C150.034 28.8773 149.716 27.3587 149.716 25.636C149.716 23.9133 150.034 22.406 150.668 21.114C151.326 19.7993 152.244 18.7907 153.422 18.088C154.624 17.3853 156.006 17.034 157.57 17.034C159.134 17.034 160.517 17.3853 161.718 18.088C162.92 18.7907 163.838 19.7993 164.472 21.114C165.13 22.406 165.458 23.9133 165.458 25.636C165.458 27.3587 165.13 28.8773 164.472 30.192C163.838 31.484 162.92 32.4813 161.718 33.184C160.517 33.8867 159.134 34.238 157.57 34.238ZM157.57 31.96C159.202 31.96 160.449 31.4273 161.31 30.362C162.194 29.274 162.636 27.6987 162.636 25.636C162.636 23.6187 162.194 22.066 161.31 20.978C160.426 19.8673 159.18 19.312 157.57 19.312C155.961 19.312 154.714 19.8673 153.83 20.978C152.946 22.066 152.504 23.6187 152.504 25.636C152.504 27.676 152.935 29.24 153.796 30.328C154.68 31.416 155.938 31.96 157.57 31.96ZM177.756 17.102C178.708 17.034 179.184 17.4193 179.184 18.258C179.184 18.6207 179.082 18.9153 178.878 19.142C178.674 19.346 178.322 19.4707 177.824 19.516L176.804 19.618C175.285 19.754 174.152 20.298 173.404 21.25C172.678 22.1793 172.316 23.2787 172.316 24.548V32.81C172.316 33.2633 172.191 33.6033 171.942 33.83C171.692 34.0567 171.364 34.17 170.956 34.17C170.548 34.17 170.208 34.0567 169.936 33.83C169.686 33.5807 169.562 33.2407 169.562 32.81V18.462C169.562 18.0313 169.698 17.7027 169.97 17.476C170.242 17.2267 170.57 17.102 170.956 17.102C171.318 17.102 171.624 17.2267 171.874 17.476C172.123 17.7027 172.248 18.02 172.248 18.428V20.332C172.724 19.3347 173.392 18.5753 174.254 18.054C175.138 17.5327 176.146 17.2267 177.28 17.136L177.756 17.102ZM190.526 31.994C191.32 32.062 191.716 32.4247 191.716 33.082C191.716 33.4673 191.569 33.762 191.274 33.966C191.002 34.1473 190.583 34.2153 190.016 34.17L189.098 34.102C187.285 33.966 185.948 33.422 185.086 32.47C184.225 31.518 183.794 30.0787 183.794 28.152V19.618H181.516C181.131 19.618 180.825 19.5273 180.598 19.346C180.394 19.142 180.292 18.8813 180.292 18.564C180.292 18.224 180.394 17.952 180.598 17.748C180.825 17.544 181.131 17.442 181.516 17.442H183.794V13.6C183.794 13.1693 183.919 12.8407 184.168 12.614C184.418 12.3647 184.758 12.24 185.188 12.24C185.596 12.24 185.925 12.3647 186.174 12.614C186.424 12.8407 186.548 13.1693 186.548 13.6V17.442H190.322C190.685 17.442 190.968 17.544 191.172 17.748C191.399 17.952 191.512 18.224 191.512 18.564C191.512 18.8813 191.399 19.142 191.172 19.346C190.968 19.5273 190.685 19.618 190.322 19.618H186.548V28.288C186.548 29.5347 186.798 30.4413 187.296 31.008C187.818 31.552 188.588 31.858 189.608 31.926L190.526 31.994Z" fill="#373737"/>
</svg>
